<svg height="42" viewBox="0 0 41.25 42" width="41.25" xmlns="http://www.w3.org/2000/svg">
    <g id="buy_now" transform="translate(0 -1)">
        <g data-name="Group 639" id="Group_639" transform="translate(9.25 14.415)">
            <path d="M24.7,28.976H8.055a1.3,1.3,0,0,1-1.2-1.186L5.018,15.381a1.566,1.566,0,0,1,.437-1.361,1.076,1.076,0,0,1,1.225-.21l4.981,2.39,3.656-7.5a1.171,1.171,0,0,1,2.116,0l3.656,7.5,4.981-2.39a1.076,1.076,0,0,1,1.225.21,1.576,1.576,0,0,1,.437,1.361L25.9,27.79A1.3,1.3,0,0,1,24.7,28.976ZM9.081,26.112H23.67l1.284-8.673-3.931,1.884a1.138,1.138,0,0,1-1.519-.613l-3.128-6.42-3.128,6.42a1.137,1.137,0,0,1-1.519.613L7.8,17.439Z"
                  data-name="Path 1182"
                  fill="#76768e"
                  id="Path_1182" transform="translate(-5 -8.027)"/>
        </g>
        <g data-name="Group 640" id="Group_640" transform="translate(0 1)">
            <path d="M36.523,43H4.727A5.013,5.013,0,0,1,0,37.75V6.25A5.013,5.013,0,0,1,4.727,1h31.8A5.013,5.013,0,0,1,41.25,6.25v31.5A5.013,5.013,0,0,1,36.523,43ZM4.727,3.864A2.28,2.28,0,0,0,2.578,6.25v31.5a2.28,2.28,0,0,0,2.148,2.386h31.8a2.28,2.28,0,0,0,2.148-2.386V6.25a2.28,2.28,0,0,0-2.148-2.386Z"
                  data-name="Path 1183"
                  fill="#76768e"
                  id="Path_1183" transform="translate(0 -1)"/>
        </g>
        <g data-name="Group 641" id="Group_641" transform="translate(0 7.682)">
            <path d="M39.961,7.364H1.289A1.367,1.367,0,0,1,0,5.932,1.367,1.367,0,0,1,1.289,4.5H39.961A1.367,1.367,0,0,1,41.25,5.932,1.367,1.367,0,0,1,39.961,7.364Z"
                  data-name="Path 1184"
                  fill="#76768e"
                  id="Path_1184" transform="translate(0 -4.5)"/>
        </g>
    </g>
</svg>
