<svg height="49.063" viewBox="0 0 45.038 49.063" width="45.038" xmlns="http://www.w3.org/2000/svg">
    <g id="feeds_active" transform="translate(-18.697)">
        <path d="M102.4,1246.327s12.07,18.608,25.146,0c-.252-.251-12.321-13.327-12.321-13.327Z" fill="#5766e1"
              id="circle" transform="translate(-796.077 964.858) rotate(-133)"/>
        <path d="M108.189,169.9H130.18a1.23,1.23,0,0,0,0-2.461H108.189a1.23,1.23,0,1,0,0,2.461Z" data-name="Path 1167"
              fill="#3d4a8d"
              id="Path_1167" transform="translate(-74.318 -153.704)"/>
        <path d="M59.018,4.408H50.388a5.662,5.662,0,0,0-11.042,0H30.717A4.715,4.715,0,0,0,26,9.111V37.3A4.715,4.715,0,0,0,30.717,42H54.979a1.23,1.23,0,0,0,.868-.359l7.525-7.495a1.23,1.23,0,0,0,.362-.872V9.111a4.715,4.715,0,0,0-4.717-4.7ZM44.867,2.461a3.178,3.178,0,1,1-3.2,3.178A3.191,3.191,0,0,1,44.867,2.461ZM28.461,37.3V9.111a2.251,2.251,0,0,1,2.256-2.242h8.629a5.662,5.662,0,0,0,11.042,0h8.629a2.251,2.251,0,0,1,2.256,2.242V32.044H54.979a1.23,1.23,0,0,0-1.23,1.23v6.264H30.717A2.251,2.251,0,0,1,28.461,37.3Zm31.064-2.792-3.316,3.3v-3.3Z"
              data-name="Path 1166"
              fill="#3d4a8d"
              id="Path_1166"/>
        <path d="M108.189,229.9h19.53a1.23,1.23,0,1,0,0-2.461h-19.53a1.23,1.23,0,1,0,0,2.461Z" data-name="Path 1168"
              fill="#3d4a8d"
              id="Path_1168" transform="translate(-74.318 -208.782)"/>
        <path d="M108.189,289.9H130.18a1.23,1.23,0,1,0,0-2.461H108.189a1.23,1.23,0,1,0,0,2.461Z" data-name="Path 1169"
              fill="#3d4a8d"
              id="Path_1169" transform="translate(-74.318 -263.86)"/>
        <path d="M118.05,347.439H107.821c-.476,0-.862.551-.862,1.23s.386,1.23.862,1.23H118.05c.476,0,.862-.551.862-1.23S118.526,347.439,118.05,347.439Z"
              data-name="Path 1170"
              fill="#3d4a8d"
              id="Path_1170" transform="translate(-74.318 -318.938)"/>
    </g>
</svg>
