<svg height="42" id="forum" viewBox="0 0 41.979 42" width="41.979" xmlns="http://www.w3.org/2000/svg">
    <path d="M35.95,6.156A20.994,20.994,0,0,0,4.872,34.314a7.879,7.879,0,0,1-3.307,3.825,1.959,1.959,0,0,0,.563,3.693,9.991,9.991,0,0,0,1.486.114h0A13.578,13.578,0,0,0,11.159,39.5,21,21,0,0,0,35.95,6.156ZM34.27,34.165a18.629,18.629,0,0,1-22.592,2.893,1.182,1.182,0,0,0-1.328.079,11.307,11.307,0,0,1-6.587,2.418,11.95,11.95,0,0,0,3.6-4.969,1.2,1.2,0,0,0-.2-1.266,18.62,18.62,0,1,1,27.112.844Z"
          data-name="Path 1178"
          fill="#76768e"
          id="Path_1178" transform="translate(-0.117)"/>
    <path d="M144.058,160H126.47a1.187,1.187,0,0,0,0,2.374h17.588a1.187,1.187,0,1,0,0-2.374Z" data-name="Path 1179"
          fill="#76768e"
          id="Path_1179" transform="translate(-114.276 -145.93)"/>
    <path d="M144.058,225.3H126.47a1.187,1.187,0,1,0,0,2.374h17.588a1.187,1.187,0,1,0,0-2.374Z" data-name="Path 1180"
          fill="#76768e"
          id="Path_1180" transform="translate(-114.276 -205.487)"/>
    <path d="M144.058,290.6H126.47a1.187,1.187,0,0,0,0,2.374h17.588a1.187,1.187,0,1,0,0-2.374Z" data-name="Path 1181"
          fill="#76768e"
          id="Path_1181" transform="translate(-114.276 -265.045)"/>
</svg>
