<svg height="185" viewBox="0 0 185 185" width="185"
     xmlns="http://www.w3.org/2000/svg">
    <defs>
        <filter filterUnits="userSpaceOnUse" height="185" id="circle" width="185" x="0" y="0">
            <feOffset dy="12" input="SourceAlpha"/>
            <feGaussianBlur result="blur" stdDeviation="13.5"/>
            <feFlood flood-color="#717171" flood-opacity="0.161"/>
            <feComposite in2="blur" operator="in"/>
            <feComposite in="SourceGraphic"/>
        </filter>
    </defs>
    <g id="live_session" transform="translate(-281.5 -1130.5)">
        <g filter="url(#circle)" transform="matrix(1, 0, 0, 1, 281.5, 1130.5)">
            <path d="M52,0A52,52,0,1,1,0,52,52,52,0,0,1,52,0Z" data-name="circle" fill="#e63946"
                  id="circle-2" transform="translate(40.5 28.5)"/>
        </g>
        <g id="electronics" transform="translate(349 1179.999)">
            <path d="M213.413,91.223a3.553,3.553,0,1,1,0-5.019A3.561,3.561,0,0,1,213.413,91.223Zm0,0"
                  data-name="Path 1320"
                  fill="#fff"
                  id="Path_1320" transform="translate(-184.664 -75.849)"/>
            <path d="M293.494,61.274a1.69,1.69,0,0,1-1.194-2.886,7.062,7.062,0,0,0,0-10,1.69,1.69,0,0,1,2.388-2.393,10.443,10.443,0,0,1,0,14.787,1.684,1.684,0,0,1-1.194.494Zm0,0"
                  data-name="Path 1321"
                  fill="#fff"
                  id="Path_1321" transform="translate(-259.888 -40.522)"/>
            <path d="M328.447,25.73a1.69,1.69,0,0,1-1.194-2.886,14.089,14.089,0,0,0,0-19.954A1.69,1.69,0,0,1,329.641.5a17.471,17.471,0,0,1,0,24.74,1.685,1.685,0,0,1-1.194.493Zm0,0"
                  data-name="Path 1322"
                  fill="#fff"
                  id="Path_1322" transform="translate(-291.018 -0.002)"/>
            <path d="M137.664,61.273a1.686,1.686,0,0,1-1.194-.494,10.443,10.443,0,0,1,0-14.787,1.69,1.69,0,0,1,2.388,2.393,7.062,7.062,0,0,0,0,10,1.69,1.69,0,0,1-1.194,2.886Zm0,0"
                  data-name="Path 1323"
                  fill="#fff"
                  id="Path_1323" transform="translate(-118.812 -40.521)"/>
            <path d="M85.894,25.728a1.684,1.684,0,0,1-1.194-.494,17.471,17.471,0,0,1,0-24.74,1.69,1.69,0,0,1,2.388,2.393,14.089,14.089,0,0,0,0,19.955,1.69,1.69,0,0,1-1.194,2.886Zm0,0"
                  data-name="Path 1324"
                  fill="#fff"
                  id="Path_1324" transform="translate(-70.864 0)"/>
            <path d="M48.505,261.938H3.953A3.954,3.954,0,0,0,0,265.891v19.444a3.954,3.954,0,0,0,3.954,3.954H48.5a3.954,3.954,0,0,0,3.954-3.954V265.891a3.953,3.953,0,0,0-3.953-3.953ZM13,284.216H6.774a1.69,1.69,0,0,1-1.69-1.69V268.7a1.69,1.69,0,1,1,3.38,0v12.135H13a1.69,1.69,0,0,1,0,3.38Zm6.927-1.69a1.69,1.69,0,1,1-3.38,0V268.7a1.69,1.69,0,1,1,3.38,0ZM34.148,269.19l-4.174,13.824v0a1.713,1.713,0,0,1-3.233,0v0L22.565,269.19a1.69,1.69,0,1,1,3.236-.977l2.556,8.465,2.556-8.465a1.69,1.69,0,1,1,3.236.977Zm10.4,3.863a1.69,1.69,0,0,1,0,3.38h-4.8v4.4h5.707a1.69,1.69,0,0,1,0,3.38h-7.4a1.69,1.69,0,0,1-1.69-1.69V268.7a1.69,1.69,0,0,1,1.69-1.69h7.625a1.69,1.69,0,0,1,0,3.38H39.749v2.662Zm0,0"
                  data-name="Path 1325"
                  fill="#fff"
                  id="Path_1325" transform="translate(0 -233.288)"/>
        </g>
    </g>
</svg>
