<svg height="155.409" viewBox="0 0 220.052 155.409" width="220.052" xmlns="http://www.w3.org/2000/svg">
    <g id="resume" transform="translate(-249.551 -144.856)">
        <g data-name="Group 607" id="Group_607" transform="translate(249.551 197.864)">
            <g data-name="Group 605" id="Group_605" transform="translate(6.77)">
                <g data-name="Group 594" id="Group_594" transform="translate(5.485 4.694)">
                    <path d="M335.253,287.6H285.529l-12.414-29.447a2.319,2.319,0,0,1,2.137-3.22h44.691a2.32,2.32,0,0,1,2.137,1.418Z"
                          data-name="Path 1065"
                          fill="#c4c6cf"
                          id="Path_1065" transform="translate(-272.93 -254.935)"/>
                    <rect data-name="Rectangle 178" fill="#b6b8bf" height="3.69" id="Rectangle_178"
                          transform="translate(11.063 28.974)" width="80.777"/>
                </g>
                <g data-name="Group 595" id="Group_595" transform="translate(11.042 7.559)">
                    <path d="M292.255,283.468l-8.565-20.316a1.982,1.982,0,0,1,1.826-2.752h36.321a1.982,1.982,0,0,1,1.826,1.212l8.565,20.315a1.982,1.982,0,0,1-1.826,2.752H294.082A1.982,1.982,0,0,1,292.255,283.468Z"
                          data-name="Path 1066"
                          fill="#fff"
                          id="Path_1066" transform="translate(-283.533 -260.4)"/>
                </g>
                <g data-name="Group 601" id="Group_601" transform="translate(16.085 10.449)">
                    <g data-name="Group 598" id="Group_598">
                        <g data-name="Group 596" id="Group_596" transform="translate(1.05 1.968)">
                            <path d="M326.117,270.193h-30.7a.262.262,0,1,1,0-.524h30.7a.262.262,0,0,1,0,.524Z"
                                  data-name="Path 1067"
                                  fill="#c4c6cf"
                                  id="Path_1067" transform="translate(-295.156 -269.669)"/>
                        </g>
                        <g data-name="Group 597" id="Group_597">
                            <path d="M324.113,266.438h-30.7a.262.262,0,0,1,0-.524h30.7a.262.262,0,1,1,0,.524Z"
                                  data-name="Path 1068"
                                  fill="#c4c6cf"
                                  id="Path_1068" transform="translate(-293.152 -265.914)"/>
                        </g>
                    </g>
                    <g data-name="Group 599" id="Group_599" transform="translate(3.429 4.539)">
                        <path d="M310.8,285.729h10.575l-4.7-11.155h-16.98l4.7,11.155h3.664l-.606,2.8Z"
                              data-name="Path 1069"
                              fill="#ff5d54"
                              id="Path_1069" transform="translate(-299.693 -274.574)"/>
                        <path d="M341.865,290.8h2.6l-4.7-11.155h-16.98l4.7,11.155h10.987l4.075,1.917Z"
                              data-name="Path 1070"
                              fill="#382c4d"
                              id="Path_1070" transform="translate(-310.679 -276.985)"/>
                    </g>
                    <g data-name="Group 600" id="Group_600" transform="translate(28.785 3.452)">
                        <path d="M352.305,273a3.736,3.736,0,0,0-2.577,6.443l-.448,2.24,2.129-1.318a3.737,3.737,0,1,0,.9-7.365Z"
                              data-name="Path 1071"
                              fill="#fff"
                              id="Path_1071" transform="translate(-348.304 -272.737)"/>
                        <path d="M349.042,281.706a.266.266,0,0,1-.149-.047.262.262,0,0,1-.108-.267l.42-2.1a3.959,3.959,0,0,1-1.139-2.791,4,4,0,1,1,3.151,3.906l-2.038,1.261A.255.255,0,0,1,349.042,281.706Zm3.025-8.683a3.481,3.481,0,0,0-3.477,3.477,3.444,3.444,0,0,0,1.08,2.514.262.262,0,0,1,.076.241l-.329,1.648,1.616-1a.263.263,0,0,1,.2-.031,3.537,3.537,0,0,0,.834.1,3.477,3.477,0,1,0,0-6.954Z"
                              data-name="Path 1072"
                              fill="#c4c6cf"
                              id="Path_1072" transform="translate(-348.066 -272.499)"/>
                    </g>
                </g>
                <g data-name="Group 604" id="Group_604">
                    <g data-name="Group 602" id="Group_602" transform="translate(2.139 1.922)">
                        <path d="M267.748,256.885a.262.262,0,0,1-.241-.159l-.634-1.479a4.018,4.018,0,0,1,3.694-5.6h3.97a.262.262,0,0,1,0,.524h-3.97a3.494,3.494,0,0,0-3.212,4.871l.634,1.479a.262.262,0,0,1-.241.365Z"
                              data-name="Path 1073"
                              fill="#c4c6cf"
                              id="Path_1073" transform="translate(-266.547 -249.646)"/>
                    </g>
                    <g data-name="Group 603" id="Group_603">
                        <path d="M262.768,250.8a.262.262,0,0,1-.258-.224,4.024,4.024,0,0,1,3.975-4.6h.089a.262.262,0,0,1,0,.524h-.089a3.436,3.436,0,0,0-2.637,1.206,3.494,3.494,0,0,0-.82,2.792.261.261,0,0,1-.221.3A.241.241,0,0,1,262.768,250.8Z"
                              data-name="Path 1074"
                              fill="#c4c6cf"
                              id="Path_1074" transform="translate(-262.467 -245.98)"/>
                    </g>
                </g>
            </g>
            <g data-name="Group 606" id="Group_606" transform="translate(0 37.065)">
                <rect data-name="Rectangle 179" fill="#4a4d72" height="61.218" id="Rectangle_179"
                      transform="translate(10.626 3.837)" width="9.446"/>
                <rect data-name="Rectangle 180" fill="#585a8a" height="8.56" id="Rectangle_180" width="88.553"/>
            </g>
        </g>
        <g data-name="Group 625" id="Group_625" transform="translate(285.914 144.856)">
            <g data-name="Group 624" id="Group_624">
                <g data-name="Group 608" id="Group_608" transform="translate(48.405 40.064)">
                    <path d="M514.464,224.863c11.04-7.29,21.222-2.559,26.023,6.342,5.384,9.983,7.231,37.1,5.345,57.847s-8.488,35.21-15.09,39.927-13.182,7.53-33.324,7.615c-20.593.087-53.131,0-53.131,0s-32.7-3.528-33.01-20.819,7.231-36.154,17.605-37.411,64.449-7.231,64.449-7.231Z"
                          data-name="Path 1075"
                          fill="#ff9494"
                          id="Path_1075" transform="translate(-411.266 -221.288)"/>
                    <path d="M545.834,289.979c-1.887,20.752-8.492,35.215-15.091,39.927s-13.183,7.533-33.328,7.616c-20.59.089-53.131,0-53.131,0s-32.693-3.528-33.008-20.821c-.026-1.326,0-2.658.063-3.994.362-.021.734-.037,1.111-.042,0,0,16.533,14.169,56.082,13.87s63.17-20.07,67.007-42.5c3.682-21.525,4.974-50.571-4.723-60.792a18.853,18.853,0,0,1,9.671,8.9C545.87,242.116,547.716,269.232,545.834,289.979Z"
                          data-name="Path 1076"
                          fill="#e63946"
                          id="Path_1076" transform="translate(-411.266 -222.217)"/>
                </g>
                <g data-name="Group 623" id="Group_623">
                    <path d="M518.941,262.7l19.439,6.55-3.458,7.86-15.038-5.764Z" data-name="Path 1077" fill="#ae4f55"
                          id="Path_1077" transform="translate(-414.094 -200.928)"/>
                    <g data-name="Group 609" id="Group_609" transform="translate(17.362 78.272)">
                        <path d="M388.282,400.493l-3.537,11.553,13.125.707,2.672-9.431Z" data-name="Path 1078"
                              fill="#ae4f55"
                              id="Path_1078" transform="translate(-367.603 -344.765)"/>
                        <path d="M388.493,371.608s3.144,4.4,13.519,3.458L413.958,338.6l-11.632-.628Z"
                              data-name="Path 1079"
                              fill="#1d1330"
                              id="Path_1079" transform="translate(-369.386 -315.015)"/>
                        <path d="M433.475,300.47s4.348-6.478,12.261-6.288c8.7.21,45.585,2.515,45.585,2.515l2.83,13.833Z"
                              data-name="Path 1080"
                              fill="#1d1330"
                              id="Path_1080" transform="translate(-390.79 -294.178)"/>
                        <path d="M369.552,420.185,353.2,426.8c-2.073,1.056-1.191,3.76,1.226,3.76h26.22a2.127,2.127,0,0,0,2.292-2.013l-.291-7.418Z"
                              data-name="Path 1081"
                              fill="#585a8a"
                              id="Path_1081" transform="translate(-352.043 -354.134)"/>
                    </g>
                    <g data-name="Group 611" id="Group_611" transform="translate(0 83.158)">
                        <path d="M358.254,398.544l-7.545,11.318,13.99.943,4.873-7.7Z" data-name="Path 1082"
                              fill="#f7a190"
                              id="Path_1082" transform="translate(-334.046 -348.723)"/>
                        <path d="M466.193,337.286l-68.535-11.632-24.129,36.39a12.894,12.894,0,0,1-12.025-7.152s22.636-48.625,33.953-50.93c11.807-2.4,61.3,5.345,61.3,5.345Z"
                              data-name="Path 1083"
                              fill="#382c4d"
                              id="Path_1083" transform="translate(-339.183 -303.499)"/>
                        <g data-name="Group 610" id="Group_610" transform="translate(0 58.033)">
                            <path d="M335.558,420.135l-15.475,6.615c-2.072,1.056-1.19,3.76,1.226,3.76h26.22a2.127,2.127,0,0,0,2.292-2.013l-.291-7.418Z"
                                  data-name="Path 1084"
                                  fill="#585a8a"
                                  id="Path_1084" transform="translate(-318.922 -417.029)"/>
                            <path d="M343.251,420.122l-3.06-1.581a11.744,11.744,0,0,0-1.467-2.489c-.809-1.006-2.218-1.961-3.361-1.829a1.568,1.568,0,0,0-1.271.936,1.547,1.547,0,0,0,0,1.5c.886,1.6,4.7,2.186,5.648,2.31l.35,4.45a.262.262,0,0,0,.26.241h.021a.261.261,0,0,0,.241-.281l-.33-4.194,2.725,1.408a.262.262,0,0,0,.241-.466Zm-8.7-3.721a1.178,1.178,0,0,1,.869-1.657,1.312,1.312,0,0,1,.153-.008,4.123,4.123,0,0,1,2.74,1.645,10.869,10.869,0,0,1,1.239,2.031C338.05,418.192,335.193,417.557,334.553,416.4Z"
                                  data-name="Path 1085"
                                  fill="#382c4d"
                                  id="Path_1085" transform="translate(-326.049 -414.211)"/>
                        </g>
                    </g>
                    <path d="M559.49,229.375c3.615-.157,13.466-1.362,13.466-1.362a31.106,31.106,0,0,1,7.807,11.527c4.087,17.5-7.86,51.768-32.381,61.829-7.793-10.54-12.413-23.981-14.147-36.573C540.417,258.508,550.9,235.353,559.49,229.375Z"
                          data-name="Path 1086"
                          fill="#585a8a"
                          id="Path_1086" transform="translate(-421.371 -184.424)"/>
                    <g data-name="Group 616" id="Group_616" transform="translate(126.172)">
                        <path d="M581.657,224.43c0,.041,0,0,0,0Z" data-name="Path 1087" fill="#f2f2f2"
                              id="Path_1087" transform="translate(-570.106 -182.719)"/>
                        <path d="M581.657,224.43c0,.041,0,0,0,0Z" data-name="Path 1088" fill="#f7a190"
                              id="Path_1088" transform="translate(-570.106 -182.719)"/>
                        <g data-name="Group 612" id="Group_612" transform="translate(11.895 21.293)">
                            <path d="M595.893,185.477v22.347c-1.048.575-6.818,3.665-10.455,4.123-2.188.276-2.991-1.013-3.036-2.784V185.477Z"
                                  data-name="Path 1089"
                                  fill="#f7a190"
                                  id="Path_1089" transform="translate(-582.357 -185.477)"/>
                            <path d="M595.8,196.574c-.577,2.867-4.185,9.259-13.438,11.278l-.047-7.084C585.173,199.772,592.546,200.867,595.8,196.574Z"
                                  data-name="Path 1090"
                                  fill="#ae4f55"
                                  id="Path_1090" transform="translate(-582.316 -190.757)"/>
                        </g>
                        <g data-name="Group 615" id="Group_615">
                            <path d="M615.307,167.607s.051,7.917-1.893,12.488a14.837,14.837,0,0,1-5.279,6.128v-8.7Z"
                                  data-name="Path 1091"
                                  fill="#382c4d"
                                  id="Path_1091" transform="translate(-582.706 -155.681)"/>
                            <path d="M569.945,159.426a42.444,42.444,0,0,0-1.658,14.462c.548,7.334,5.238,8.69,7.093,9.027s11.048,1.337,14.094-7.83c2.186-6.577,2.018-19.592-2.871-21.278S572.136,152.345,569.945,159.426Z"
                                  data-name="Path 1092"
                                  fill="#f7a190"
                                  id="Path_1092" transform="translate(-563.701 -148.701)"/>
                            <path d="M583.145,156.57c-2.008-1.3-3.925-1.029-8.85-.715-3.2.2-6.812,1.048-10.166-.21-2.838-1.064-5.192-3.824-4.323-7.009a5.027,5.027,0,0,1,5.124-3.758c2.552.262,4.723,1.972,7.394,1.426,4.611-.943,12.65-1.892,14.069,1.891,8.631-.473,5.513,14.427,5.513,14.427l-4.511,1.512C584.46,162.142,584.927,157.722,583.145,156.57Z"
                                  data-name="Path 1093"
                                  fill="#382c4d"
                                  id="Path_1093" transform="translate(-559.623 -144.856)"/>
                            <g data-name="Group 613" id="Group_613" transform="translate(6.213 15.165)">
                                <path d="M574.912,181.776a.868.868,0,1,1-.843-1.077A.982.982,0,0,1,574.912,181.776Z"
                                      data-name="Path 1094"
                                      fill="#382c4d"
                                      id="Path_1094" transform="translate(-572.308 -177.076)"/>
                                <path d="M589.6,181.683a.868.868,0,1,1-.843-1.077A.982.982,0,0,1,589.6,181.683Z"
                                      data-name="Path 1095"
                                      fill="#382c4d"
                                      id="Path_1095" transform="translate(-579.296 -177.032)"/>
                                <path d="M580.2,194.827a.263.263,0,0,1,.312-.024,2.078,2.078,0,0,0,3.122-1.607.262.262,0,0,1,.524.018,2.6,2.6,0,0,1-3.925,2.032.262.262,0,0,1-.083-.361A.276.276,0,0,1,580.2,194.827Z"
                                      data-name="Path 1096"
                                      fill="#ae4f55"
                                      id="Path_1096" transform="translate(-575.585 -182.902)"/>
                                <path d="M590.824,175.684a.259.259,0,0,1-.267-.159,2.065,2.065,0,0,0-3.462-.48.26.26,0,1,1-.414-.316,2.518,2.518,0,0,1,2.328-.921,2.492,2.492,0,0,1,2.031,1.515.262.262,0,0,1-.142.342A.252.252,0,0,1,590.824,175.684Z"
                                      data-name="Path 1097"
                                      fill="#382c4d"
                                      id="Path_1097" transform="translate(-578.685 -173.787)"/>
                                <path d="M571.737,176.168a.258.258,0,0,1-.125-.032.262.262,0,0,1-.1-.355c.8-1.461,2.435-1.9,4.173-1.117a.262.262,0,1,1-.215.478c-1.491-.671-2.831-.331-3.5.89A.262.262,0,0,1,571.737,176.168Z"
                                      data-name="Path 1098"
                                      fill="#382c4d"
                                      id="Path_1098" transform="translate(-571.475 -174.022)"/>
                                <path d="M579.4,188.626a1.108,1.108,0,0,1-.72-.2c-1.1-.931.71-3.168.919-3.42a.2.2,0,1,1,.3.252c-.5.6-1.649,2.29-.967,2.868.353.3,1.678-.069,2.507-.424a.2.2,0,1,1,.155.361A6.7,6.7,0,0,1,579.4,188.626Z"
                                      data-name="Path 1099"
                                      fill="#382c4d"
                                      id="Path_1099" transform="translate(-574.736 -179.091)"/>
                            </g>
                            <g data-name="Group 614" id="Group_614" transform="translate(24.216 17.893)">
                                <path d="M607.119,181.715s1.307-3.372,3.878-2.613c2.643.78.979,4.952,0,6.154-.927,1.138-2.993,2.318-4.468,1.433C604.644,185.558,607.119,181.715,607.119,181.715Z"
                                      data-name="Path 1100"
                                      fill="#f7a190"
                                      id="Path_1100" transform="translate(-605.821 -178.991)"/>
                                <path d="M613.846,184.944a.133.133,0,0,1-.062-.016.132.132,0,0,1-.053-.178c.969-1.78.716-2.911.206-3.338a1.046,1.046,0,0,0-1.37.1.131.131,0,0,1-.164-.2,1.311,1.311,0,0,1,1.7-.093c.586.491.9,1.746-.143,3.664A.131.131,0,0,1,613.846,184.944Z"
                                      data-name="Path 1101"
                                      fill="#382c4d"
                                      id="Path_1101" transform="translate(-608.929 -179.918)"/>
                            </g>
                        </g>
                    </g>
                    <g data-name="Group 622" id="Group_622" transform="translate(72.283 31.095)">
                        <path d="M516.865,269.8l-1.048-4.4-5.973,1.467Z" data-name="Path 1102" fill="#f7a190"
                              id="Path_1102" transform="translate(-482.049 -233.307)"/>
                        <g data-name="Group 617" id="Group_617">
                            <path d="M456.835,221.556l9.365-17.379,12.171,12.831Z" data-name="Path 1103" fill="#dddbdb"
                                  id="Path_1103" transform="translate(-456.826 -204.177)"/>
                            <path d="M457.919,226.784l18.354,21.4s10.207-3.764,20.3-7.556l-17.3-24.765Z"
                                  data-name="Path 1104"
                                  fill="#fff"
                                  id="Path_1104" transform="translate(-457.342 -209.739)"/>
                            <path d="M458.685,235.356l17.035,22.151-3.186.7-15.715-21.852Z" data-name="Path 1105"
                                  fill="#585a8a"
                                  id="Path_1105" transform="translate(-456.818 -219.013)"/>
                        </g>
                        <g data-name="Group 621" id="Group_621" transform="translate(17.616 21.24)">
                            <g data-name="Group 618" id="Group_618" transform="translate(0 6.832)">
                                <path d="M509.606,266.338a89.162,89.162,0,0,1-9.883-5.974,19.231,19.231,0,0,0-6.182-2.61c-.936-.134-1.518.361-1.326.926,0,0-1.062-.2-1.456.408-.4.629.575,2.013.575,2.013a.773.773,0,0,0-.887,1.006,3.589,3.589,0,0,0,.893,1.436s-.88.368-.275,1.483a18.474,18.474,0,0,0,5.043,4.685c2.315,1.291,5.214,2.058,10.857,3.806Z"
                                      data-name="Path 1106"
                                      fill="#f7a190"
                                      id="Path_1106" transform="translate(-490.425 -257.732)"/>
                                <path d="M499.613,263.47a.062.062,0,0,1-.037-.011l-5.834-3.923a.065.065,0,0,1-.018-.091.064.064,0,0,1,.091-.018l5.834,3.923a.065.065,0,0,1,.018.091A.064.064,0,0,1,499.613,263.47Z"
                                      data-name="Path 1107"
                                      fill="#ae4f55"
                                      id="Path_1107" transform="translate(-491.99 -258.533)"/>
                                <path d="M497.75,267.884a.065.065,0,0,1-.036-.011l-5.65-3.719a.065.065,0,0,1,.071-.11l5.651,3.719a.066.066,0,0,1-.036.121Z"
                                      data-name="Path 1108"
                                      fill="#ae4f55"
                                      id="Path_1108" transform="translate(-491.191 -260.731)"/>
                                <path d="M497.623,272.534a.061.061,0,0,1-.036-.011l-5.512-3.712a.065.065,0,0,1-.018-.091.066.066,0,0,1,.091-.018l5.513,3.712a.065.065,0,0,1-.037.119Z"
                                      data-name="Path 1109"
                                      fill="#ae4f55"
                                      id="Path_1109" transform="translate(-491.196 -262.947)"/>
                            </g>
                            <g data-name="Group 620" id="Group_620" transform="translate(12.495)">
                                <g data-name="Group 619" id="Group_619" transform="translate(0 14.23)">
                                    <path d="M550.433,273.9,547.4,284.01a225.385,225.385,0,0,0-28.559-12.165l-4.574,6.621s31.943,24.1,38.349,24.177c3.7.045,9.264-15.26,11.9-20.433Z"
                                          data-name="Path 1110"
                                          fill="#f7a190"
                                          id="Path_1110" transform="translate(-514.263 -271.845)"/>
                                    <path d="M591.041,296.926s-1.586,3.45-1.993,4.287c-.067.14-.893,1.781-1.233,2.423q-.176.326-.352.636c-.223.4-.447.793-.67,1.161l-9.324-14.571,1.384-4.617Z"
                                          data-name="Path 1111"
                                          fill="#ae4f55"
                                          id="Path_1111" transform="translate(-544.337 -278.697)"/>
                                </g>
                                <path d="M597.068,245.309c2.6,1.329,6.668,6.246,3.806,16.293a100.9,100.9,0,0,1-7.463,18.461c-3.256-2.479-11.713-9.252-16.238-12.781,0,0,5.983-12.738,8.148-16.683C587.733,246.206,593.326,243.393,597.068,245.309Z"
                                      data-name="Path 1112"
                                      fill="#585a8a"
                                      id="Path_1112" transform="translate(-544.197 -244.698)"/>
                            </g>
                        </g>
                    </g>
                    <path d="M523.839,361.927a39.644,39.644,0,0,1,23.893-9.641c14.881-.839,24.732,4.82,24.732,4.82L546.055,365.7Z"
                          data-name="Path 1113"
                          fill="#ff5d54"
                          id="Path_1113" transform="translate(-416.425 -243.514)"/>
                </g>
            </g>
            <path d="M605.308,166.189s.159,8.919,1.752,9.662,1.434-4.088,1.434-4.088Z" data-name="Path 1114"
                  fill="#382c4d"
                  id="Path_1114" transform="translate(-455.189 -155.007)"/>
        </g>
    </g>
</svg>
