<svg height="42.309" viewBox="0 0 40.535 42.309" width="40.535"
     xmlns="http://www.w3.org/2000/svg">
    <defs>
        <linearGradient gradientUnits="objectBoundingBox" id="linear-gradient" x2="1" y1="0.5" y2="0.5">
            <stop offset="0" stop-color="#e63946"/>
            <stop offset="1" stop-color="#ff6b7a"/>
        </linearGradient>
    </defs>
    <g id="accept" transform="translate(0 0)">
        <path d="M30.241,19.31l.211,0h.018q.592.011,1.174.075V4.992A5,5,0,0,0,26.652,0H4.993A5,5,0,0,0,0,4.992V33.705A5,5,0,0,0,4.992,38.7H19.453A12.7,12.7,0,0,1,30.241,19.31ZM17.9,8.151h7.4a1.24,1.24,0,1,1,0,2.479H17.9a1.24,1.24,0,1,1,0-2.479Zm0,4.958h7.4a1.24,1.24,0,0,1,0,2.479H17.9a1.24,1.24,0,0,1,0-2.479ZM13.741,30.547h-7.4a1.24,1.24,0,1,1,0-2.479h7.4a1.24,1.24,0,1,1,0,2.479Zm0-5.041h-7.4a1.24,1.24,0,0,1,0-2.479h7.4a1.24,1.24,0,1,1,0,2.479Zm0-4.958h-7.4a1.24,1.24,0,0,1,0-2.479h7.4a1.24,1.24,0,1,1,0,2.479Zm0-4.958h-7.4a1.24,1.24,0,0,1,0-2.479h7.4a1.24,1.24,0,1,1,0,2.479Zm0-4.958h-7.4a1.24,1.24,0,1,1,0-2.479h7.4a1.24,1.24,0,1,1,0,2.479Zm2.923,8.677a1.24,1.24,0,0,1,1.24-1.24h3.563a1.24,1.24,0,1,1,0,2.479H17.9A1.24,1.24,0,0,1,16.664,19.307Zm0,0"
              data-name="Path 1768"
              fill="url(#linear-gradient)"
              id="Path_1768"/>
        <path d="M259.021,265.758a10.228,10.228,0,0,0-7.155-3.077h-.018l-.168,0a10.3,10.3,0,1,0,7.34,3.079Zm-2.942,5.547-3.931,4.9a1.239,1.239,0,0,1-1.694.228l-2.932-2.124a1.239,1.239,0,0,1,1.454-2.007l1.976,1.432,3.193-3.98a1.239,1.239,0,0,1,1.933,1.551Zm0,0"
              data-name="Path 1769"
              fill="url(#linear-gradient)"
              id="Path_1769" transform="translate(-221.44 -240.973)"/>
    </g>
</svg>
