<svg height="40" viewBox="0 0 32.469 40" width="32.469"
     xmlns="http://www.w3.org/2000/svg">
    <defs>
        <linearGradient gradientUnits="objectBoundingBox" id="linear-gradient" x2="1" y1="0.5" y2="0.5">
            <stop offset="0" stop-color="#e63946"/>
            <stop offset="1" stop-color="#ff6b7a"/>
        </linearGradient>
    </defs>
    <g id="all_about_exam" transform="translate(-48.2)">
        <path d="M142.468,383.467h2.677v2.677h-2.677Z" data-name="Path 1706" fill="url(#linear-gradient)"
              id="Path_1706" transform="translate(-86.903 -353.509)"/>
        <path d="M337.232,18.142h7.389l-9.355-9.355v7.389A1.968,1.968,0,0,0,337.232,18.142Z" data-name="Path 1707"
              fill="url(#linear-gradient)"
              id="Path_1707" transform="translate(-264.639 -8.101)"/>
        <path d="M142.468,254.933h2.677v2.677h-2.677Z" data-name="Path 1708" fill="url(#linear-gradient)"
              id="Path_1708" transform="translate(-86.903 -235.016)"/>
        <path d="M72.593,12.385a4.315,4.315,0,0,1-4.31-4.31V0H52.51A4.315,4.315,0,0,0,48.2,4.31V35.69A4.315,4.315,0,0,0,52.51,40H76.359a4.315,4.315,0,0,0,4.31-4.31v-23.3Zm-3.138,5.187a1.172,1.172,0,1,1,0,2.344H64.434a1.172,1.172,0,1,1,0-2.344ZM54.393,6.276h6.276a1.172,1.172,0,1,1,0,2.344H54.393a1.172,1.172,0,1,1,0-2.344Zm0,5.021H64.434a1.172,1.172,0,1,1,0,2.344H54.393a1.172,1.172,0,1,1,0-2.344Zm6.193,22.51a1.172,1.172,0,0,1-1.172,1.172H54.393a1.172,1.172,0,0,1-1.172-1.172V28.786a1.172,1.172,0,0,1,1.172-1.172h5.021a1.172,1.172,0,0,1,1.172,1.172Zm0-10.042a1.172,1.172,0,0,1-1.172,1.172H54.393a1.172,1.172,0,0,1-1.172-1.172V18.745a1.172,1.172,0,0,1,1.172-1.172h5.021a1.172,1.172,0,0,1,1.172,1.172ZM74.476,34.979H64.434a1.172,1.172,0,0,1,0-2.344H74.476a1.172,1.172,0,0,1,0,2.344ZM63.263,28.786a1.172,1.172,0,0,1,1.172-1.172h5.021a1.172,1.172,0,0,1,0,2.344H64.434A1.172,1.172,0,0,1,63.263,28.786Zm11.214-3.849H64.434a1.172,1.172,0,0,1,0-2.344H74.476a1.172,1.172,0,0,1,0,2.344Z"
              data-name="Path 1709"
              fill="url(#linear-gradient)"
              id="Path_1709"/>
    </g>
</svg>
