<svg height="36" viewBox="0 0 26 36" width="26"
     xmlns="http://www.w3.org/2000/svg">
    <defs>
        <linearGradient gradientUnits="objectBoundingBox" id="linear-gradient" x2="1" y1="0.5" y2="0.5">
            <stop offset="0" stop-color="#e63946"/>
            <stop offset="1" stop-color="#ff6b7a"/>
        </linearGradient>
    </defs>
    <g id="study_plans" transform="translate(-8.663)">
        <path d="M34.663,2.762V35.076a.925.925,0,0,1-.619.827,1.307,1.307,0,0,1-1.169-.091l-2.687-1.7.022-.028V0h1.11A3.094,3.094,0,0,1,34.663,2.762Z"
              data-name="Path 218"
              fill="url(#linear-gradient)"
              id="Path_218"/>
        <path d="M30.223,0V34.082l-.033.028-8.526-5.386-8.526,5.386-.033-.028V0Z" data-name="Path 219"
              fill="url(#linear-gradient)"
              id="Path_219"/>
        <path d="M13.1,34.082l.022.028-2.676,1.7a1.307,1.307,0,0,1-1.169.091.925.925,0,0,1-.618-.827V2.762A2.542,2.542,0,0,1,9.637.808,3.7,3.7,0,0,1,11.994,0H13.1Z"
              data-name="Path 220"
              fill="url(#linear-gradient)"
              id="Path_220"/>
    </g>
</svg>
