<svg height="42" id="contact" viewBox="0 0 42 42" width="42"
     xmlns="http://www.w3.org/2000/svg">
    <defs>
        <linearGradient gradientUnits="objectBoundingBox" id="linear-gradient" x2="1" y1="0.5" y2="0.5">
            <stop offset="0" stop-color="#e63946"/>
            <stop offset="1" stop-color="#ff6b7a"/>
        </linearGradient>
    </defs>
    <path d="M35.849,6.151a21,21,0,0,0-29.7,29.7,21.031,21.031,0,0,0,21.225,5.165l-.746-2.345A18.542,18.542,0,1,1,39.539,21v6.877a4.667,4.667,0,0,1-4.662,4.662H33.422l2.92-2.92-7.965-7.965-3.08,3.08a27.708,27.708,0,0,1-3.881-3.25,27.654,27.654,0,0,1-3.3-3.96l3.068-3.068L13.215,6.491,9.133,10.573l-.034.035c-1.546,1.673-1.679,4.443-.373,7.8a28.35,28.35,0,0,0,6.4,9.3,28.2,28.2,0,0,0,9.393,6.44A11.6,11.6,0,0,0,28.6,35l.146,0v0h6.131A7.131,7.131,0,0,0,42,27.876V21A20.863,20.863,0,0,0,35.849,6.151Z"
          data-name="Path 240"
          fill="url(#linear-gradient)"
          id="Path_240"/>
</svg>
