<svg height="39.304" viewBox="0 0 42.101 39.304" width="42.101"
     xmlns="http://www.w3.org/2000/svg">
    <defs>
        <linearGradient gradientUnits="objectBoundingBox" id="linear-gradient" x2="1" y1="0.5" y2="0.5">
            <stop offset="0" stop-color="#e63946"/>
            <stop offset="1" stop-color="#ff6b7a"/>
        </linearGradient>
    </defs>
    <g id="coupon" transform="translate(0 -17.01)">
        <path d="M108.552,222.991a1.916,1.916,0,1,0,1.42,1.85A1.7,1.7,0,0,0,108.552,222.991Z" data-name="Path 1931"
              fill="url(#linear-gradient)"
              id="Path_1931" transform="translate(-98.324 -189.044)"/>
        <path d="M259.916,341.981a1.916,1.916,0,1,0,1.42,1.851A1.7,1.7,0,0,0,259.916,341.981Z" data-name="Path 1932"
              fill="url(#linear-gradient)"
              id="Path_1932" transform="translate(-237.241 -298.249)"/>
        <path d="M30.741,28.742C18.236,17.235,18.875,17.675,17.881,17.289a4.1,4.1,0,0,0-4.256.8L2.048,28.742A6.366,6.366,0,0,0,0,33.418V52.282a4.026,4.026,0,0,0,4.01,4.032H28.779a4.026,4.026,0,0,0,4.01-4.032V33.418A6.369,6.369,0,0,0,30.741,28.742ZM15.2,24.7a1.233,1.233,0,1,1,.986,1.331A1.232,1.232,0,0,1,15.2,24.7ZM6.343,35.8a4.123,4.123,0,0,1,3.886-4.317A4.123,4.123,0,0,1,14.116,35.8a4.124,4.124,0,0,1-3.887,4.318A4.124,4.124,0,0,1,6.343,35.8Zm7.071,13.129a1.235,1.235,0,0,1-1.136-1.711l6-14.311a1.234,1.234,0,0,1,2.275.955L14.552,48.17A1.234,1.234,0,0,1,13.414,48.926Zm9.262.974a4.341,4.341,0,0,1,0-8.635,4.341,4.341,0,0,1,0,8.635Z"
              data-name="Path 1933"
              fill="url(#linear-gradient)"
              id="Path_1933" transform="translate(0 0)"/>
        <path d="M302.016,59.562C298,47.871,295.769,41.371,295.737,41.3a6.3,6.3,0,0,0-3.721-3.449c-.1-.032.468.1-8.477-2.018l9.1,8.369a8.839,8.839,0,0,1,2.845,6.491V66.677l4.437-1.9A4.005,4.005,0,0,0,302.016,59.562Z"
              data-name="Path 1934"
              fill="url(#linear-gradient)"
              id="Path_1934" transform="translate(-260.224 -17.274)"/>
    </g>
</svg>
