<svg height="42.47" viewBox="0 0 33.086 42.47" width="33.086"
     xmlns="http://www.w3.org/2000/svg">
    <defs>
        <linearGradient gradientUnits="objectBoundingBox" id="linear-gradient" x2="1" y1="0.5" y2="0.5">
            <stop offset="0" stop-color="#e63946"/>
            <stop offset="1" stop-color="#ff6b7a"/>
        </linearGradient>
    </defs>
    <g id="doubt" transform="translate(-3.236 0.5)">
        <path d="M33.731,17.828c-.99-1.871.44-3.081.55-4.072A11.087,11.087,0,0,0,31.09,4.292,14.422,14.422,0,0,0,20.305,0C12.932,0,9.961,2.421,7.65,4.952c-4.732,5.282-3.742,9.9-3.742,9.9.11,2.751,3.852,7.7,3.852,7.7,2.971,4.292,1.541,7.7,1.541,7.7C15.353,31.584,20.415,40.5,20.415,40.5c.22-1.321,3.191-6.823,3.191-6.823,1.211-1.541,3.3-.99,4.4-.88,3.191.44,3.962-.55,3.962-.55.66-.44.33-2.2.33-2.2a1.812,1.812,0,0,1,.44-1.761c.66-.99.33-1.431.33-1.431-.22-.33-.11-.44-.11-.44.77-.22.77-.66.77-.66V24.321c-.11-.99.33-.99.33-.99,1.761,0,1.761-1.211,1.761-1.211A31.381,31.381,0,0,0,33.731,17.828ZM19.865,25.971a2.4,2.4,0,0,1-2.421-2.531,2.4,2.4,0,0,1,2.421-2.531,2.341,2.341,0,0,1,2.421,2.531A2.283,2.283,0,0,1,19.865,25.971Zm3.411-10.234a4.937,4.937,0,0,0-1.431,3.411v.44H18.214v-.66a5.5,5.5,0,0,1,1.651-4.292,4.647,4.647,0,0,0,1.541-2.861q0-1.486-1.981-1.651a6.084,6.084,0,0,0-2.751.77l-.88-2.971a9.817,9.817,0,0,1,4.622-1.1c3.632,0,5.282,1.981,5.282,4.292A7.523,7.523,0,0,1,23.276,15.737Z"
              data-name="Path 1269"
              fill="url(#linear-gradient)"
              id="Path_1269" stroke="rgba(0,0,0,0)" stroke-width="1" transform="translate(0)"/>
    </g>
</svg>
