<svg height="38.488" viewBox="0 0 37.334 38.488" width="37.334"
     xmlns="http://www.w3.org/2000/svg">
    <defs>
        <linearGradient gradientUnits="objectBoundingBox" id="linear-gradient" x2="1" y1="0.5" y2="0.5">
            <stop offset="0" stop-color="#e63946"/>
            <stop offset="1" stop-color="#ff6b7a"/>
        </linearGradient>
    </defs>
    <g id="faq" transform="translate(-32)">
        <g data-name="Group 738" id="Group_738" transform="translate(32)">
            <path d="M65.186,0H36.148A3.928,3.928,0,0,0,32,3.666V29.324a3.928,3.928,0,0,0,4.148,3.665h8.3l6.222,5.5,6.222-5.5h8.3a3.928,3.928,0,0,0,4.148-3.666V3.666A3.928,3.928,0,0,0,65.186,0ZM52.741,29.324H48.593V25.658h4.148Zm4.283-14.195-1.856,1.686a5.894,5.894,0,0,0-2.427,5.178H48.593v-.916A6.942,6.942,0,0,1,51.02,15.89L53.6,13.581A3.452,3.452,0,0,0,54.815,11a4.18,4.18,0,0,0-8.3,0H42.37c0-4.05,3.713-7.331,8.3-7.331s8.3,3.281,8.3,7.331A5.5,5.5,0,0,1,57.024,15.129Z"
                  data-name="Path 1332"
                  fill="url(#linear-gradient)"
                  id="Path_1332" transform="translate(-32)"/>
        </g>
    </g>
</svg>
