<svg height="40" viewBox="0 0 40 40" width="40"
     xmlns="http://www.w3.org/2000/svg">
    <defs>
        <linearGradient gradientUnits="objectBoundingBox" id="linear-gradient" x2="1" y1="0.5" y2="0.5">
            <stop offset="0" stop-color="#e63946"/>
            <stop offset="1" stop-color="#ff6b7a"/>
        </linearGradient>
    </defs>
    <g id="refer_earn" transform="translate(0 0)">
        <path d="M25,21.667a1.666,1.666,0,0,0-1.667,1.667V30a1.668,1.668,0,0,1-1.667,1.667h-5v-25A3.359,3.359,0,0,0,14.4,3.5L13.9,3.334h7.763A1.668,1.668,0,0,1,23.333,5v5a1.667,1.667,0,1,0,3.333,0V5a5.006,5.006,0,0,0-5-5H3.75a1.314,1.314,0,0,0-.178.037C3.491.03,3.415,0,3.333,0A3.337,3.337,0,0,0,0,3.334v30A3.359,3.359,0,0,0,2.27,36.5L12.3,39.846A3.449,3.449,0,0,0,13.333,40a3.337,3.337,0,0,0,3.333-3.333V35h5a5.006,5.006,0,0,0,5-5V23.334A1.666,1.666,0,0,0,25,21.667Z"
              data-name="Path 221"
              fill="url(#linear-gradient)"
              id="Path_221"/>
        <path d="M39.511,15.489,32.845,8.822A1.666,1.666,0,0,0,30,10v5H23.333a1.667,1.667,0,1,0,0,3.333H30v5a1.666,1.666,0,0,0,2.845,1.179l6.667-6.667A1.665,1.665,0,0,0,39.511,15.489Z"
              data-name="Path 222"
              fill="url(#linear-gradient)"
              id="Path_222"/>
    </g>
</svg>
