<svg height="36" viewBox="0 0 38 36" width="38"
     xmlns="http://www.w3.org/2000/svg">
    <defs>
        <linearGradient gradientUnits="objectBoundingBox" id="linear-gradient" x2="1" y1="0.5" y2="0.5">
            <stop offset="0" stop-color="#e63946"/>
            <stop offset="1" stop-color="#ff6b7a"/>
        </linearGradient>
    </defs>
    <g id="my_package" transform="translate(0 -1.5)">
        <g data-name="Group 222" id="Group_222">
            <g data-name="Group 221" id="Group_221">
                <path d="M37.566,10.945l-8.769-9A1.389,1.389,0,0,0,27.769,1.5a1.556,1.556,0,0,0-.57.117A1.4,1.4,0,0,0,26.308,3V7.5H22.654a36.369,36.369,0,0,0-4.487.258,23.654,23.654,0,0,0-3.642.715A14.6,14.6,0,0,0,11.681,9.61a12.135,12.135,0,0,0-2.158,1.441,9.052,9.052,0,0,0-1.564,1.735A10.837,10.837,0,0,0,6.885,14.7a11.248,11.248,0,0,0-.639,2.063,16.561,16.561,0,0,0-.32,2.109q-.08.984-.08,2.133a11.5,11.5,0,0,0,.4,2.86,19,19,0,0,0,.879,2.672q.479,1.124,1.131,2.332t.9,1.605q.251.4.48.727a.709.709,0,0,0,.594.3,1.209,1.209,0,0,0,.274-.047.725.725,0,0,0,.457-.8q-1.028-7.875,1.69-11.086,2.627-3.07,10-3.07h3.654V21a1.4,1.4,0,0,0,.891,1.383,1.551,1.551,0,0,0,.57.117,1.342,1.342,0,0,0,1.028-.445l8.769-9a1.5,1.5,0,0,0,0-2.109Z"
                      data-name="Path 232"
                      fill="url(#linear-gradient)"
                      id="Path_232"/>
                <path d="M31.674,24a.667.667,0,0,0-.8.187,4.81,4.81,0,0,1-1.233.867.741.741,0,0,0-.411.679V30.75A3.658,3.658,0,0,1,28.157,33.4a3.474,3.474,0,0,1-2.581,1.1h-19A3.474,3.474,0,0,1,4,33.4,3.659,3.659,0,0,1,2.923,30.75V11.25A3.658,3.658,0,0,1,4,8.6,3.473,3.473,0,0,1,6.577,7.5H9.134A1.033,1.033,0,0,0,9.5,7.406,15.061,15.061,0,0,1,12.537,6a.68.68,0,0,0,.594-.75.73.73,0,0,0-.217-.527A.694.694,0,0,0,12.4,4.5H6.577A6.255,6.255,0,0,0,1.93,6.481,6.588,6.588,0,0,0,0,11.25v19.5a6.589,6.589,0,0,0,1.93,4.77A6.255,6.255,0,0,0,6.577,37.5h19a6.255,6.255,0,0,0,4.647-1.981,6.588,6.588,0,0,0,1.93-4.77V24.68A.707.707,0,0,0,31.674,24Z"
                      data-name="Path 233"
                      fill="url(#linear-gradient)"
                      id="Path_233"/>
            </g>
        </g>
    </g>
</svg>
