<svg xmlns="http://www.w3.org/2000/svg" width="38.836" height="38.836" viewBox="0 0 38.836 38.836">
  <g id="planet" transform="translate(0 0)">
    <path id="Path_24926" data-name="Path 24926" d="M4.469,328.206l-.977-2.323H3.1c-2.475,4.4-3.572,8.312-2.915,10.91l2.647-2.612c-.277-1.305.241-3.258,1.41-5.594Z" transform="translate(0 -301.163)" fill="#d03f44"/>
    <path id="Path_24927" data-name="Path 24927" d="M9.308,335.729l1.57-1.549c-.277-1.305.241-3.258,1.41-5.594l.225-.381-.977-2.323h-.39a32.528,32.528,0,0,0-1.8,3.682C8.527,332.141,8.466,334.3,9.308,335.729Z" transform="translate(-8.044 -301.163)" fill="#f44e54"/>
    <path id="Path_24928" data-name="Path 24928" d="M325.883,3.1V3.47l2.255.964.449-.19c2.529-1.265,4.61-1.768,5.9-1.324L337.153.293C334.565-.571,330.49.51,325.883,3.1Z" transform="translate(-301.164 0)" fill="#d03f44"/>
    <path id="Path_24929" data-name="Path 24929" d="M328.586,12.337c2.529-1.265,4.61-1.768,5.9-1.324l1.5-1.479c-1.428-1.021-3.7-1.006-6.455-.121a32.6,32.6,0,0,0-3.652,1.783v.367l2.255.964Z" transform="translate(-301.163 -8.093)" fill="#f44e54"/>
    <path id="Path_24930" data-name="Path 24930" d="M61.1,41.085l-8.014-5.819-.321-1.3q-.378-.143-.762-.268h0a17.914,17.914,0,0,0-2.345-.59h0l-2.916.857-15.808,11.5-1.365,3.243h0a16.934,16.934,0,0,0,.241,4.345h0l.847.291,5.782,8.882-.265,1.336c.236.184.475.362.719.532l2.359.127,5.375-3.893,8.29-7.431,8.318-11.43Z" transform="translate(-27.287 -30.598)" fill="#d03f44"/>
    <path id="Path_24931" data-name="Path 24931" d="M29.815,163.911l.847.291,5.782,8.882-.265,1.336c.236.184.475.362.719.532l2.359.127,3.785-2.741a18.688,18.688,0,0,1-7.628-19.269l-4.476,3.255-1.365,3.243h0a16.934,16.934,0,0,0,.241,4.345Z" transform="translate(-27.287 -141.458)" fill="#d03f44"/>
    <path id="Path_24932" data-name="Path 24932" d="M275.24,201.266l5.484-5.965.733-1.336h0a17.083,17.083,0,0,0-.672-7.879l-.888.132-7.56,9.819-7.173,6.3Z" transform="translate(-245.051 -171.97)" fill="#d03f44"/>
    <path id="Path_24933" data-name="Path 24933" d="M48.059,33.466a8.652,8.652,0,0,0,2.179-3.658A17.23,17.23,0,0,0,30.149,45.4l2.5-2.5a8.612,8.612,0,0,1,5.5-2.51,8.612,8.612,0,0,0,5.5-2.51Z" transform="translate(-27.862 -27.295)" fill="#f44e54"/>
    <path id="Path_24934" data-name="Path 24934" d="M35.67,64.262a18.572,18.572,0,0,1,3.773-9.491,17.322,17.322,0,0,0-9.294,13.954l2.5-2.5A8.661,8.661,0,0,1,35.67,64.262Z" transform="translate(-27.862 -50.616)" fill="#f44e54"/>
    <path id="Path_24935" data-name="Path 24935" d="M64.291,50.665a17.21,17.21,0,0,0-1.112-1.423l-.682-.173-2.8-2.592-.131-.388q-.651-.424-1.346-.792h0a17.017,17.017,0,0,0-1.942-.874l-.076.458a9.339,9.339,0,0,1-2.608,5.068L48.743,54.8a9.339,9.339,0,0,1-6.076,2.72,9.339,9.339,0,0,0-6.076,2.72l-3.267,3.267a17.909,17.909,0,0,0,.573,2.268v0q.24.74.549,1.461h.358l2.374,3.636.01.761a17.339,17.339,0,0,0,2.5,2.385L45.705,68a6.932,6.932,0,0,0,1.8-3.116l.491-1.841a6.933,6.933,0,0,1,1.8-3.116L53.315,56.4a6.932,6.932,0,0,1,3.04-1.776l6.854-1.911.637-.188.652-1.3Z" transform="translate(-30.796 -41.054)" fill="#f44e54"/>
    <path id="Path_24936" data-name="Path 24936" d="M33.9,239.667q.24.74.549,1.461h.358l2.374,3.636.01.761a17.339,17.339,0,0,0,2.5,2.385l4.261-4.261a18.61,18.61,0,0,1-5.319-11.059,9.337,9.337,0,0,0-2.038,1.543L33.324,237.4a17.91,17.91,0,0,0,.573,2.268Z" transform="translate(-30.796 -214.949)" fill="#f44e54"/>
    <path id="Path_24937" data-name="Path 24937" d="M56.185,269.65a6.135,6.135,0,0,0,1.569-2.681,1.993,1.993,0,0,0-2.457-2.457,6.135,6.135,0,0,0-2.681,1.569l-4.477,4.477q.27.63.592,1.243h0a17.126,17.126,0,0,0,2.15,3.154Z" transform="translate(-44.488 -244.377)" fill="#f44e54"/>
    <path id="Path_24938" data-name="Path 24938" d="M48.73,286.546a17.127,17.127,0,0,0,2.15,3.154l4.55-4.55a18.6,18.6,0,0,1-2.33-4.76,6.136,6.136,0,0,0-.485.435L48.139,285.3q.27.63.592,1.243Z" transform="translate(-44.488 -259.122)" fill="#f44e54"/>
    <path id="Path_24939" data-name="Path 24939" d="M369.854,66.374l-.7,2.121a1.328,1.328,0,0,0,1.579,1.708l2.739-.676A17.282,17.282,0,0,0,369.854,66.374Z" transform="translate(-341.084 -61.339)" fill="#f44e54"/>
    <path id="Path_24940" data-name="Path 24940" d="M203.063,295.277a6.807,6.807,0,0,1-4.567,1.989l-3.639.132-1.4.245-7.376,5.47v.591a17.2,17.2,0,0,0,22.291-13.74Z" transform="translate(-171.97 -267.97)" fill="#f44e54"/>
    <path id="Path_24941" data-name="Path 24941" d="M198.354,426.92a18.588,18.588,0,0,1-8.344-1.965l-3.923,2.909v.591a16.869,16.869,0,0,0,14.169-1.632A18.858,18.858,0,0,1,198.354,426.92Z" transform="translate(-171.972 -392.721)" fill="#d03f44"/>
    <path id="Path_24942" data-name="Path 24942" d="M36.507,2.068,33.829,4.711a2.224,2.224,0,0,1,1.288.6c2.458,2.458-2.424,11.327-10.906,19.809S6.861,38.481,4.4,36.022a2.4,2.4,0,0,1-.631-1.644L1.088,37.026A4.345,4.345,0,0,0,2.26,39.492c3.784,3.784,14.984-1.28,25.016-11.311S42.371,6.95,38.587,3.165a4.187,4.187,0,0,0-2.08-1.1Z" transform="translate(-1.006 -1.911)" fill="#d03f44"/>
    <path id="Path_24943" data-name="Path 24943" d="M48.117,16.441a3.457,3.457,0,0,0-.811-.6l-1.619,1.6a2.224,2.224,0,0,1,1.288.6c2.458,2.458-2.424,11.327-10.906,19.809S18.717,51.21,16.259,48.751a2.4,2.4,0,0,1-.631-1.644l-1.71,1.688a3.532,3.532,0,0,0,.741,1.1c3.457,3.457,13.749-1.23,22.988-10.469S51.574,19.9,48.117,16.441Z" transform="translate(-12.862 -14.64)" fill="#f44e54"/>
  </g>
</svg>
