<svg height="40.321" id="recycle" viewBox="0 0 40.338 40.321"
     width="40.338" xmlns="http://www.w3.org/2000/svg">
    <defs>
        <linearGradient gradientUnits="objectBoundingBox" id="linear-gradient" x2="1" y1="0.5" y2="0.5">
            <stop offset="0" stop-color="#e63946"/>
            <stop offset="1" stop-color="#ff6b7a"/>
        </linearGradient>
    </defs>
    <path d="M27.044,2.128a1.677,1.677,0,0,0-1.831.365l-6.72,6.72a1.68,1.68,0,0,0,1.188,2.868H26.4a1.68,1.68,0,0,0,1.68-1.68V3.68A1.68,1.68,0,0,0,27.044,2.128Z"
          data-name="Path 1773"
          fill="url(#linear-gradient)"
          id="Path_1773" transform="translate(12.241 1.36)"/>
    <path d="M8.4,16H1.68A1.68,1.68,0,0,0,0,17.68V24.4a1.68,1.68,0,0,0,2.868,1.188l6.72-6.72A1.68,1.68,0,0,0,8.4,16Z"
          data-name="Path 1774"
          fill="url(#linear-gradient)"
          id="Path_1774" transform="translate(0 10.881)"/>
    <path d="M1.681,19.421a1.6,1.6,0,0,1-.218-.013A1.678,1.678,0,0,1,.015,17.525,20.29,20.29,0,0,1,20.177,0,22.005,22.005,0,0,1,36.511,7.325a1.679,1.679,0,1,1-2.523,2.216A18.6,18.6,0,0,0,20.177,3.36a16.927,16.927,0,0,0-16.832,14.6,1.679,1.679,0,0,1-1.663,1.463Z"
          data-name="Path 1775"
          fill="url(#linear-gradient)"
          id="Path_1775" transform="translate(0)"/>
    <path d="M18.787,31.863A22.078,22.078,0,0,1,2.44,24.541a1.681,1.681,0,1,1,2.52-2.224A18.669,18.669,0,0,0,18.787,28.5,16.928,16.928,0,0,0,35.619,13.9a1.679,1.679,0,1,1,3.33.433A20.291,20.291,0,0,1,18.787,31.863Z"
          data-name="Path 1776"
          fill="url(#linear-gradient)"
          id="Path_1776" transform="translate(1.374 8.459)"/>
    <path d="M23.646,14.736a1.259,1.259,0,0,0-1.105-.655H17.309l1.435-8.612a1.26,1.26,0,0,0-2.26-.951l-9.24,12.6a1.258,1.258,0,0,0,1.016,2h5.284L12.176,29.454a1.256,1.256,0,0,0,.817,1.349,1.23,1.23,0,0,0,.43.077,1.258,1.258,0,0,0,1.062-.581L23.6,16.019a1.264,1.264,0,0,0,.044-1.284Z"
          data-name="Path 1777"
          fill="url(#linear-gradient)"
          id="Path_1777" transform="translate(4.76 2.72)"/>
</svg>
