<svg height="43.401" viewBox="0 0 48.522 43.401" width="48.522"
     xmlns="http://www.w3.org/2000/svg">
    <defs>
        <linearGradient gradientUnits="objectBoundingBox" id="linear-gradient" x2="1" y1="0.5" y2="0.5">
            <stop offset="0" stop-color="#e63946"/>
            <stop offset="1" stop-color="#ff6b7a"/>
        </linearGradient>
    </defs>
    <g id="money" transform="translate(0 -27.02)">
        <path d="M1.421,314.078H4.264a1.421,1.421,0,0,0,1.421-1.421V297.021H1.421A1.421,1.421,0,0,0,0,298.442v14.214A1.422,1.422,0,0,0,1.421,314.078Z"
              data-name="Path 1770"
              fill="url(#linear-gradient)"
              id="Path_1770" transform="translate(0 -244.415)"/>
        <path d="M283.371,27.02a11.371,11.371,0,1,0,11.371,11.371A11.371,11.371,0,0,0,283.371,27.02Zm2.382,16.487a5.349,5.349,0,0,1-.961.367v.393a1.421,1.421,0,1,1-2.843,0v-.348a4.519,4.519,0,0,1-1.611-.75,1.421,1.421,0,1,1,1.706-2.274,2.565,2.565,0,0,0,2.438.07c.312-.156.48-.344.48-.441,0-.17,0-.2-.189-.3a6.749,6.749,0,0,0-1.661-.437,8.529,8.529,0,0,1-2.481-.724,3.025,3.025,0,0,1-1.693-2.805,3.355,3.355,0,0,1,2.049-2.984,5.349,5.349,0,0,1,.963-.368v-.391a1.421,1.421,0,1,1,2.843,0v.348a4.52,4.52,0,0,1,1.611.75,1.421,1.421,0,1,1-1.706,2.274,2.568,2.568,0,0,0-2.44-.071c-.313.157-.477.341-.477.441,0,.17,0,.2.189.3a6.75,6.75,0,0,0,1.661.437,8.531,8.531,0,0,1,2.481.724,3.025,3.025,0,0,1,1.693,2.805,3.357,3.357,0,0,1-2.051,2.983Z"
              data-name="Path 1771"
              fill="url(#linear-gradient)"
              id="Path_1771" transform="translate(-246.225)"/>
        <path d="M107.133,286.973h.313a26.365,26.365,0,0,0,13.39-3.857l7.931-5.543a2.839,2.839,0,1,0-3.241-4.662l-7.619,5.345a9.932,9.932,0,0,1-8.131.824l-8.765-2.9a1.413,1.413,0,0,1,.824-2.7c.028,0,9.846,3.184,9.846,3.184a2.841,2.841,0,1,0,1.763-5.4l-13.371-4.378A12.614,12.614,0,0,0,90,267.832v15.913l11.153,2.527A27.949,27.949,0,0,0,107.133,286.973Z"
              data-name="Path 1772"
              fill="url(#linear-gradient)"
              id="Path_1772" transform="translate(-81.471 -216.552)"/>
    </g>
</svg>
