<svg height="35.62" viewBox="0 0 35.619 35.62" width="35.619" xmlns="http://www.w3.org/2000/svg">
    <g id="blog_active" transform="translate(-309.607 -522.154)">
        <path d="M311.719,552.637s11.169-14.114,32.492-9.043c0,0,1.523,9.128-6.6,12.677-3.554,1.521-18.784,1.521-21.323-.507C314.765,555.765,311.719,552.637,311.719,552.637Z"
              data-name="Path 68"
              fill="#ffcaca"
              id="Path_68"/>
        <g data-name="Group 22" id="Group_22">
            <path d="M334.018,557.773h-13.7c-5.7,0-10.706-5.185-10.706-11.1v-12.93a11.477,11.477,0,0,1,11.608-11.593h7.219c5.085,0,10.668,5.626,10.668,10.75v.954c0,.73.628,1.221,1.564,1.221h1.5c3.062,0,3.062,2.5,3.062,3.317v8.181a11.352,11.352,0,0,1-11.209,11.2Zm-12.8-34.082a9.955,9.955,0,0,0-10.068,10.056v12.931c0,5,4.369,9.558,9.166,9.558h13.7a9.793,9.793,0,0,0,9.669-9.658V538.4c0-1.38-.341-1.779-1.523-1.779h-1.5a2.843,2.843,0,0,1-3.1-2.759V532.9c0-4.3-4.863-9.213-9.128-9.213Zm12.307,25.252H321.215a2.752,2.752,0,1,1,0-5.5h12.307a2.752,2.752,0,1,1,0,5.5Zm-12.307-3.966A1.231,1.231,0,0,0,320,546.19a1.217,1.217,0,0,0,1.216,1.215h12.307a1.232,1.232,0,0,0,1.215-1.215,1.216,1.216,0,0,0-1.215-1.214Zm6.194-8.36h-6.194a2.752,2.752,0,1,1,0-5.5h6.194a2.752,2.752,0,1,1,0,5.5Zm-6.194-3.966A1.231,1.231,0,0,0,320,533.863a1.217,1.217,0,0,0,1.216,1.215h6.194a1.232,1.232,0,0,0,1.215-1.215,1.215,1.215,0,0,0-1.215-1.213Zm0,0"
                  data-name="Path 69"
                  fill="#e63946"
                  id="Path_69"/>
        </g>
    </g>
</svg>
