<svg height="35" viewBox="0 0 36 35" width="36" xmlns="http://www.w3.org/2000/svg">
    <g id="news" transform="translate(-341.14 -741.604)">
        <path d="M341.8,768.679s3.982-17.17,29.2-11.887c-.664,1.321,0,4.623,0,4.623v13.868H343.463Z" data-name="Path 70"
              fill="#c4c6ce" id="Path_70"/>
        <path d="M376.215,744.473a.934.934,0,0,0-.933.928v24.635a4.734,4.734,0,0,1-4.742,4.718H347.747a4.734,4.734,0,0,1-4.742-4.718V743.46h27.308v23.9a.933.933,0,0,0,1.866,0V742.532a.933.933,0,0,0-.933-.928H342.073a.933.933,0,0,0-.933.928v27.5a6.6,6.6,0,0,0,6.608,6.575h22.785a6.6,6.6,0,0,0,6.608-6.575V745.4a.923.923,0,0,0-.925-.928Zm0,0"
              data-name="Path 71"
              fill="#666971"
              id="Path_71"/>
        <path d="M366.738,748.813a.928.928,0,1,0,0-1.856H346.4a.928.928,0,1,0,0,1.856Zm0,0" data-name="Path 72"
              fill="#666971" id="Path_72"/>
        <path d="M366.738,765.875H346.4a.928.928,0,1,0,0,1.856h20.328a.928.928,0,1,0,.008-1.856Zm0,0"
              data-name="Path 73"
              fill="#666971" id="Path_73"/>
        <path d="M366.738,770.632h-17.11a.929.929,0,1,0,0,1.857h17.11a.929.929,0,1,0,0-1.857Zm0,0" data-name="Path 74"
              fill="#666971" id="Path_74"/>
        <path d="M345.158,752.054v10.04a.933.933,0,0,0,.933.928h10.129a.933.933,0,0,0,.932-.928v-10.04a.933.933,0,0,0-.932-.928H346.092a.934.934,0,0,0-.933.928Zm1.866.928h8.264v8.183h-8.264Zm0,0"
              data-name="Path 75"
              fill="#666971"
              id="Path_75"/>
        <path d="M367.236,752.054h-6.709a.928.928,0,1,0,0,1.856h6.709a.928.928,0,1,0,0-1.856Zm0,0" data-name="Path 76"
              fill="#666971" id="Path_76"/>
        <path d="M367.236,756.246h-6.709a.928.928,0,1,0,0,1.856h6.709a.928.928,0,1,0,0-1.856Zm0,0" data-name="Path 77"
              fill="#666971" id="Path_77"/>
        <path d="M368.169,761.629a.933.933,0,0,0-.933-.928h-6.709a.928.928,0,1,0,0,1.856h6.709a.928.928,0,0,0,.933-.928Zm0,0"
              data-name="Path 78"
              fill="#666971"
              id="Path_78"/>
    </g>
</svg>
