<svg height="34.997" viewBox="0 0 34.003 34.997" width="34.003" xmlns="http://www.w3.org/2000/svg">
    <g id="videos" transform="translate(-271.774 -653.791)">
        <g data-name="Group 24" id="Group_24">
            <path d="M273.447,676.211s9.737-16.406,31.645-9.3v9.3Z" data-name="Path 79" fill="#c4c6ce" id="Path_79"/>
            <g data-name="Group 23" id="Group_23">
                <path d="M285.38,670.273a.647.647,0,0,0,.3.077.624.624,0,0,0,.332-.1l6.814-4.386a.625.625,0,0,0,.287-.529.619.619,0,0,0-.287-.525l-6.814-4.386a.615.615,0,0,0-.632-.021.63.63,0,0,0-.321.55v8.769a.631.631,0,0,0,.321.551Zm.916-8.179,5.044,3.241-5.044,3.246Zm0,0"
                      data-name="Path 80"
                      fill="#666971"
                      id="Path_80" stroke="#666971" stroke-miterlimit="10" stroke-width="0.544"/>
                <path d="M272.046,654.063v34.453h33.459V654.063Zm32.222,1.255v20.67H273.287v-20.67Zm-30.981,31.944V677.242h30.981v10.019Zm0,0"
                      data-name="Path 81"
                      fill="#666971"
                      id="Path_81" stroke="#666971" stroke-miterlimit="10" stroke-width="0.544"/>
                <path d="M301.17,681.624H286.3v-1.251a.619.619,0,1,0-1.237,0v1.251h-2.478a.627.627,0,0,0,0,1.254h2.478v1.251a.619.619,0,1,0,1.237,0v-1.251H301.17a.627.627,0,0,0,0-1.254Zm0,0"
                      data-name="Path 82"
                      fill="#666971"
                      id="Path_82" stroke="#666971" stroke-miterlimit="10" stroke-width="0.544"/>
                <path d="M276.385,679.746a.62.62,0,0,0-.62.627v3.755a.619.619,0,1,0,1.237,0v-3.755a.619.619,0,0,0-.617-.627Zm0,0"
                      data-name="Path 83"
                      fill="#666971"
                      id="Path_83" stroke="#666971" stroke-miterlimit="10" stroke-width="0.544"/>
                <path d="M278.863,679.746a.622.622,0,0,0-.62.627v3.755a.621.621,0,1,0,1.241,0v-3.755a.623.623,0,0,0-.62-.627Zm0,0"
                      data-name="Path 84"
                      fill="#666971"
                      id="Path_84" stroke="#666971" stroke-miterlimit="10" stroke-width="0.544"/>
            </g>
        </g>
    </g>
</svg>
