<svg height="45.419" viewBox="0 0 45.419 45.419" width="45.419" xmlns="http://www.w3.org/2000/svg">
    <path d="M22.62,35.572A1.774,1.774,0,1,1,24.394,33.8,1.774,1.774,0,0,1,22.62,35.572Zm1.774-7.984V25.206a7.4,7.4,0,1,0-6.978-12.473,7.265,7.265,0,0,0-2.248,5.275,1.774,1.774,0,0,0,3.548,0,3.745,3.745,0,0,1,1.161-2.719,3.925,3.925,0,0,1,2.9-1.093,3.831,3.831,0,0,1,.7,7.581,3.317,3.317,0,0,0-2.63,3.255v2.557a1.774,1.774,0,0,0,3.548,0ZM34.46,42.146a1.774,1.774,0,1,0-1.838-3.035,19.33,19.33,0,1,1,6-5.767,1.774,1.774,0,1,0,2.95,1.972A22.7,22.7,0,0,0,6.651,6.651a22.712,22.712,0,0,0,27.809,35.5Zm0,0"
          fill="#f33644"
          id="mcq" transform="translate(0.001 0)"/>
</svg>
