<svg height="52" viewBox="0 0 45.067 52" width="45.067" xmlns="http://www.w3.org/2000/svg">
    <g id="notes_active" transform="translate(-6 -2)">
        <g id="notes" transform="translate(10.333 2.867)">
            <path d="M47.4,40V56.467A1.739,1.739,0,0,1,45.667,58.2H12.733A1.739,1.739,0,0,1,11,56.467V54.733H42.2A1.739,1.739,0,0,0,43.933,53V40Z"
                  data-name="Path 1127"
                  fill="#eef8fa"
                  id="Path_1127" transform="translate(-11 -7.933)"/>
            <path d="M52.467,8.733V14.8H49V7h1.733A1.739,1.739,0,0,1,52.467,8.733Z" data-name="Path 1128" fill="#eef8fa"
                  id="Path_1128" transform="translate(-16.067 -3.533)"/>
            <path d="M49.667,16H16.733A1.739,1.739,0,0,0,15,17.733V35.067A1.739,1.739,0,0,0,16.733,36.8H49.667A1.739,1.739,0,0,0,51.4,35.067V17.733A1.739,1.739,0,0,0,49.667,16Z"
                  data-name="Path 1129"
                  fill="#facece"
                  id="Path_1129" transform="translate(-11.533 -4.733)"/>
            <path d="M16.467,3V9.067l-1.733-2.6L13,9.067V3Z" data-name="Path 1130" fill="#facece"
                  id="Path_1130" transform="translate(-11.267 -3)"/>
        </g>
        <path d="M42,22.867V32.4h1.733V27.2H47.2V25.467H43.733V23.733h4.333V22h-5.2A.867.867,0,0,0,42,22.867Z"
              data-name="Path 1131"
              fill="#f54a50"
              id="Path_1131" transform="translate(-4.8 -2.667)"/>
        <path d="M26.333,22H22.867a.867.867,0,0,0-.867.867V32.4h1.733V28.067h2.6a2.6,2.6,0,0,0,2.6-2.6V24.6a2.6,2.6,0,0,0-2.6-2.6Zm.867,3.467a.867.867,0,0,1-.867.867h-2.6v-2.6h2.6a.867.867,0,0,1,.867.867Z"
              data-name="Path 1132"
              fill="#f54a50"
              id="Path_1132" transform="translate(-2.133 -2.667)"/>
        <path d="M36.333,22H32.867a.867.867,0,0,0-.867.867v8.667a.867.867,0,0,0,.867.867h3.467a2.6,2.6,0,0,0,2.6-2.6V24.6a2.6,2.6,0,0,0-2.6-2.6Zm.867,7.8a.867.867,0,0,1-.867.867h-2.6V23.733h2.6a.867.867,0,0,1,.867.867Z"
              data-name="Path 1133"
              fill="#f54a50"
              id="Path_1133" transform="translate(-3.467 -2.667)"/>
        <path d="M48.467,13.267H47.6v-5.2a2.6,2.6,0,0,0-2.6-2.6h-.867V4.6a2.6,2.6,0,0,0-2.6-2.6H8.6A2.6,2.6,0,0,0,6,4.6V47.933a2.6,2.6,0,0,0,2.6,2.6h.867V51.4a2.6,2.6,0,0,0,2.6,2.6H45a2.6,2.6,0,0,0,2.6-2.6V35.8h.867a2.6,2.6,0,0,0,2.6-2.6V15.867A2.6,2.6,0,0,0,48.467,13.267ZM45,7.2a.867.867,0,0,1,.867.867v5.2H44.133V7.2ZM12.933,3.733h1.733v2.34l-.146-.218a.9.9,0,0,0-1.442,0l-.146.218Zm-5.2,44.2V4.6A.867.867,0,0,1,8.6,3.733h2.6v5.2a.867.867,0,0,0,1.588.481L13.8,7.893l1.012,1.518A.867.867,0,0,0,16.4,8.933v-5.2H41.533A.867.867,0,0,1,42.4,4.6v8.667H15.533a2.6,2.6,0,0,0-2.6,2.6V33.2a2.6,2.6,0,0,0,2.6,2.6H42.4V47.933a.867.867,0,0,1-.867.867H8.6A.867.867,0,0,1,7.733,47.933ZM45.867,51.4a.867.867,0,0,1-.867.867H12.067A.867.867,0,0,1,11.2,51.4v-.867H41.533s2.6-1.164,2.6-2.6V35.8h1.733Zm3.467-18.2a.867.867,0,0,1-.867.867H15.533a.867.867,0,0,1-.867-.867V15.867A.867.867,0,0,1,15.533,15H48.467a.867.867,0,0,1,.867.867Z"
              data-name="Path 1134"
              fill="#1d3557"
              id="Path_1134"/>
    </g>
</svg>
