<svg height="34.813" viewBox="0 0 43.521 34.813" width="43.521" xmlns="http://www.w3.org/2000/svg">
    <g id="videos" transform="translate(0 0)">
        <g id="Layer_4" transform="translate(9.428 0.725)">
            <ellipse cx="15.593" cy="16.645" fill="#f8f8f8" id="Oval" rx="15.593" ry="16.645"
                     transform="translate(0 0.036)"/>
            <path d="M29.491,17.812a.672.672,0,0,1-.312.493L15,27.516V9.718a.719.719,0,0,1,1.11-.6Z" fill="#ececec"
                  id="Shape" transform="translate(-4.121 -2.473)"/>
        </g>
        <path d="M18.744,34.324a16.681,16.681,0,0,1,0-33.29,16.681,16.681,0,1,0,0,33.29Z" data-name="Shape" fill="#fff"
              id="Shape-2" transform="translate(8.439 -0.274)"/>
        <path d="M25.487,43.218l-.554,1.341a17.449,17.449,0,0,1-5.087-3.226l.978-1.072A15.98,15.98,0,0,0,25.487,43.218Z"
              data-name="Shape"
              fill="#fff"
              id="Shape-3" transform="translate(-5.452 -11.061)"/>
        <g data-name="Group 638" id="Group_638" transform="translate(0 0)">
            <path d="M23.433,43.878a.725.725,0,1,1,.725-.725A.725.725,0,0,1,23.433,43.878Z" data-name="Shape"
                  fill="#b5b5b5"
                  id="Shape-4" transform="translate(-6.239 -11.656)"/>
            <path d="M31.472,0A17.353,17.353,0,0,0,19.756,4.541a.725.725,0,1,0,.978,1.072A15.956,15.956,0,1,1,25.4,32.158a.744.744,0,0,0-.943.379.71.71,0,0,0,.387.962A17.406,17.406,0,1,0,31.472,0Z"
                  data-name="Shape"
                  fill="#b5b5b5"
                  id="Shape-5" transform="translate(-5.363 0)"/>
            <path d="M29.234,30.524l14.52-9.435a1.442,1.442,0,0,0,0-2.418L29.233,9.235A1.446,1.446,0,0,0,27,10.445v18.87a1.446,1.446,0,0,0,2.234,1.209Zm-.783-20.067L42.96,19.872,28.451,29.315Z"
                  data-name="Shape"
                  fill="#b5b5b5"
                  id="Shape-6" transform="translate(-7.418 -2.473)"/>
            <path d="M.725,24.505H9.279a15.891,15.891,0,0,0,1.762,4.352H6.527a.725.725,0,1,0,0,1.451h8.7a.725.725,0,1,0,0-1.451H12.755a14.365,14.365,0,0,1-1.976-4.352h2.276a.725.725,0,1,0,0-1.451H10.433a15.77,15.77,0,0,1,2.321-11.6h2.477a.725.725,0,0,0,0-1.451h-8.7a.725.725,0,0,0,0,1.451h4.513a17.346,17.346,0,0,0-2.084,11.6H.725a.725.725,0,1,0,0,1.451Z"
                  data-name="Shape"
                  fill="#b5b5b5"
                  id="Shape-7" transform="translate(0 -2.747)"/>
            <path d="M.725,19.451h5.8a.725.725,0,0,0,0-1.451H.725a.725.725,0,0,0,0,1.451Z" data-name="Shape"
                  fill="#b2b2b2"
                  id="Shape-8" transform="translate(0 -4.945)"/>
        </g>
    </g>
</svg>
