<svg height="47" viewBox="0 0 58.756 47" width="58.756" xmlns="http://www.w3.org/2000/svg">
    <g id="videos_active" transform="translate(0 0)">
        <g id="Layer_4" transform="translate(12.729 0.979)">
            <path d="M45.041,22.52a22.521,22.521,0,0,1-22.52,22.52c-.5,0-.989-.02-1.469-.049a22.52,22.52,0,0,1,0-44.943C21.532.02,22.021,0,22.521,0A22.521,22.521,0,0,1,45.041,22.52Z"
                  fill="#facece"
                  id="Shape" transform="translate(0 0)"/>
            <ellipse cx="21.052" cy="22.472" fill="#ffe5e5" id="Oval" rx="21.052" ry="22.472"
                     transform="translate(0 0.049)"/>
            <path d="M36.1,23.521,16.5,36.26a.97.97,0,0,1-1.5-.813V9.969a.97.97,0,0,1,1.5-.813L34.563,20.9l1.537,1a.969.969,0,0,1,0,1.625Z"
                  data-name="Shape"
                  fill="#fff"
                  id="Shape-2" transform="translate(-0.313 -0.188)"/>
            <path d="M34.563,20.9a.908.908,0,0,1-.421.666L15,34V9.969a.97.97,0,0,1,1.5-.813Z" data-name="Shape"
                  fill="#eef8fa"
                  id="Shape-3" transform="translate(-0.313 -0.188)"/>
        </g>
        <path d="M24.968,45.99a22.52,22.52,0,0,1,0-44.943,22.52,22.52,0,1,0,0,44.943Z" data-name="Shape" fill="#fff"
              id="Shape-4" transform="translate(11.73 -0.021)"/>
        <path d="M27.462,44.253l-.748,1.81a23.557,23.557,0,0,1-6.868-4.355l1.32-1.447A21.574,21.574,0,0,0,27.462,44.253Z"
              data-name="Shape"
              fill="#fff"
              id="Shape-5" transform="translate(-0.414 -0.839)"/>
        <g data-name="Group 638" id="Group_638" transform="translate(0 0)">
            <path d="M23.687,44.385a.979.979,0,1,1,.979-.979A.979.979,0,0,1,23.687,44.385Z" data-name="Shape"
                  fill="#f54a50"
                  id="Shape-6" transform="translate(-0.473 -0.884)"/>
            <path d="M35.656,0A23.428,23.428,0,0,0,19.839,6.13a.979.979,0,1,0,1.32,1.447,21.541,21.541,0,1,1,6.3,35.837,1,1,0,0,0-1.273.512.959.959,0,0,0,.523,1.3A23.5,23.5,0,1,0,35.656,0Z"
                  data-name="Shape"
                  fill="#f54a50"
                  id="Shape-7" transform="translate(-0.407 0)"/>
            <path d="M30.016,38.057l19.6-12.738a1.947,1.947,0,0,0,0-3.264L30.015,9.316A1.952,1.952,0,0,0,27,10.95V36.425a1.952,1.952,0,0,0,3.016,1.632ZM28.958,10.965,48.546,23.678,28.958,36.425Z"
                  data-name="Shape"
                  fill="#1d3557"
                  id="Shape-8" transform="translate(-0.563 -0.188)"/>
            <path d="M.979,29.583H12.527a21.454,21.454,0,0,0,2.378,5.875H8.812a.979.979,0,1,0,0,1.958h11.75a.979.979,0,0,0,0-1.958H17.219a19.393,19.393,0,0,1-2.667-5.875h3.073a.979.979,0,1,0,0-1.958h-3.54a21.291,21.291,0,0,1,3.133-15.666h3.344a.979.979,0,0,0,0-1.958H8.812a.979.979,0,0,0,0,1.958h6.093a23.418,23.418,0,0,0-2.814,15.666H.979a.979.979,0,1,0,0,1.958Z"
                  data-name="Shape"
                  fill="#1d3557"
                  id="Shape-9" transform="translate(0 -0.208)"/>
            <path d="M.979,19.958H8.812a.979.979,0,1,0,0-1.958H.979a.979.979,0,1,0,0,1.958Z" data-name="Shape"
                  fill="#f54a50"
                  id="Shape-10" transform="translate(0 -0.375)"/>
        </g>
    </g>
</svg>
