<svg height="60.188" viewBox="0 0 47.024 60.188" width="47.024"
     xmlns="http://www.w3.org/2000/svg">
    <defs>
        <linearGradient gradientUnits="objectBoundingBox" id="linear-gradient" x2="1" y1="0.5" y2="0.5">
            <stop offset="0" stop-color="#e63946"/>
            <stop offset="1" stop-color="#ff6b7a"/>
        </linearGradient>
    </defs>
    <g id="ask_doubt_active" transform="translate(-3.297 0.5)">
        <path d="M46.816,25.627c-1.424-2.689.633-4.429.791-5.853a15.937,15.937,0,0,0-4.588-13.6C38.115.949,31.788,0,27.516,0c-10.6,0-14.87,3.48-18.192,7.119-6.8,7.593-5.379,14.237-5.379,14.237C4.1,25.311,9.482,32.43,9.482,32.43,13.754,38.6,11.7,43.5,11.7,43.5c8.7,1.9,15.977,14.712,15.977,14.712.316-1.9,4.588-9.808,4.588-9.808,1.74-2.215,4.746-1.424,6.328-1.266,4.588.633,5.695-.791,5.695-.791.949-.633.475-3.164.475-3.164a2.605,2.605,0,0,1,.633-2.531c.949-1.424.475-2.057.475-2.057-.316-.475-.158-.633-.158-.633,1.107-.316,1.107-.949,1.107-.949V34.961c-.158-1.424.475-1.424.475-1.424,2.531,0,2.531-1.74,2.531-1.74C49.821,31.006,46.816,25.627,46.816,25.627ZM26.884,37.333A3.451,3.451,0,0,1,23.4,33.7a3.451,3.451,0,0,1,3.48-3.638,3.365,3.365,0,0,1,3.48,3.638A3.281,3.281,0,0,1,26.884,37.333Zm4.9-14.712a7.1,7.1,0,0,0-2.057,4.9v.633h-5.22v-.949a7.9,7.9,0,0,1,2.373-6.17c1.266-1.424,2.215-2.689,2.215-4.113s-.949-2.215-2.847-2.373A8.745,8.745,0,0,0,22.3,15.661L21.03,11.39a14.112,14.112,0,0,1,6.644-1.582c5.22,0,7.593,2.847,7.593,6.17C35.11,18.983,33.211,21.04,31.788,22.622Z"
              data-name="Path 1269"
              fill="url(#linear-gradient)"
              id="Path_1269" stroke="rgba(0,0,0,0)" stroke-width="1" transform="translate(0)"/>
    </g>
</svg>
