<svg height="31.5" viewBox="0 0 36 31.5" width="36" xmlns="http://www.w3.org/2000/svg">
    <path d="M3.375,2.25A3.376,3.376,0,0,0,0,5.625v24.75A3.376,3.376,0,0,0,3.375,33.75h29.25A3.376,3.376,0,0,0,36,30.375V5.625A3.376,3.376,0,0,0,32.625,2.25Zm0,2.25h7.453a.423.423,0,0,1,.422.422V6.328a.423.423,0,0,1-.422.422H2.672a.423.423,0,0,1-.422-.422v-.7A1.128,1.128,0,0,1,3.375,4.5Zm29.953,6.75H2.672a.423.423,0,0,1-.422-.422V8.3a.423.423,0,0,1,.422-.422h9.7L14.5,4.69a.419.419,0,0,1,.352-.19H32.625A1.128,1.128,0,0,1,33.75,5.625v5.2A.423.423,0,0,1,33.328,11.25ZM18,29.813a8.438,8.438,0,1,1,8.438-8.437A8.444,8.444,0,0,1,18,29.813Zm0-14.625a6.188,6.188,0,1,0,6.188,6.188A6.2,6.2,0,0,0,18,15.188ZM14.625,22.5A1.128,1.128,0,0,1,13.5,21.375a4.5,4.5,0,0,1,4.5-4.5,1.125,1.125,0,0,1,0,2.25,2.257,2.257,0,0,0-2.25,2.25A1.128,1.128,0,0,1,14.625,22.5Z"
          fill="#ed3336"
          id="image" transform="translate(0 -2.25)"/>
</svg>
