<svg height="42.821" viewBox="0 0 63.714 42.821" width="63.714"
     xmlns="http://www.w3.org/2000/svg">
    <defs>
        <linearGradient gradientUnits="objectBoundingBox" id="linear-gradient" x2="1" y1="0.5" y2="0.5">
            <stop offset="0" stop-color="#e63946"/>
            <stop offset="1" stop-color="#ff6b7a"/>
        </linearGradient>
    </defs>
    <g id="my_doubts_active" transform="translate(-0.001 -80)">
        <g data-name="Group 726" id="Group_726" transform="translate(13.135 80)">
            <g data-name="Group 725" id="Group_725" transform="translate(0 0)">
                <path d="M138.979,80H100.071a3.891,3.891,0,0,0,0,7.782h38.908a3.891,3.891,0,0,0,0-7.782Z"
                      data-name="Path 1311"
                      fill="url(#linear-gradient)"
                      id="Path_1311" transform="translate(-96.18 -80)"/>
            </g>
        </g>
        <g data-name="Group 728" id="Group_728" transform="translate(0.001 80.016)">
            <g data-name="Group 727" id="Group_727" transform="translate(0 0)">
                <path d="M7.8,84.009a3.891,3.891,0,0,0-7.782,0,3.312,3.312,0,0,0,0,.759,3.508,3.508,0,0,0,.214.739,4.516,4.516,0,0,0,.37.661,3.56,3.56,0,0,0,.486.6,3.444,3.444,0,0,0,.584.467,3.17,3.17,0,0,0,.661.37,3.212,3.212,0,0,0,.817.292,3.412,3.412,0,0,0,.759,0,3.891,3.891,0,0,0,2.743-1.128,3.559,3.559,0,0,0,.486-.6,4.515,4.515,0,0,0,.37-.661,3.613,3.613,0,0,0,.292-.739A3.312,3.312,0,0,0,7.8,84.009Z"
                      data-name="Path 1312"
                      fill="url(#linear-gradient)"
                      id="Path_1312" transform="translate(-0.001 -80.135)"/>
            </g>
        </g>
        <g data-name="Group 730" id="Group_730" transform="translate(0.023 97.525)">
            <g data-name="Group 729" id="Group_729">
                <path d="M7.962,228.009a3.326,3.326,0,0,0,0-.759,3.152,3.152,0,0,0-.292-.72,3.889,3.889,0,0,0-.37-.681,2.8,2.8,0,0,0-.486-.584A3.891,3.891,0,0,0,.18,228.009a3.881,3.881,0,0,0,.642,2.159,3.737,3.737,0,0,0,.506.584,2.841,2.841,0,0,0,.584.486,3.156,3.156,0,0,0,.661.37,3.309,3.309,0,0,0,.739.214,3.229,3.229,0,0,0,.759.078,3.311,3.311,0,0,0,.759,0,3.157,3.157,0,0,0,.72-.214,3.249,3.249,0,0,0,.681-.37,2.841,2.841,0,0,0,.584-.486,2.841,2.841,0,0,0,.486-.584,3.128,3.128,0,0,0,.37-.661,3.291,3.291,0,0,0,.292-.817A3.219,3.219,0,0,0,7.962,228.009Z"
                      data-name="Path 1313"
                      fill="url(#linear-gradient)"
                      id="Path_1313" transform="translate(-0.18 -224.135)"/>
            </g>
        </g>
        <g data-name="Group 732" id="Group_732" transform="translate(0.022 115.034)">
            <g data-name="Group 731" id="Group_731">
                <path d="M7.96,372.009a3.34,3.34,0,0,0,0-.759,3.311,3.311,0,0,0-.292-.739,4.515,4.515,0,0,0-.37-.661,2.84,2.84,0,0,0-.486-.584,3.891,3.891,0,0,0-5.486,0,2.84,2.84,0,0,0-.486.584,4.515,4.515,0,0,0-.37.661,3.188,3.188,0,0,0-.214.739,3.343,3.343,0,0,0-.078.759,3.891,3.891,0,0,0,1.148,2.743,2.841,2.841,0,0,0,.584.486,3.158,3.158,0,0,0,.661.37,3.309,3.309,0,0,0,.739.214,3.229,3.229,0,0,0,.759.078,3.313,3.313,0,0,0,.759,0,3.158,3.158,0,0,0,.72-.214,3.25,3.25,0,0,0,.681-.37,2.841,2.841,0,0,0,.584-.486,2.841,2.841,0,0,0,.486-.584,3.116,3.116,0,0,0,.37-.661,3.3,3.3,0,0,0,.292-.817A3.219,3.219,0,0,0,7.96,372.009Z"
                      data-name="Path 1314"
                      fill="url(#linear-gradient)"
                      id="Path_1314" transform="translate(-0.178 -368.135)"/>
            </g>
        </g>
        <g data-name="Group 734" id="Group_734" transform="translate(13.135 97.509)">
            <g data-name="Group 733" id="Group_733" transform="translate(0 0)">
                <path d="M142.87,224h-42.8a3.891,3.891,0,0,0,0,7.782h42.8a3.891,3.891,0,1,0,0-7.782Z"
                      data-name="Path 1315"
                      fill="url(#linear-gradient)"
                      id="Path_1315" transform="translate(-96.18 -224)"/>
            </g>
        </g>
        <g data-name="Group 736" id="Group_736" transform="translate(12.271 115.017)">
            <g data-name="Group 735" id="Group_735" transform="translate(0 0)">
                <path d="M125.361,368h-25.29a3.891,3.891,0,0,0,0,7.782h25.29a3.891,3.891,0,0,0,0-7.782Z"
                      data-name="Path 1316"
                      fill="url(#linear-gradient)"
                      id="Path_1316" transform="translate(-96.18 -368)"/>
            </g>
        </g>
    </g>
</svg>
