<svg height="498.04" viewBox="0 0 665.539 498.04" width="665.539" xmlns="http://www.w3.org/2000/svg">
    <g id="bg_ill" transform="translate(-182.536 -108.162)">
        <path d="M129.958,8.1C116.907,4.045,103.6-.043,89.94,0,64.405.078,40.4,15.12,25.338,35.736S3.285,81.936.891,107.359C-1.25,130.112.153,153.592,8.568,174.84s24.442,40.082,45.627,48.637c14.382,5.812,30.531,6.793,44.291,13.945,22.209,11.541,33.794,36.576,53.138,52.458a79.346,79.346,0,0,0,73.652,13.809c27.006-8.852,47.448-32.216,58.581-58.362s14.061-55.007,15.134-83.407c1.277-33.838-1.18-71.079-24.292-95.832-16.727-17.912-41.252-25.86-64.66-33.129Q170,20.527,129.958,8.1Z"
              data-name="Path 1115"
              fill="#fbb"
              id="Path_1115" opacity="0.3" stroke="rgba(0,0,0,0)"
              stroke-width="1" transform="matrix(0.407, -0.914, 0.914, 0.407, 444.827, 431.801)"/>
        <path d="M16.533,41.545c11.793-29.2,47-42.027,78.486-41.531s62.09,10.767,93.52,12.686c27.031,1.654,54.162-2.9,81.188-1.169,55.022,3.534,107.552,34.816,136.865,81.507,10,15.928,17.56,34.5,15.205,53.153-3.837,30.389-32.544,51.719-61.472,61.792s-60.287,12.719-88.195,25.339c-25.6,11.572-46.835,30.885-66.572,50.87s-38.62,41.106-61.362,57.6-50.231,28.227-78.254,26.331-55.97-19.9-63.655-46.917c-6.9-24.264,2.966-49.944,14.329-72.46s24.738-45.363,25.289-70.58c.524-23.63-10.321-45.776-18.976-67.768S7.673,63.46,16.533,41.545Z"
              data-name="Path 1116"
              fill="#fbb"
              id="Path_1116" opacity="0.4" stroke="rgba(0,0,0,0)" stroke-width="1"
              transform="translate(287.465 130.245) rotate(13)"/>
        <g data-name="Group 628" id="Group_628" transform="translate(522.906 442.781)">
            <path d="M308.282,223.871a28.873,28.873,0,1,1,28.87-28.876A28.908,28.908,0,0,1,308.282,223.871Zm0-54.834a25.961,25.961,0,1,0,25.958,25.958A25.99,25.99,0,0,0,308.282,169.036Z"
                  data-name="Path 1117"
                  fill="#fbb"
                  id="Path_1117" stroke="rgba(0,0,0,0)" stroke-width="1" transform="translate(-279.406 -166.125)"/>
        </g>
        <circle cx="8.633" cy="8.633" data-name="Ellipse 32" fill="#fbb" id="Ellipse_32"
                r="8.633" stroke="rgba(0,0,0,0)" stroke-width="1" transform="translate(605.015 422.017)"/>
        <circle cx="8.633" cy="8.633" data-name="Ellipse 33" fill="#fbb" id="Ellipse_33"
                r="8.633" stroke="rgba(0,0,0,0)" stroke-width="1" transform="translate(226.399 305.942)"/>
        <path d="M290.627,118.368a8.633,8.633,0,1,1-8.63-8.63A8.635,8.635,0,0,1,290.627,118.368Z" data-name="Path 1118"
              fill="#fbb"
              id="Path_1118" stroke="rgba(0,0,0,0)" stroke-width="1" transform="translate(269.35 48.707)"/>
        <g data-name="Group 631" id="Group_631" transform="translate(464.473 497.284)">
            <g data-name="Group 629" id="Group_629" transform="translate(12.857)">
                <path d="M273.035,204.116a1.46,1.46,0,0,1-1.456-1.456v-25.72a1.456,1.456,0,0,1,2.912,0v25.72A1.456,1.456,0,0,1,273.035,204.116Z"
                      data-name="Path 1119"
                      fill="#fbb"
                      id="Path_1119" stroke="rgba(0,0,0,0)" stroke-width="1" transform="translate(-271.579 -175.485)"/>
            </g>
            <g data-name="Group 630" id="Group_630" transform="translate(0 12.863)">
                <path d="M296.547,180.605h-25.72a1.456,1.456,0,1,1,0-2.911h25.72a1.456,1.456,0,0,1,0,2.911Z"
                      data-name="Path 1120"
                      fill="#fbb"
                      id="Path_1120" stroke="rgba(0,0,0,0)" stroke-width="1" transform="translate(-269.371 -177.694)"/>
            </g>
        </g>
        <g data-name="Group 634" id="Group_634" transform="translate(428.022 108.762)">
            <g data-name="Group 632" id="Group_632" transform="translate(12.863)">
                <path d="M266.776,137.393a1.46,1.46,0,0,1-1.456-1.456v-25.72a1.456,1.456,0,0,1,2.912,0v25.72A1.464,1.464,0,0,1,266.776,137.393Z"
                      data-name="Path 1121"
                      fill="#fbb"
                      id="Path_1121" stroke="rgba(0,0,0,0)" stroke-width="1" transform="translate(-265.32 -108.762)"/>
            </g>
            <g data-name="Group 633" id="Group_633" transform="translate(0 12.857)">
                <path d="M290.287,113.881h-25.72a1.456,1.456,0,0,1,0-2.911h25.72a1.456,1.456,0,0,1,0,2.911Z"
                      data-name="Path 1122"
                      fill="#fbb"
                      id="Path_1122" stroke="rgba(0,0,0,0)" stroke-width="1" transform="translate(-263.111 -110.97)"/>
            </g>
        </g>
        <g data-name="Group 635" id="Group_635" transform="translate(274.052 108.762) rotate(13)">
            <path d="M90.323,404.162h-.5c-2.437,0-4.846-.083-7.178-.243-1.323-.088-2.646-.2-3.964-.353a1.373,1.373,0,0,1-1.213-1.522,1.338,1.338,0,0,1,1.527-1.213q1.91.207,3.832.342c2.271.149,4.626.232,7,.232h.5a1.378,1.378,0,0,1,0,2.757Zm10.977-.612a1.379,1.379,0,0,1-.149-2.751c3.556-.38,7.173-.937,10.756-1.654a1.377,1.377,0,0,1,.535,2.7c-3.655.739-7.36,1.307-11,1.7Zm-33.311-1.808a1.186,1.186,0,0,1-.309-.039,95.7,95.7,0,0,1-10.712-3.12,1.378,1.378,0,1,1,.926-2.6,96.826,96.826,0,0,0,10.4,3.038,1.376,1.376,0,0,1-.3,2.718Zm54.862-2.514a1.377,1.377,0,0,1-.391-2.7c3.462-1.031,6.93-2.211,10.315-3.5a1.379,1.379,0,0,1,.987,2.575c-3.451,1.318-6.985,2.52-10.519,3.562A1.23,1.23,0,0,1,122.851,399.228ZM47.3,394.36a1.4,1.4,0,0,1-.617-.143A93.46,93.46,0,0,1,37,388.67a1.368,1.368,0,0,1-.4-1.908,1.391,1.391,0,0,1,1.908-.4,90.686,90.686,0,0,0,9.405,5.387,1.376,1.376,0,0,1-.612,2.608Zm96.084-2.966a1.377,1.377,0,0,1-.584-2.624c3.275-1.544,6.544-3.209,9.714-4.973a1.379,1.379,0,0,1,1.334,2.415c-3.22,1.786-6.544,3.49-9.874,5.056A1.456,1.456,0,0,1,143.387,391.393Zm-114.443-9.08a1.358,1.358,0,0,1-.893-.331,85.8,85.8,0,0,1-8.038-7.768,1.38,1.38,0,0,1,2.045-1.852,81.734,81.734,0,0,0,7.779,7.52,1.381,1.381,0,0,1-.893,2.431Zm133.69-1.571a1.38,1.38,0,0,1-.744-2.542c3-1.924,6.043-3.992,9.025-6.153a1.378,1.378,0,0,1,1.615,2.233c-3.027,2.189-6.109,4.289-9.158,6.247A1.4,1.4,0,0,1,162.634,380.742Zm17.83-12.868a1.381,1.381,0,0,1-.86-2.459c2.729-2.178,5.557-4.543,8.4-7.018a1.378,1.378,0,1,1,1.808,2.078c-2.872,2.5-5.728,4.89-8.485,7.1A1.366,1.366,0,0,1,180.464,367.874Zm-166.256-1.83a1.387,1.387,0,0,1-1.141-.606,77.567,77.567,0,0,1-5.623-9.681,1.376,1.376,0,1,1,2.475-1.2,75.723,75.723,0,0,0,5.43,9.334,1.384,1.384,0,0,1-.369,1.919A1.368,1.368,0,0,1,14.208,366.044Zm182.862-12.592a1.342,1.342,0,0,1-1.009-.441,1.361,1.361,0,0,1,.072-1.941q4.027-3.754,7.928-7.581a1.378,1.378,0,1,1,1.93,1.968q-3.928,3.845-7.983,7.625A1.374,1.374,0,0,1,197.069,353.451ZM4.664,346.317a1.379,1.379,0,0,1-1.318-.976l-.386-1.312a75.254,75.254,0,0,1-2.067-9.615,1.376,1.376,0,0,1,2.724-.4,73.651,73.651,0,0,0,1.99,9.257l.38,1.268a1.381,1.381,0,0,1-.921,1.72A1.286,1.286,0,0,1,4.664,346.317Zm208.151-8.237a1.376,1.376,0,0,1-.981-2.343q3.878-3.928,7.685-7.851A1.376,1.376,0,1,1,221.5,329.8q-3.813,3.936-7.7,7.873A1.36,1.36,0,0,1,212.815,338.081ZM1.384,324.639a1.381,1.381,0,0,1-1.378-1.356L0,322.3a93.162,93.162,0,0,1,.573-10.177A1.3,1.3,0,0,1,2.1,310.906a1.364,1.364,0,0,1,1.213,1.516,91.8,91.8,0,0,0-.551,9.874l.006.943a1.379,1.379,0,0,1-1.356,1.4Zm226.786-2.316a1.351,1.351,0,0,1-.954-.386,1.378,1.378,0,0,1-.033-1.952q3.523-3.63,7.062-7.228l.645-.656a1.38,1.38,0,0,1,1.952,1.952l-.623.623q-3.548,3.614-7.057,7.228A1.373,1.373,0,0,1,228.17,322.324Zm15.509-15.608a1.378,1.378,0,0,1-.959-2.371c2.641-2.558,5.309-5.089,8.033-7.581a1.379,1.379,0,1,1,1.863,2.034c-2.7,2.475-5.364,5-7.977,7.526A1.391,1.391,0,0,1,243.678,306.716ZM3.738,302.8a1.357,1.357,0,0,1-.292-.033,1.378,1.378,0,0,1-1.053-1.643c.761-3.479,1.72-7.09,2.845-10.745a1.379,1.379,0,0,1,2.635.816c-1.108,3.578-2.045,7.118-2.784,10.525A1.384,1.384,0,0,1,3.738,302.8Zm256.2-10.922a1.376,1.376,0,0,1-.888-2.426c2.883-2.448,5.789-4.785,8.623-6.952a1.4,1.4,0,0,1,1.935.265,1.382,1.382,0,0,1-.265,1.935c-2.8,2.128-5.657,4.432-8.518,6.853A1.351,1.351,0,0,1,259.937,291.88ZM10.183,281.769a1.429,1.429,0,0,1-.5-.088,1.385,1.385,0,0,1-.788-1.786c1.285-3.308,2.685-6.654,4.295-10.21a1.347,1.347,0,0,1,1.819-.689,1.372,1.372,0,0,1,.689,1.819c-1.582,3.518-2.966,6.814-4.229,10.078A1.381,1.381,0,0,1,10.183,281.769Zm267.269-3.192a1.379,1.379,0,0,1-.772-2.525c3.137-2.1,6.318-4.063,9.45-5.833a1.378,1.378,0,1,1,1.356,2.4c-3.071,1.742-6.191,3.661-9.262,5.728A1.373,1.373,0,0,1,277.452,278.577Zm19.963-11.015-.816-1.141-.551-1.263c3.391-1.533,6.77-2.894,10.288-4.151a1.376,1.376,0,1,1,.926,2.591C303.816,264.832,300.508,266.166,297.415,267.561ZM19.186,261.706a1.336,1.336,0,0,1-.623-.154,1.379,1.379,0,0,1-.606-1.852l.562-1.108q1.828-3.622,3.71-7.255l.739-1.445a1.38,1.38,0,1,1,2.453,1.263l-.744,1.444c-1.241,2.415-2.481,4.824-3.694,7.228l-.568,1.125A1.377,1.377,0,0,1,19.186,261.706Zm298.088-1.417a1.378,1.378,0,0,1-.386-2.7c3.5-1.025,7.052-1.974,10.674-2.883a1.325,1.325,0,0,1,1.665,1,1.365,1.365,0,0,1-1,1.671q-5.367,1.348-10.563,2.856A1.372,1.372,0,0,1,317.274,260.289Zm21.314-5.436a1.381,1.381,0,0,1-.32-2.724L349,249.638a1.379,1.379,0,0,1,.629,2.685L338.9,254.815A1.258,1.258,0,0,1,338.588,254.853Zm21.419-5.056a1.38,1.38,0,0,1-.331-2.718c3.528-.882,7.063-1.808,10.6-2.806a1.376,1.376,0,0,1,.755,2.646q-5.351,1.522-10.685,2.834A1.175,1.175,0,0,1,360.007,249.8Zm21.148-6.048a1.377,1.377,0,0,1-.43-2.685c.838-.281,1.665-.562,2.492-.855q3.953-1.373,7.74-2.922A1.379,1.379,0,1,1,392,239.841q-3.845,1.571-7.878,2.977c-.838.292-1.676.579-2.531.86A1.311,1.311,0,0,1,381.155,243.75ZM29.187,242.085a1.447,1.447,0,0,1-.618-.143,1.372,1.372,0,0,1-.618-1.847c1.649-3.319,3.236-6.61,4.7-9.885a1.381,1.381,0,1,1,2.52,1.13c-1.489,3.308-3.087,6.632-4.758,9.984A1.382,1.382,0,0,1,29.187,242.085ZM401.5,235.4a1.374,1.374,0,0,1-.612-2.608c3.286-1.648,6.495-3.418,9.527-5.254a1.378,1.378,0,1,1,1.433,2.354c-3.1,1.88-6.373,3.683-9.736,5.364A1.329,1.329,0,0,1,401.5,235.4Zm18.773-11.429a1.376,1.376,0,0,1-.816-2.486c2.966-2.194,5.789-4.51,8.4-6.87a1.38,1.38,0,1,1,1.852,2.045c-2.68,2.42-5.579,4.791-8.617,7.04A1.382,1.382,0,0,1,420.272,223.968ZM38.08,221.978a1.312,1.312,0,0,1-.474-.088,1.366,1.366,0,0,1-.816-1.764,98.225,98.225,0,0,0,3.176-10.365,1.4,1.4,0,0,1,1.66-1.02,1.385,1.385,0,0,1,1.02,1.665,98.936,98.936,0,0,1-3.275,10.668A1.374,1.374,0,0,1,38.08,221.978ZM436.524,209.2a1.367,1.367,0,0,1-.91-.342,1.384,1.384,0,0,1-.121-1.946,89.258,89.258,0,0,0,6.666-8.535,1.379,1.379,0,0,1,2.271,1.566,91.436,91.436,0,0,1-6.869,8.788A1.362,1.362,0,0,1,436.524,209.2ZM43.091,200.626l-.11-.006a1.375,1.375,0,0,1-1.263-1.489c.094-1.147.154-2.294.182-3.451l.011-1.229c0-1.974-.1-4.008-.3-6.059a1.371,1.371,0,0,1,1.235-1.505,1.4,1.4,0,0,1,1.511,1.235c.209,2.139.314,4.267.314,6.329l-.011,1.3c-.028,1.207-.088,2.4-.193,3.606A1.38,1.38,0,0,1,43.091,200.626Zm405.794-9.549a1.47,1.47,0,0,1-.623-.143,1.383,1.383,0,0,1-.612-1.852,73.278,73.278,0,0,0,4.129-9.968,1.379,1.379,0,0,1,2.619.865,76.974,76.974,0,0,1-4.284,10.343A1.387,1.387,0,0,1,448.885,191.077ZM41.129,178.8a1.381,1.381,0,0,1-1.345-1.064c-.772-3.275-1.759-6.7-3-10.448a1.377,1.377,0,1,1,2.613-.871c1.279,3.832,2.277,7.327,3.076,10.685a1.373,1.373,0,0,1-1.025,1.66A1.26,1.26,0,0,1,41.129,178.8Zm414.587-8.54a1.187,1.187,0,0,1-.237-.022,1.373,1.373,0,0,1-1.119-1.593c.149-.877.276-1.753.386-2.641a71.381,71.381,0,0,0,.54-8.082,1.376,1.376,0,0,1,1.378-1.367h.011a1.379,1.379,0,0,1,1.367,1.389,74.52,74.52,0,0,1-.562,8.4c-.11.932-.248,1.852-.408,2.773A1.381,1.381,0,0,1,455.716,170.259ZM34.342,157.893a1.379,1.379,0,0,1-1.285-.882c-1.3-3.363-2.679-6.759-4.074-10.188a1.377,1.377,0,1,1,2.547-1.048c1.411,3.451,2.79,6.864,4.1,10.244a1.382,1.382,0,0,1-.794,1.781A1.3,1.3,0,0,1,34.342,157.893Zm421.633-9.56a1.374,1.374,0,0,1-1.367-1.191,85.61,85.61,0,0,0-2.112-10.613,1.379,1.379,0,1,1,2.668-.7,89.06,89.06,0,0,1,2.178,10.944,1.38,1.38,0,0,1-1.185,1.549C456.091,148.327,456.03,148.333,455.975,148.333ZM26.127,137.477a1.386,1.386,0,0,1-1.279-.871l-.689-1.726c-1.064-2.713-2.15-5.6-3.22-8.623a1.377,1.377,0,0,1,2.6-.915c1.059,2.994,2.134,5.844,3.186,8.523l.684,1.72a1.377,1.377,0,0,1-.766,1.792A1.411,1.411,0,0,1,26.127,137.477ZM450.456,127.1a1.385,1.385,0,0,1-1.29-.888c-1.263-3.308-2.729-6.66-4.355-9.968a1.382,1.382,0,0,1,2.481-1.218c1.654,3.385,3.159,6.82,4.449,10.2a1.369,1.369,0,0,1-.794,1.775A1.313,1.313,0,0,1,450.456,127.1ZM18.877,116.709a1.376,1.376,0,0,1-1.323-1c-1.048-3.655-1.952-7.277-2.685-10.773a1.385,1.385,0,0,1,1.07-1.632,1.415,1.415,0,0,1,1.632,1.075c.717,3.418,1.6,6.974,2.635,10.569a1.376,1.376,0,0,1-.943,1.7A1.36,1.36,0,0,1,18.877,116.709Zm421.942-9.372a1.382,1.382,0,0,1-1.191-.678c-.739-1.257-1.5-2.509-2.288-3.771-1.152-1.836-2.338-3.655-3.562-5.442a1.379,1.379,0,1,1,2.283-1.549q1.852,2.729,3.617,5.53c.8,1.279,1.582,2.553,2.332,3.832a1.39,1.39,0,0,1-.491,1.891A1.406,1.406,0,0,1,440.819,107.337ZM14.439,95.18a1.377,1.377,0,0,1-1.367-1.218,102.794,102.794,0,0,1-.7-11.137,1.371,1.371,0,0,1,1.373-1.378h.006a1.378,1.378,0,0,1,1.378,1.373,99.835,99.835,0,0,0,.678,10.817A1.379,1.379,0,0,1,14.6,95.169ZM428.47,89.143a1.372,1.372,0,0,1-1.092-.54c-2.205-2.861-4.537-5.7-6.919-8.441a1.378,1.378,0,1,1,2.079-1.808c2.42,2.779,4.78,5.662,7.029,8.573a1.379,1.379,0,0,1-1.1,2.216ZM14.356,73.226l-.165-.011a1.378,1.378,0,0,1-1.2-1.533A77.1,77.1,0,0,1,15.139,60.7a1.393,1.393,0,0,1,1.687-.97,1.378,1.378,0,0,1,.97,1.693,75.118,75.118,0,0,0-2.073,10.591A1.371,1.371,0,0,1,14.356,73.226Zm399.68-.678a1.365,1.365,0,0,1-.981-.413c-2.553-2.613-5.194-5.16-7.856-7.592a1.379,1.379,0,1,1,1.863-2.034c2.7,2.459,5.375,5.056,7.961,7.7A1.378,1.378,0,0,1,415,72.157,1.36,1.36,0,0,1,414.036,72.548ZM397.794,57.723a1.4,1.4,0,0,1-.871-.309c-2.8-2.277-5.706-4.515-8.656-6.66a1.376,1.376,0,0,1,1.615-2.227c2.994,2.167,5.949,4.438,8.782,6.743a1.389,1.389,0,0,1,.2,1.946A1.371,1.371,0,0,1,397.794,57.723ZM20.189,52.1a1.375,1.375,0,0,1-1.257-1.941,71.486,71.486,0,0,1,5.375-9.825,1.376,1.376,0,1,1,2.3,1.505,69.386,69.386,0,0,0-5.171,9.45A1.362,1.362,0,0,1,20.189,52.1Zm359.8-7.294a1.345,1.345,0,0,1-.739-.221c-3.087-1.974-6.23-3.881-9.35-5.651a1.378,1.378,0,0,1,1.356-2.4c3.17,1.8,6.357,3.727,9.477,5.734a1.378,1.378,0,0,1-.744,2.536ZM360.867,33.95a1.482,1.482,0,0,1-.617-.143c-3.242-1.615-6.583-3.154-9.913-4.581a1.377,1.377,0,1,1,1.086-2.531c3.374,1.444,6.759,3.01,10.056,4.648a1.376,1.376,0,0,1-.612,2.608ZM32.159,33.763a1.378,1.378,0,0,1-1.025-2.3A78.493,78.493,0,0,1,39.2,23.712a1.378,1.378,0,0,1,1.946.176,1.392,1.392,0,0,1-.182,1.946,76.374,76.374,0,0,0-7.785,7.47A1.363,1.363,0,0,1,32.159,33.763ZM340.65,25.284a1.377,1.377,0,0,1-.469-.083c-3.391-1.224-6.875-2.382-10.37-3.435a1.373,1.373,0,0,1-.921-1.715,1.356,1.356,0,0,1,1.715-.921c3.54,1.059,7.079,2.233,10.514,3.479a1.378,1.378,0,0,1-.469,2.674Zm-291.67-5.6a1.376,1.376,0,0,1-.733-2.542A97.681,97.681,0,0,1,58,11.732a1.38,1.38,0,0,1,1.2,2.486,95.583,95.583,0,0,0-9.483,5.249A1.338,1.338,0,0,1,48.979,19.682Zm270.6-.711a1.244,1.244,0,0,1-.314-.033c-3.528-.838-7.129-1.582-10.7-2.216a1.379,1.379,0,0,1-1.114-1.6,1.351,1.351,0,0,1,1.6-1.114c3.622.64,7.272,1.4,10.85,2.244a1.377,1.377,0,0,1-.32,2.718ZM221,15.812a1.378,1.378,0,0,1-.011-2.757c3.633-.028,7.272-.121,10.949-.27a1.5,1.5,0,0,1,1.433,1.329,1.382,1.382,0,0,1-1.323,1.428c-3.71.149-7.371.243-11.037.27Zm-11-.187h-.066c-.865-.044-1.725-.088-2.569-.143-2.834-.176-5.645-.419-8.474-.717a1.381,1.381,0,1,1,.292-2.746c2.778.3,5.563.54,8.352.711.838.05,1.682.094,2.536.138A1.379,1.379,0,0,1,210,15.624Zm87.93-.48-.16-.011c-3.043-.342-6.1-.623-9.163-.821l-1.715-.1a1.38,1.38,0,1,1,.149-2.757l1.748.11q4.656.3,9.3.833a1.377,1.377,0,0,1-.154,2.746Zm-54.939-.116a1.379,1.379,0,0,1-.072-2.757l10.988-.573a1.38,1.38,0,0,1,.143,2.757l-10.988.573ZM264.97,14.02a1.379,1.379,0,0,1-.038-2.757c3.1-.088,6.23-.143,9.328-.132l1.72.006a1.378,1.378,0,0,1-.011,2.757h-.011l-1.7-.005c-3.021-.033-6.175.044-9.251.132Zm-76.837-.684a1.274,1.274,0,0,1-.2-.017c-3.611-.546-7.233-1.163-10.894-1.814a1.376,1.376,0,0,1-1.114-1.6,1.356,1.356,0,0,1,1.6-1.114q5.458.976,10.817,1.8a1.378,1.378,0,0,1-.2,2.74ZM68.744,10.095a1.378,1.378,0,0,1-.469-2.674c3.44-1.246,7.024-2.354,10.635-3.291a1.4,1.4,0,0,1,1.682.992A1.381,1.381,0,0,1,79.6,6.8c-3.528.915-7.024,2-10.387,3.214A1.377,1.377,0,0,1,68.744,10.095Zm97.38-.59c-3.578-.662-7.145-1.329-10.74-1.968a1.378,1.378,0,1,1,.485-2.712c3.6.639,7.173,1.3,10.718,1.963l-.132,1.378ZM144.777,5.734a1.4,1.4,0,0,1-.21-.017q-5.375-.835-10.844-1.494a1.377,1.377,0,1,1,.32-2.735c3.677.436,7.327.948,10.944,1.505a1.378,1.378,0,0,1-.209,2.74ZM90.02,4.548a1.377,1.377,0,0,1-.232-2.735C93.421,1.2,97.132.733,100.826.425a1.34,1.34,0,0,1,1.483,1.263,1.373,1.373,0,0,1-1.257,1.483c-3.617.3-7.25.761-10.8,1.356A1.172,1.172,0,0,1,90.02,4.548Zm32.908-1.356-.1-.006c-3.253-.226-6.506-.364-9.665-.419l-1.24-.011A1.378,1.378,0,0,1,111.935,0h.011L113.2.011c3.225.055,6.522.2,9.825.43a1.377,1.377,0,0,1-.094,2.751Z"
                  data-name="Path 1123"
                  fill="#fbb"
                  id="Path_1123" stroke="rgba(0,0,0,0)" stroke-width="1" transform="translate(0 0)"/>
        </g>
    </g>
</svg>
