<svg height="255" viewBox="0 0 616 255" width="616"
     xmlns="http://www.w3.org/2000/svg">
    <defs>
        <filter filterUnits="userSpaceOnUse" height="459" id="Rounded_Rectangle_7_copy_15" width="820" x="-102" y="-96">
            <feOffset dy="6" input="SourceAlpha"/>
            <feGaussianBlur result="blur" stdDeviation="34"/>
            <feFlood flood-color="#a2a2a2" flood-opacity="0.2"/>
            <feComposite in2="blur" operator="in"/>
            <feComposite in="SourceGraphic"/>
        </filter>
        <clipPath id="clip-path">
            <g filter="url(#Rounded_Rectangle_7_copy_15)" transform="matrix(1, 0, 0, 1, 0, 0)">
                <rect data-name="Rounded Rectangle 7 copy 15" fill="#1d3557" height="255"
                      id="Rounded_Rectangle_7_copy_15-2" rx="22" transform="translate(6384 1708)" width="616"/>
            </g>
        </clipPath>
    </defs>
    <g clip-path="url(#clip-path)" data-name="Mask Group 2" id="Mask_Group_2" transform="translate(-6384 -1708)">
        <g id="bg" transform="translate(-37.667 16.786)">
            <path d="M101.785,6.343C91.563,3.168,81.143-.034,70.442,0c-20,.061-38.8,11.842-50.6,27.989S2.573,64.173.7,84.085C-.979,101.905.12,120.3,6.71,136.937s19.143,31.392,35.735,38.093c11.264,4.552,23.912,5.32,34.69,10.922,17.394,9.039,26.468,28.647,41.618,41.086a62.145,62.145,0,0,0,57.685,10.815c21.152-6.933,37.162-25.232,45.881-45.71s11.013-43.082,11.853-65.325c1-26.5-.924-55.67-19.025-75.057-13.1-14.029-32.309-20.254-50.643-25.947Z"
                  data-name="Path 1115"
                  fill="#ff3645"
                  id="Path_1115" opacity="0.3" transform="matrix(0.407, -0.914, 0.914, 0.407, 6699.627, 2007.351)"/>
            <path d="M70.742,316.545h-.393c-1.909,0-3.8-.065-5.622-.19-1.036-.069-2.073-.155-3.1-.276a1.076,1.076,0,0,1-.95-1.192,1.048,1.048,0,0,1,1.2-.95q1.5.162,3,.268c1.779.117,3.623.181,5.48.181h.393a1.08,1.08,0,0,1,0,2.159Zm8.6-.479a1.08,1.08,0,0,1-.117-2.155c2.785-.3,5.618-.734,8.425-1.3a1.078,1.078,0,0,1,.419,2.116c-2.863.579-5.765,1.023-8.614,1.33Zm-26.09-1.416a.93.93,0,0,1-.242-.03,74.969,74.969,0,0,1-8.39-2.444,1.08,1.08,0,1,1,.725-2.034,75.825,75.825,0,0,0,8.144,2.379,1.078,1.078,0,0,1-.238,2.129Zm42.969-1.969a1.078,1.078,0,0,1-.307-2.111c2.712-.808,5.428-1.732,8.079-2.742a1.08,1.08,0,0,1,.773,2.017c-2.7,1.032-5.471,1.973-8.239,2.789A.963.963,0,0,1,96.218,312.68Zm-59.17-3.813a1.1,1.1,0,0,1-.484-.112,73.2,73.2,0,0,1-7.583-4.344,1.072,1.072,0,0,1-.315-1.494,1.089,1.089,0,0,1,1.494-.311,71.034,71.034,0,0,0,7.367,4.219,1.078,1.078,0,0,1-.479,2.042Zm75.254-2.323a1.078,1.078,0,0,1-.458-2.055c2.565-1.209,5.125-2.513,7.608-3.895a1.08,1.08,0,0,1,1.045,1.891c-2.522,1.4-5.126,2.733-7.734,3.96A1.14,1.14,0,0,1,112.3,306.544ZM22.67,299.433a1.064,1.064,0,0,1-.7-.259,67.2,67.2,0,0,1-6.3-6.084,1.081,1.081,0,0,1,1.6-1.451,64.018,64.018,0,0,0,6.093,5.89,1.082,1.082,0,0,1-.7,1.9ZM127.377,298.2a1.081,1.081,0,0,1-.583-1.991c2.353-1.507,4.733-3.126,7.069-4.819a1.079,1.079,0,0,1,1.265,1.749c-2.371,1.714-4.784,3.359-7.172,4.892A1.1,1.1,0,0,1,127.377,298.2Zm13.964-10.078a1.082,1.082,0,0,1-.674-1.926c2.138-1.706,4.353-3.558,6.576-5.5a1.079,1.079,0,1,1,1.416,1.628c-2.25,1.96-4.486,3.83-6.645,5.557A1.07,1.07,0,0,1,141.342,288.124ZM11.128,286.69a1.086,1.086,0,0,1-.894-.475,60.748,60.748,0,0,1-4.4-7.582,1.078,1.078,0,1,1,1.939-.941A59.305,59.305,0,0,0,12.021,285a1.084,1.084,0,0,1-.289,1.5A1.072,1.072,0,0,1,11.128,286.69Zm143.22-9.862a1.051,1.051,0,0,1-.79-.345,1.066,1.066,0,0,1,.056-1.52q3.154-2.94,6.209-5.937a1.079,1.079,0,1,1,1.511,1.541q-3.077,3.012-6.252,5.972A1.076,1.076,0,0,1,154.347,276.828ZM3.653,271.24a1.08,1.08,0,0,1-1.032-.764l-.3-1.028A58.94,58.94,0,0,1,.7,261.918a1.078,1.078,0,0,1,2.133-.311,57.684,57.684,0,0,0,1.559,7.25l.3.993a1.082,1.082,0,0,1-.721,1.347A1.006,1.006,0,0,1,3.653,271.24Zm163.027-6.451a1.077,1.077,0,0,1-.769-1.835q3.038-3.077,6.019-6.149a1.078,1.078,0,1,1,1.55,1.5q-2.986,3.083-6.032,6.166A1.065,1.065,0,0,1,166.68,264.789ZM1.084,254.262A1.082,1.082,0,0,1,0,253.2l0-.773a72.966,72.966,0,0,1,.449-7.971,1.014,1.014,0,0,1,1.192-.95,1.068,1.068,0,0,1,.95,1.187,71.9,71.9,0,0,0-.432,7.733l0,.738a1.08,1.08,0,0,1-1.062,1.1Zm177.621-1.814a1.058,1.058,0,0,1-.747-.3,1.079,1.079,0,0,1-.026-1.529q2.759-2.843,5.531-5.661l.505-.514a1.081,1.081,0,0,1,1.529,1.529l-.488.488q-2.779,2.83-5.527,5.661A1.075,1.075,0,0,1,178.705,252.448Zm12.147-12.224a1.08,1.08,0,0,1-.751-1.857c2.068-2,4.158-3.986,6.291-5.937a1.08,1.08,0,1,1,1.459,1.593c-2.116,1.939-4.2,3.912-6.248,5.894A1.089,1.089,0,0,1,190.852,240.224ZM2.928,237.158a1.062,1.062,0,0,1-.229-.026,1.08,1.08,0,0,1-.825-1.287c.6-2.725,1.347-5.553,2.228-8.416a1.08,1.08,0,0,1,2.064.639c-.868,2.8-1.6,5.575-2.181,8.243A1.084,1.084,0,0,1,2.928,237.158ZM203.586,228.6a1.077,1.077,0,0,1-.7-1.9c2.258-1.917,4.534-3.748,6.753-5.445a1.093,1.093,0,0,1,1.516.207,1.082,1.082,0,0,1-.207,1.516c-2.189,1.667-4.43,3.472-6.671,5.367A1.058,1.058,0,0,1,203.586,228.6ZM7.975,220.685a1.12,1.12,0,0,1-.389-.069,1.085,1.085,0,0,1-.617-1.4c1.006-2.591,2.1-5.212,3.364-8a1.055,1.055,0,0,1,1.425-.54,1.075,1.075,0,0,1,.54,1.425c-1.239,2.755-2.323,5.337-3.312,7.893A1.081,1.081,0,0,1,7.975,220.685Zm209.329-2.5a1.08,1.08,0,0,1-.6-1.978c2.457-1.641,4.948-3.182,7.4-4.568a1.079,1.079,0,1,1,1.062,1.878c-2.405,1.364-4.849,2.867-7.254,4.486A1.075,1.075,0,0,1,217.3,218.185Zm15.636-8.627-.639-.894-.432-.989c2.656-1.2,5.3-2.267,8.057-3.251a1.078,1.078,0,1,1,.725,2.03C237.953,207.42,235.362,208.465,232.94,209.557ZM15.027,204.972a1.046,1.046,0,0,1-.488-.121,1.08,1.08,0,0,1-.475-1.451l.44-.868q1.431-2.837,2.906-5.683l.579-1.131a1.081,1.081,0,1,1,1.922.989l-.583,1.131c-.972,1.891-1.943,3.778-2.893,5.661l-.445.881A1.078,1.078,0,0,1,15.027,204.972Zm233.466-1.11a1.08,1.08,0,0,1-.3-2.116c2.738-.8,5.523-1.546,8.36-2.258a1.038,1.038,0,0,1,1.3.786,1.069,1.069,0,0,1-.781,1.308q-4.2,1.056-8.273,2.237A1.074,1.074,0,0,1,248.493,203.862Zm16.693-4.258a1.082,1.082,0,0,1-.25-2.133l8.4-1.952a1.08,1.08,0,0,1,.492,2.1l-8.4,1.952A.985.985,0,0,1,265.186,199.6Zm16.776-3.96a1.081,1.081,0,0,1-.259-2.129c2.763-.691,5.531-1.416,8.3-2.2a1.078,1.078,0,0,1,.592,2.073q-4.191,1.192-8.368,2.219A.921.921,0,0,1,281.962,195.645Zm16.564-4.737a1.079,1.079,0,0,1-.337-2.1c.656-.22,1.3-.44,1.952-.669q3.1-1.075,6.062-2.289a1.08,1.08,0,1,1,.816,2q-3.012,1.231-6.171,2.332c-.656.229-1.313.453-1.982.674A1.027,1.027,0,0,1,298.526,190.908ZM22.86,189.6a1.133,1.133,0,0,1-.484-.112,1.075,1.075,0,0,1-.484-1.447c1.291-2.6,2.535-5.177,3.683-7.742a1.081,1.081,0,1,1,1.973.885c-1.166,2.591-2.418,5.195-3.726,7.82A1.083,1.083,0,0,1,22.86,189.6Zm291.6-5.238a1.076,1.076,0,0,1-.479-2.042c2.573-1.291,5.087-2.677,7.461-4.115a1.079,1.079,0,1,1,1.123,1.844c-2.427,1.472-4.992,2.884-7.626,4.2A1.041,1.041,0,0,1,314.459,184.366Zm14.7-8.951a1.078,1.078,0,0,1-.639-1.947c2.323-1.719,4.534-3.532,6.581-5.38a1.081,1.081,0,1,1,1.451,1.6c-2.1,1.9-4.37,3.752-6.749,5.514A1.083,1.083,0,0,1,329.162,175.415ZM29.825,173.856a1.027,1.027,0,0,1-.371-.069,1.07,1.07,0,0,1-.639-1.382,76.933,76.933,0,0,0,2.487-8.118,1.1,1.1,0,0,1,1.3-.8,1.085,1.085,0,0,1,.8,1.3,77.489,77.489,0,0,1-2.565,8.355A1.076,1.076,0,0,1,29.825,173.856Zm312.067-10.009a1.07,1.07,0,0,1-.712-.268,1.084,1.084,0,0,1-.095-1.524,69.907,69.907,0,0,0,5.221-6.684,1.08,1.08,0,1,1,1.779,1.226,71.614,71.614,0,0,1-5.38,6.883A1.066,1.066,0,0,1,341.892,163.847ZM33.75,157.133l-.086,0a1.077,1.077,0,0,1-.989-1.166c.073-.9.121-1.8.143-2.7l.009-.963c0-1.546-.078-3.139-.238-4.745a1.074,1.074,0,0,1,.967-1.179,1.1,1.1,0,0,1,1.183.967c.164,1.675.246,3.342.246,4.957l-.009,1.019c-.022.946-.069,1.883-.151,2.824A1.081,1.081,0,0,1,33.75,157.133Zm317.823-7.479a1.151,1.151,0,0,1-.488-.112,1.083,1.083,0,0,1-.479-1.451,57.392,57.392,0,0,0,3.234-7.807,1.08,1.08,0,0,1,2.051.678,60.286,60.286,0,0,1-3.355,8.1A1.086,1.086,0,0,1,351.573,149.654Zm-319.36-9.616a1.082,1.082,0,0,1-1.054-.833c-.6-2.565-1.377-5.246-2.353-8.183a1.079,1.079,0,1,1,2.047-.682c1,3,1.783,5.739,2.41,8.368a1.075,1.075,0,0,1-.8,1.3A.988.988,0,0,1,32.212,140.037Zm324.71-6.689a.93.93,0,0,1-.186-.017,1.075,1.075,0,0,1-.876-1.248c.117-.686.216-1.373.3-2.068a55.916,55.916,0,0,0,.423-6.33,1.078,1.078,0,0,1,1.079-1.071h.009a1.08,1.08,0,0,1,1.071,1.088,58.364,58.364,0,0,1-.44,6.581c-.086.73-.194,1.451-.32,2.172A1.082,1.082,0,0,1,356.923,133.349ZM26.9,123.664a1.08,1.08,0,0,1-1.006-.691c-1.019-2.634-2.1-5.294-3.191-7.98a1.079,1.079,0,1,1,1.995-.82c1.105,2.7,2.185,5.376,3.213,8.023a1.082,1.082,0,0,1-.622,1.395A1.018,1.018,0,0,1,26.9,123.664Zm330.229-7.487a1.076,1.076,0,0,1-1.071-.933,67.044,67.044,0,0,0-1.654-8.312,1.08,1.08,0,1,1,2.09-.548,69.747,69.747,0,0,1,1.706,8.571,1.081,1.081,0,0,1-.928,1.213C357.216,116.172,357.169,116.176,357.125,116.176Zm-336.662-8.5a1.085,1.085,0,0,1-1-.682l-.54-1.352c-.833-2.124-1.684-4.383-2.522-6.753a1.078,1.078,0,0,1,2.034-.717c.829,2.345,1.671,4.577,2.5,6.676l.536,1.347a1.079,1.079,0,0,1-.6,1.4A1.1,1.1,0,0,1,20.463,107.674ZM352.8,99.543a1.085,1.085,0,0,1-1.01-.7c-.989-2.591-2.137-5.216-3.411-7.807a1.082,1.082,0,0,1,1.943-.954c1.3,2.651,2.474,5.341,3.485,7.993a1.072,1.072,0,0,1-.622,1.39A1.028,1.028,0,0,1,352.8,99.543ZM14.785,91.408a1.078,1.078,0,0,1-1.036-.782c-.82-2.863-1.529-5.7-2.1-8.437a1.085,1.085,0,0,1,.838-1.278,1.108,1.108,0,0,1,1.278.842c.561,2.677,1.252,5.462,2.064,8.278a1.078,1.078,0,0,1-.738,1.334A1.065,1.065,0,0,1,14.785,91.408Zm330.47-7.341a1.082,1.082,0,0,1-.933-.531c-.579-.985-1.174-1.965-1.792-2.954-.9-1.438-1.831-2.863-2.79-4.262a1.08,1.08,0,1,1,1.788-1.213q1.451,2.137,2.833,4.331c.626,1,1.239,2,1.827,3a1.089,1.089,0,0,1-.384,1.481A1.1,1.1,0,0,1,345.255,84.067ZM11.309,74.546a1.078,1.078,0,0,1-1.071-.954A80.51,80.51,0,0,1,9.69,64.87a1.073,1.073,0,0,1,1.075-1.08h0a1.079,1.079,0,0,1,1.079,1.075,78.192,78.192,0,0,0,.531,8.472,1.08,1.08,0,0,1-.946,1.2Zm324.274-4.728a1.075,1.075,0,0,1-.855-.423c-1.727-2.241-3.554-4.465-5.419-6.611a1.079,1.079,0,1,1,1.628-1.416c1.9,2.176,3.744,4.435,5.505,6.715a1.08,1.08,0,0,1-.859,1.736ZM11.244,57.352l-.13-.009a1.079,1.079,0,0,1-.941-1.2,60.385,60.385,0,0,1,1.684-8.6,1.091,1.091,0,0,1,1.321-.76,1.079,1.079,0,0,1,.76,1.326A58.834,58.834,0,0,0,12.315,56.4,1.074,1.074,0,0,1,11.244,57.352Zm313.034-.531a1.069,1.069,0,0,1-.768-.324c-2-2.047-4.068-4.042-6.153-5.946a1.08,1.08,0,1,1,1.459-1.593c2.111,1.926,4.21,3.96,6.235,6.028a1.079,1.079,0,0,1-.017,1.529A1.065,1.065,0,0,1,324.278,56.821ZM311.558,45.21a1.1,1.1,0,0,1-.682-.242c-2.189-1.783-4.469-3.536-6.779-5.216a1.077,1.077,0,0,1,1.265-1.744c2.345,1.7,4.659,3.476,6.878,5.281a1.088,1.088,0,0,1,.156,1.524A1.074,1.074,0,0,1,311.558,45.21Zm-295.745-4.4a1.077,1.077,0,0,1-.985-1.52,55.988,55.988,0,0,1,4.21-7.695,1.078,1.078,0,1,1,1.8,1.179,54.344,54.344,0,0,0-4.05,7.4A1.067,1.067,0,0,1,15.813,40.805Zm281.8-5.713a1.053,1.053,0,0,1-.579-.173c-2.418-1.546-4.879-3.04-7.323-4.426a1.079,1.079,0,0,1,1.062-1.878c2.483,1.408,4.979,2.919,7.423,4.491a1.079,1.079,0,0,1-.583,1.986Zm-14.979-8.5a1.161,1.161,0,0,1-.484-.112c-2.539-1.265-5.156-2.47-7.764-3.588a1.078,1.078,0,0,1,.851-1.982c2.643,1.131,5.294,2.358,7.876,3.64a1.078,1.078,0,0,1-.479,2.042ZM25.187,26.444a1.08,1.08,0,0,1-.8-1.8A61.476,61.476,0,0,1,30.7,18.572a1.079,1.079,0,0,1,1.524.138,1.09,1.09,0,0,1-.143,1.524,59.817,59.817,0,0,0-6.1,5.851A1.068,1.068,0,0,1,25.187,26.444ZM266.8,19.8a1.078,1.078,0,0,1-.367-.065c-2.655-.959-5.385-1.865-8.122-2.69a1.076,1.076,0,0,1-.721-1.343,1.062,1.062,0,0,1,1.343-.721c2.772.829,5.544,1.749,8.234,2.725A1.079,1.079,0,0,1,266.8,19.8ZM38.361,15.415a1.078,1.078,0,0,1-.574-1.991A76.506,76.506,0,0,1,45.43,9.189a1.081,1.081,0,0,1,.937,1.947,74.862,74.862,0,0,0-7.427,4.111A1.048,1.048,0,0,1,38.361,15.415ZM250.3,14.858a.974.974,0,0,1-.246-.026c-2.763-.656-5.583-1.239-8.381-1.736a1.08,1.08,0,0,1-.872-1.252,1.058,1.058,0,0,1,1.252-.872c2.837.5,5.7,1.1,8.5,1.757a1.079,1.079,0,0,1-.25,2.129Zm-77.21-2.474a1.08,1.08,0,0,1-.009-2.159c2.846-.022,5.7-.095,8.576-.212a1.175,1.175,0,0,1,1.123,1.041,1.083,1.083,0,0,1-1.036,1.118c-2.906.117-5.773.19-8.645.212Zm-8.619-.147h-.052c-.678-.035-1.351-.069-2.012-.112-2.219-.138-4.422-.328-6.637-.561A1.081,1.081,0,1,1,156,9.413c2.176.233,4.357.423,6.542.557.656.039,1.317.073,1.986.108a1.08,1.08,0,0,1-.056,2.159Zm68.868-.376-.125-.009c-2.383-.268-4.78-.488-7.176-.643l-1.343-.078a1.081,1.081,0,1,1,.116-2.159l1.369.086q3.646.233,7.28.652a1.079,1.079,0,0,1-.121,2.15Zm-43.029-.091a1.08,1.08,0,0,1-.056-2.159l8.606-.449a1.081,1.081,0,0,1,.112,2.159l-8.606.449Zm17.216-.79a1.08,1.08,0,0,1-.03-2.159c2.427-.069,4.879-.112,7.306-.1l1.347,0a1.08,1.08,0,0,1-.009,2.159h-.009l-1.33,0c-2.366-.026-4.836.035-7.246.1Zm-60.18-.535a1,1,0,0,1-.16-.013c-2.828-.427-5.665-.911-8.532-1.421a1.078,1.078,0,0,1-.872-1.252,1.062,1.062,0,0,1,1.252-.872q4.275.764,8.472,1.412a1.079,1.079,0,0,1-.16,2.146ZM53.841,7.906a1.079,1.079,0,0,1-.367-2.094c2.694-.976,5.5-1.844,8.329-2.578a1.093,1.093,0,0,1,1.317.777,1.081,1.081,0,0,1-.777,1.313c-2.764.717-5.5,1.567-8.135,2.517A1.078,1.078,0,0,1,53.841,7.906Zm76.269-.462c-2.8-.518-5.6-1.041-8.412-1.542a1.079,1.079,0,1,1,.38-2.124c2.82.5,5.618,1.019,8.394,1.537l-.1,1.08ZM113.391,4.491a1.094,1.094,0,0,1-.164-.013q-4.21-.654-8.493-1.17a1.078,1.078,0,1,1,.25-2.142c2.88.341,5.739.743,8.571,1.179a1.079,1.079,0,0,1-.164,2.146ZM70.5,3.562a1.079,1.079,0,0,1-.181-2.142C73.169.937,76.075.574,78.968.332a1.049,1.049,0,0,1,1.162.989,1.075,1.075,0,0,1-.984,1.162c-2.833.237-5.678.6-8.459,1.062A.918.918,0,0,1,70.5,3.562ZM96.279,2.5l-.078,0c-2.548-.177-5.1-.285-7.57-.328l-.971-.009A1.08,1.08,0,0,1,87.669,0h.009l.98.009c2.526.043,5.108.155,7.695.337A1.079,1.079,0,0,1,96.279,2.5Z"
                  data-name="Path 1123"
                  fill="#ff3645"
                  id="Path_1123" transform="translate(6565.874 1754.342) rotate(13)"/>
            <path d="M12.949,32.538C22.185,9.67,49.76-.378,74.42.011s48.629,8.433,73.246,9.936c21.171,1.3,42.42-2.271,63.587-.915C254.347,11.8,295.49,36.3,318.448,72.869c7.833,12.475,13.753,27.022,11.909,41.63-3.005,23.8-25.489,40.507-48.146,48.4s-47.217,9.962-69.075,19.846c-20.048,9.063-36.682,24.19-52.14,39.842s-30.248,32.2-48.06,45.115S73.6,289.806,51.647,288.32,7.811,272.737,1.791,251.574c-5.406-19,2.323-39.117,11.223-56.752s19.375-35.529,19.807-55.279c.41-18.507-8.083-35.853-14.863-53.077S6.01,49.7,12.949,32.538Z"
                  data-name="Path 1116"
                  fill="#ff3645"
                  id="Path_1116" opacity="0.4" transform="translate(6576.379 1771.168) rotate(13)"/>
        </g>
    </g>
</svg>
