<svg height="72" viewBox="0 0 73 72" width="73" xmlns="http://www.w3.org/2000/svg">
    <g data-name="Group 891" id="Group_891" transform="translate(-50 -33)">
        <rect data-name="Rectangle 172" fill="#959595" height="72" id="Rectangle_172" opacity="0.3" rx="18"
              transform="translate(50 33)" width="73"/>
        <path d="M5489.313,1738.97a2.313,2.313,0,0,1,0-4.627h29.334a2.313,2.313,0,0,1,0,4.627Zm0-9.172a2.313,2.313,0,0,1,0-4.627h29.649a2.313,2.313,0,1,1,0,4.627Zm0-9.172a2.313,2.313,0,0,1,0-4.627h29.373a2.313,2.313,0,0,1,0,4.627Z"
              data-name="Rounded Rectangle 1 copy 2"
              fill="#fff"
              id="Rounded_Rectangle_1_copy_2" transform="translate(-5418 -1658)"/>
    </g>
</svg>
