<svg height="72" viewBox="0 0 73 72" width="73" xmlns="http://www.w3.org/2000/svg">
    <g data-name="Group 892" id="Group_892" transform="translate(-627 -33)">
        <rect data-name="Rectangle 184" fill="#FCEBEC" height="72" id="Rectangle_184" opacity="0.3" rx="18"
              transform="translate(627 33)" width="73"/>
        <g id="bell" transform="translate(645 46.277)">
            <path d="M140.457,424.55a7.132,7.132,0,0,1-7.125-7.125,1.425,1.425,0,1,1,2.85,0,4.275,4.275,0,0,0,8.55,0,1.425,1.425,0,0,1,2.85,0A7.132,7.132,0,0,1,140.457,424.55Zm0,0"
                  data-name="Path 1029"
                  fill="#E63946"
                  id="Path_1029" transform="translate(-121.457 -378.95)"/>
            <path d="M34.675,98.2H3.325a3.326,3.326,0,0,1-2.162-5.852A12.733,12.733,0,0,0,5.7,82.6V77.3a13.3,13.3,0,0,1,26.6,0v5.3a12.73,12.73,0,0,0,4.518,9.737A3.324,3.324,0,0,1,34.675,98.2ZM19,66.85A10.461,10.461,0,0,0,8.55,77.3v5.3A15.572,15.572,0,0,1,3.021,94.511a.473.473,0,0,0-.171.365.48.48,0,0,0,.475.475h31.35a.48.48,0,0,0,.475-.475.469.469,0,0,0-.167-.361A15.577,15.577,0,0,1,29.45,82.6V77.3A10.461,10.461,0,0,0,19,66.85Zm0,0"
                  data-name="Path 1030"
                  fill="#E63946"
                  id="Path_1030" transform="translate(0 -58.3)"/>
            <path d="M198.757,8.55a1.426,1.426,0,0,1-1.425-1.425v-5.7a1.425,1.425,0,1,1,2.85,0v5.7A1.426,1.426,0,0,1,198.757,8.55Zm0,0"
                  data-name="Path 1031"
                  fill="#E63946"
                  id="Path_1031" transform="translate(-179.757)"/>
        </g>
    </g>
</svg>
