<svg height="99" viewBox="0 0 99 99" width="99"
     xmlns="http://www.w3.org/2000/svg">
    <defs>
        <filter filterUnits="userSpaceOnUse" height="99" id="Ellipse_65" width="99" x="0" y="0">
            <feOffset dy="5" input="SourceAlpha"/>
            <feGaussianBlur result="blur" stdDeviation="5.5"/>
            <feFlood flood-color="#929292" flood-opacity="0.161"/>
            <feComposite in2="blur" operator="in"/>
            <feComposite in="SourceGraphic"/>
        </filter>
    </defs>
    <g id="practice_pearls" transform="translate(-76.5 -756.5)">
        <g filter="url(#Ellipse_65)" transform="matrix(1, 0, 0, 1, 76.5, 756.5)">
            <circle cx="33" cy="33" data-name="Ellipse 65" fill="#fff" id="Ellipse_65-2" r="33"
                    transform="translate(16.5 11.5)"/>
        </g>
        <g id="material" transform="translate(145.085 781.769) rotate(90)">
            <path d="M391,38.47V70.39a18.785,18.785,0,0,0,0-31.92Z" data-name="Path 1336" fill="#f54a50"
                  id="Path_1336" transform="translate(-362.313 -35.231)"/>
            <path d="M331,47.1a18.636,18.636,0,0,0,2.2-.828V12a18.636,18.636,0,0,0-2.2-.828Z" data-name="Path 1337"
                  fill="#f54a50"
                  id="Path_1337" transform="translate(-306.715 -9.939)"/>
            <path d="M271,37.948a18.824,18.824,0,0,0,2.2-.257V.706A18.824,18.824,0,0,0,271,.449Z" data-name="Path 1338"
                  fill="#f54a50"
                  id="Path_1338" transform="translate(-251.117 0)"/>
            <path d="M0,54.43A18.769,18.769,0,0,0,8.878,70.39V38.47A18.769,18.769,0,0,0,0,54.43Z" data-name="Path 1339"
                  fill="#f54a50"
                  id="Path_1339" transform="translate(0 -35.231)"/>
            <path d="M211,37.691a18.825,18.825,0,0,0,2.2.257V.449a18.841,18.841,0,0,0-2.2.257Z" data-name="Path 1340"
                  fill="#f54a50"
                  id="Path_1340" transform="translate(-195.519 0)"/>
            <path d="M151,46.271a18.653,18.653,0,0,0,2.2.828V11.174A18.654,18.654,0,0,0,151,12Z" data-name="Path 1341"
                  fill="#f54a50"
                  id="Path_1341" transform="translate(-139.921 -9.938)"/>
        </g>
    </g>
</svg>
