<svg height="99" viewBox="0 0 99 99" width="99"
     xmlns="http://www.w3.org/2000/svg">
    <defs>
        <filter filterUnits="userSpaceOnUse" height="99" id="Ellipse_75" width="99" x="0" y="0">
            <feOffset dy="5" input="SourceAlpha"/>
            <feGaussianBlur result="blur" stdDeviation="5.5"/>
            <feFlood flood-color="#929292" flood-opacity="0.161"/>
            <feComposite in2="blur" operator="in"/>
            <feComposite in="SourceGraphic"/>
        </filter>
    </defs>
    <g id="word_of_day" transform="translate(-76.5 -488.5)">
        <g filter="url(#Ellipse_75)" transform="matrix(1, 0, 0, 1, 76.5, 488.5)">
            <circle cx="33" cy="33" data-name="Ellipse 75" fill="#fff" id="Ellipse_75-2" r="33"
                    transform="translate(16.5 11.5)"/>
        </g>
        <g data-name="interface (4)" id="interface_4_" transform="translate(106.113 499.355)">
            <g data-name="Group 740" id="Group_740" transform="translate(0 15.989)">
                <path d="M38.531,20.963H22.373V17.234a1.24,1.24,0,0,0-.45-.957,1.221,1.221,0,0,0-1.022-.264L1.014,19.742A1.239,1.239,0,0,0,0,20.963V48.307a1.241,1.241,0,0,0,1.014,1.221L20.9,53.257a1.17,1.17,0,0,0,.229.022,1.243,1.243,0,0,0,1.243-1.243V48.307H38.531a1.243,1.243,0,0,0,1.243-1.243V22.206A1.243,1.243,0,0,0,38.531,20.963ZM17.394,29.8,16.151,40.989a1.244,1.244,0,0,1-1.081,1.094,1.07,1.07,0,0,1-.154.01,1.246,1.246,0,0,1-1.163-.805l-2.565-6.841L8.621,41.287a1.243,1.243,0,0,1-2.394-.264l-1.243-8.7a1.243,1.243,0,0,1,2.461-.351L8,35.861l2.021-5.392a1.3,1.3,0,0,1,2.329,0l1.9,5.076.669-6.021a1.243,1.243,0,0,1,2.471.276ZM37.288,45.822H22.373V43.336H33.559a1.243,1.243,0,1,0,0-2.486H22.373V38.364H33.559a1.243,1.243,0,1,0,0-2.486H22.373V33.392H33.559a1.243,1.243,0,1,0,0-2.486H22.373V28.42H33.559a1.243,1.243,0,0,0,0-2.486H22.373V23.449H37.288Z"
                      data-name="Path 1333"
                      fill="#f54a50"
                      id="Path_1333" transform="translate(0 -15.989)"/>
            </g>
        </g>
    </g>
</svg>
