<svg xmlns="http://www.w3.org/2000/svg" xmlns:xlink="http://www.w3.org/1999/xlink" width="244" height="220" viewBox="0 0 244 220">
  <defs>
    <filter id="Rounded_Rectangle_7_copy_11" x="0" y="0" width="244" height="220" filterUnits="userSpaceOnUse">
      <feOffset input="SourceAlpha"/>
      <feGaussianBlur stdDeviation="7" result="blur"/>
      <feFlood flood-opacity="0.2"/>
      <feComposite operator="in" in2="blur"/>
      <feComposite in="SourceGraphic"/>
    </filter>
  </defs>
  <g id="Group_37739" data-name="Group 37739" transform="translate(-253 -1736)">
    <g transform="matrix(1, 0, 0, 1, 253, 1736)" filter="url(#Rounded_Rectangle_7_copy_11)">
      <path id="Rounded_Rectangle_7_copy_11-2" data-name="Rounded Rectangle 7 copy 11" d="M20,0H142a60,60,0,0,1,60,60v98a20,20,0,0,1-20,20H20A20,20,0,0,1,0,158V20A20,20,0,0,1,20,0Z" transform="translate(21 21)" fill="#2e2f34"/>
    </g>
    <text id="Nursing_Tool_Kit" data-name="Nursing Tool Kit" transform="translate(288 1900)" fill="#fff" font-size="17" font-family="Montserrat-SemiBold, Montserrat" font-weight="600"><tspan x="0" y="0">Nursing Tool Kit</tspan></text>
    <g id="_x34_6_First_aid_kit" transform="translate(288 1744.311)">
      <g id="Group_2338" data-name="Group 2338" transform="translate(0 33.254)">
        <g id="Group_2337" data-name="Group 2337" transform="translate(4.709 0.228)">
          <path id="Path_24788" data-name="Path 24788" d="M58.109,76.145v1.53H53.768v-1.53a.819.819,0,0,1,.819-.819h2.7A.819.819,0,0,1,58.109,76.145Z" transform="translate(-53.768 -71.87)" fill="#6d6d6d"/>
          <path id="Path_24789" data-name="Path 24789" d="M413.007,76.145v1.53h-4.341v-1.53a.819.819,0,0,1,.819-.819h2.7A.819.819,0,0,1,413.007,76.145Z" transform="translate(-377.587 -71.87)" fill="#6d6d6d"/>
          <path id="Path_24790" data-name="Path 24790" d="M186.572,44.16H173.919a.944.944,0,0,1-.944-.944v-5a2.363,2.363,0,0,1,2.361-2.361h9.82a2.363,2.363,0,0,1,2.361,2.361v5A.944.944,0,0,1,186.572,44.16Zm-11.708-1.889h10.764V38.218a.473.473,0,0,0-.472-.472h-9.82a.473.473,0,0,0-.472.472v4.054Z" transform="translate(-162.536 -35.857)" fill="#6d6d6d"/>
        </g>
        <path id="Path_24791" data-name="Path 24791" d="M46.207,436.365V438.9a.944.944,0,0,1-.944.944H41.085a.944.944,0,0,1-.944-.944v-2.539Z" transform="translate(-36.626 -401.064)" fill="#ea4e4e"/>
        <path id="Path_24792" data-name="Path 24792" d="M408.652,436.365V438.9a.944.944,0,0,1-.944.944H403.53a.944.944,0,0,1-.944-.944v-2.539Z" transform="translate(-367.331 -401.064)" fill="#ea4e4e"/>
        <path id="Path_24793" data-name="Path 24793" d="M46.991,99.167v27.277a1.888,1.888,0,0,1-1.888,1.888H4.5a1.888,1.888,0,0,1-1.888-1.888V99.167A1.888,1.888,0,0,1,4.5,97.279H45.1A1.888,1.888,0,0,1,46.991,99.167Z" transform="translate(-2.383 -91.672)" fill="#f96464"/>
        <path id="Path_24794" data-name="Path 24794" d="M26.005,129.535a.944.944,0,0,1-.944-.944V125.2a.944.944,0,0,1,1.889,0v3.389A.944.944,0,0,1,26.005,129.535Z" transform="translate(-22.866 -116.289)" fill="#fff" opacity="0.4"/>
        <path id="Path_24795" data-name="Path 24795" d="M455.13,99.189v27.274a1.888,1.888,0,0,1-1.888,1.888h-3.319a1.888,1.888,0,0,0,1.888-1.888V99.189a1.888,1.888,0,0,0-1.888-1.888h3.319A1.888,1.888,0,0,1,455.13,99.189Z" transform="translate(-410.522 -91.692)" opacity="0.08"/>
        <circle id="Ellipse_386" data-name="Ellipse 386" cx="10.139" cy="10.139" r="10.139" transform="translate(12.28 10.994)" fill="#f2f0f0"/>
        <path id="Path_24796" data-name="Path 24796" d="M191.9,202.627v2.058a.944.944,0,0,1-.944.944h-3.89v3.886a.944.944,0,0,1-.944.944h-2.058a.944.944,0,0,1-.944-.944V205.63h-3.886a.944.944,0,0,1-.944-.944v-2.058a.944.944,0,0,1,.944-.944h3.886v-3.89a.944.944,0,0,1,.944-.944h2.058a.944.944,0,0,1,.944.944v3.89h3.89A.944.944,0,0,1,191.9,202.627Z" transform="translate(-162.671 -182.522)" fill="#ffce29"/>
        <path id="Path_24797" data-name="Path 24797" d="M42.72,38.632H40.358v-.874a1.049,1.049,0,0,0-1.048-1.048h-2.7a1.049,1.049,0,0,0-1.048,1.048v.874H29.917V35.843a2.593,2.593,0,0,0-2.59-2.589H17.509a2.593,2.593,0,0,0-2.59,2.589v2.788H9.279v-.874A1.049,1.049,0,0,0,8.231,36.71h-2.7a1.049,1.049,0,0,0-1.048,1.048v.874H2.117A2.12,2.12,0,0,0,0,40.749V68.026a2.12,2.12,0,0,0,2.117,2.117h1.17V71.1a1.173,1.173,0,0,0,1.171,1.171H8.638A1.174,1.174,0,0,0,9.812,71.1v-.952H35.025V71.1A1.174,1.174,0,0,0,36.2,72.267h4.179A1.173,1.173,0,0,0,41.55,71.1v-.952h1.17a2.12,2.12,0,0,0,2.117-2.117V40.749a2.12,2.12,0,0,0-2.117-2.117Zm-6.7-.874a.591.591,0,0,1,.59-.59h2.7a.591.591,0,0,1,.59.59v.874H36.016ZM15.377,35.843a2.134,2.134,0,0,1,2.132-2.132h9.818a2.134,2.134,0,0,1,2.132,2.132v2.788H28.03V35.843a.7.7,0,0,0-.7-.7H17.509a.7.7,0,0,0-.7.7v2.788h-1.43V35.843Zm1.887,2.789V35.843a.245.245,0,0,1,.245-.245h9.818a.245.245,0,0,1,.245.245v2.788H17.265ZM4.937,37.758a.591.591,0,0,1,.59-.59h2.7a.591.591,0,0,1,.59.59v.874H4.937ZM9.354,71.1a.716.716,0,0,1-.716.714H4.459a.714.714,0,0,1-.714-.714v-.952H9.354V71.1Zm31.738,0a.714.714,0,0,1-.714.714H36.2a.716.716,0,0,1-.716-.714v-.952h5.609V71.1Zm3.287-3.07a1.662,1.662,0,0,1-1.66,1.66H2.117a1.662,1.662,0,0,1-1.66-1.66V40.749a1.662,1.662,0,0,1,1.66-1.66h40.6a1.662,1.662,0,0,1,1.66,1.66Z" transform="translate(0 -33.254)"/>
        <path id="Path_24798" data-name="Path 24798" d="M147.981,156.179a10.367,10.367,0,1,0,10.367,10.367A10.379,10.379,0,0,0,147.981,156.179Zm0,20.277a9.91,9.91,0,1,1,9.91-9.91A9.921,9.921,0,0,1,147.981,176.456Z" transform="translate(-125.563 -145.414)"/>
        <path id="Path_24799" data-name="Path 24799" d="M188.57,199.072h-3.661v-3.661a1.174,1.174,0,0,0-1.173-1.173h-2.058a1.174,1.174,0,0,0-1.173,1.173v3.662h-3.657a1.174,1.174,0,0,0-1.173,1.173V202.3a1.174,1.174,0,0,0,1.173,1.173H180.5v3.657a1.174,1.174,0,0,0,1.173,1.173h2.058a1.174,1.174,0,0,0,1.173-1.173v-3.657h3.661a1.174,1.174,0,0,0,1.173-1.173v-2.058A1.174,1.174,0,0,0,188.57,199.072Zm.715,3.231a.716.716,0,0,1-.715.716h-3.89a.229.229,0,0,0-.229.229v3.886a.716.716,0,0,1-.715.715h-2.059a.716.716,0,0,1-.715-.715v-3.886a.229.229,0,0,0-.229-.229h-3.886a.716.716,0,0,1-.715-.716v-2.058a.716.716,0,0,1,.715-.716h3.886a.229.229,0,0,0,.229-.229v-3.89a.716.716,0,0,1,.715-.715h2.058a.716.716,0,0,1,.715.715v3.89a.229.229,0,0,0,.229.229h3.89a.716.716,0,0,1,.715.716V202.3Z" transform="translate(-160.29 -180.14)"/>
      </g>
    </g>
  </g>
</svg>
