<svg xmlns="http://www.w3.org/2000/svg" xmlns:xlink="http://www.w3.org/1999/xlink" width="244" height="220" viewBox="0 0 244 220">
  <defs>
    <filter id="Rounded_Rectangle_7_copy_11" x="0" y="0" width="244" height="220" filterUnits="userSpaceOnUse">
      <feOffset input="SourceAlpha"/>
      <feGaussianBlur stdDeviation="7" result="blur"/>
      <feFlood flood-opacity="0.2"/>
      <feComposite operator="in" in2="blur"/>
      <feComposite in="SourceGraphic"/>
    </filter>
  </defs>
  <g id="Group_37738" data-name="Group 37738" transform="translate(-477 -1736)">
    <g transform="matrix(1, 0, 0, 1, 477, 1736)" filter="url(#Rounded_Rectangle_7_copy_11)">
      <path id="Rounded_Rectangle_7_copy_11-2" data-name="Rounded Rectangle 7 copy 11" d="M20,0H142a60,60,0,0,1,60,60v98a20,20,0,0,1-20,20H20A20,20,0,0,1,0,158V20A20,20,0,0,1,20,0Z" transform="translate(21 21)" fill="#2e2f34"/>
    </g>
    <text id="Under_Graduate_Unsolved_University_Questions" data-name="Under Graduate 
Unsolved University 
Questions" transform="translate(512 1876)" fill="#fff" font-size="17" font-family="Montserrat-SemiBold, Montserrat" font-weight="600"><tspan x="0" y="0">Under Graduate </tspan><tspan x="0" y="20">Unsolved University </tspan><tspan x="0" y="40">Questions</tspan></text>
    <g id="college" transform="translate(514 1781)">
      <path id="Path_24554" data-name="Path 24554" d="M33.18,16.59A16.59,16.59,0,1,1,16.59,0,16.59,16.59,0,0,1,33.18,16.59Z" fill="#51489a"/>
      <path id="Path_24555" data-name="Path 24555" d="M72.7,21.435a53.826,53.826,0,0,1,12.263,1.408A26.72,26.72,0,0,1,72.7,50.411,26.72,26.72,0,0,1,60.439,22.843,53.826,53.826,0,0,1,72.7,21.435Z" transform="translate(-56.112 -20.046)" fill="#ff9100"/>
      <path id="Path_24556" data-name="Path 24556" d="M243.948,22.843a26.723,26.723,0,0,1-7.9,24.213A23.7,23.7,0,0,1,230,30.739a25.882,25.882,0,0,1,1.691-9.3A53.828,53.828,0,0,1,243.948,22.843Z" transform="translate(-215.095 -20.046)" fill="#ffb52d"/>
      <path id="Path_24557" data-name="Path 24557" d="M76.25,13.374l-.077-.417-.413-.1a54.772,54.772,0,0,0-24.821,0l-.413.1-.077.417A27.324,27.324,0,0,0,63.01,41.611l.34.209.34-.209A27.368,27.368,0,0,0,76.25,13.374ZM63.35,40.295A25.876,25.876,0,0,1,51.3,18.333a26.3,26.3,0,0,1,.355-4.307,53.494,53.494,0,0,1,23.4,0,26.3,26.3,0,0,1,.355,4.307A25.875,25.875,0,0,1,63.35,40.295Z" transform="translate(-46.76 -10.694)" fill="#ffcd71"/>
      <path id="Path_24558" data-name="Path 24558" d="M131,77.1a8.1,8.1,0,1,1,13.75,5.805,1.644,1.644,0,0,1-1.4.446,28.229,28.229,0,0,0-8.478,0,1.678,1.678,0,0,1-1.429-.45A8.076,8.076,0,0,1,131,77.1Z" transform="translate(-122.514 -64.529)" fill="#ffd993"/>
      <path id="Path_24559" data-name="Path 24559" d="M174.192,247.571a8.074,8.074,0,0,1,5.669,2.314,8.1,8.1,0,0,1-11.338,0A8.074,8.074,0,0,1,174.192,247.571Z" transform="translate(-157.602 -231.527)" fill="#ffcd71"/>
      <path id="Path_24560" data-name="Path 24560" d="M140.9,142.476h-.454v-6.721h.454Z" transform="translate(-131.343 -126.957)" fill="#453d83"/>
      <path id="Path_24561" data-name="Path 24561" d="M126.854,227.884a7.6,7.6,0,0,1-2.545,0l.695-3.335a.509.509,0,0,1-.094-.3V223.9a.512.512,0,0,1,.512-.512h.321a.512.512,0,0,1,.512.512v.355a.509.509,0,0,1-.094.3Z" transform="translate(-116.253 -208.91)" fill="#51489a"/>
      <path id="Path_24562" data-name="Path 24562" d="M133.537,222.733a.775.775,0,1,1-.775-.775A.775.775,0,0,1,133.537,222.733Z" transform="translate(-123.434 -207.574)" fill="#5f55af"/>
      <path id="Path_24563" data-name="Path 24563" d="M175.937,158.146a.673.673,0,0,1-.417.491,11.41,11.41,0,0,1-8.078,0,.673.673,0,0,1-.417-.491l-1.424-6.835h11.761Z" transform="translate(-154.868 -141.505)" fill="#51489a"/>
      <path id="Path_24564" data-name="Path 24564" d="M170.672,159.348a11.15,11.15,0,0,1-3.232-.711.673.673,0,0,1-.417-.491l-1.424-6.835h4.067q-.068.813-.068,1.647A19.275,19.275,0,0,0,170.672,159.348Z" transform="translate(-154.867 -141.505)" fill="#453d83"/>
      <path id="Path_24565" data-name="Path 24565" d="M141.244,87.039,133.6,90.2a2.016,2.016,0,0,1-1.543,0l-7.642-3.164a.235.235,0,0,1,0-.435l7.642-3.164a2.016,2.016,0,0,1,1.543,0l7.642,3.164A.235.235,0,0,1,141.244,87.039Z" transform="translate(-116.219 -77.889)" fill="#5f55af"/>
      <path id="Path_24566" data-name="Path 24566" d="M226.93,87.039l-4.565,1.89c-3.719-.393-6.47-1.789-6.47-3.452a2.228,2.228,0,0,1,1.048-1.705l.8-.332a2.016,2.016,0,0,1,1.543,0L226.93,86.6A.235.235,0,0,1,226.93,87.039Z" transform="translate(-201.904 -77.889)" fill="#6a61b4"/>
      <path id="Path_24567" data-name="Path 24567" d="M334.335,103.478l-.627.292a.13.13,0,0,0-.049.039l-.417.551a.13.13,0,0,1-.221-.024l-.292-.627a.13.13,0,0,0-.039-.049l-.551-.417a.13.13,0,0,1,.024-.221l.627-.292a.13.13,0,0,0,.049-.039l.417-.551a.13.13,0,0,1,.221.024l.292.627a.13.13,0,0,0,.039.049l.551.417A.13.13,0,0,1,334.335,103.478Z" transform="translate(-310.568 -95.474)" fill="#ffe7c0"/>
      <path id="Path_24568" data-name="Path 24568" d="M211.82,28.284l1.141-.334a.13.13,0,0,1,.161.161l-.334,1.141a.129.129,0,0,0,0,.073l.334,1.141a.13.13,0,0,1-.161.161l-1.141-.334a.129.129,0,0,0-.073,0l-1.141.334a.13.13,0,0,1-.161-.161l.334-1.141a.13.13,0,0,0,0-.073l-.334-1.141a.13.13,0,0,1,.161-.161l1.141.334A.13.13,0,0,0,211.82,28.284Zm-8.563,16.83-.417.551a.13.13,0,0,1-.049.039l-.627.292a.13.13,0,0,0-.024.221l.551.417a.13.13,0,0,1,.039.049l.292.627a.13.13,0,0,0,.221.024l.417-.551a.13.13,0,0,1,.049-.039l.627-.292a.13.13,0,0,0,.024-.221l-.551-.417a.13.13,0,0,1-.039-.049l-.292-.627A.13.13,0,0,0,203.257,45.114Z" transform="translate(-188.994 -26.134)" fill="#fff"/>
      <path id="Path_24569" data-name="Path 24569" d="M79.332,255.887a3.743,3.743,0,0,1-1.728,2.4A4.063,4.063,0,0,1,75,259.14q-.308.376-.643.735a15.074,15.074,0,0,1-1.624,1.5,3.665,3.665,0,0,1,2.8.449,3.743,3.743,0,0,1-2.559,1.482A4.011,4.011,0,0,1,70.21,263a14.994,14.994,0,0,1-2.338.953q.269.022.54.034a.324.324,0,0,1-.029.647,15.524,15.524,0,0,1-2.2-.258,15.541,15.541,0,0,1-2.2.258.324.324,0,1,1-.029-.647q.272-.012.54-.034A15,15,0,0,1,62.147,263a4.011,4.011,0,0,1-2.763.309,3.743,3.743,0,0,1-2.559-1.482,3.665,3.665,0,0,1,2.8-.449,15.069,15.069,0,0,1-1.624-1.5q-.335-.359-.643-.735a4.063,4.063,0,0,1-2.607-.854,3.743,3.743,0,0,1-1.728-2.4,3.585,3.585,0,0,1,2.637.668,14.334,14.334,0,0,1-1.57-7.229.324.324,0,0,1,.647.029,13.72,13.72,0,0,0,2.46,8.479,5.349,5.349,0,0,1-.156-1.329,3.743,3.743,0,0,1,.984-2.788,3.743,3.743,0,0,1,.961,2.8,4.1,4.1,0,0,1-.787,2.6,14.371,14.371,0,0,0,3.3,2.77,5.1,5.1,0,0,1-.908-1.47,3.743,3.743,0,0,1-.169-2.952,3.743,3.743,0,0,1,1.966,2.209,3.928,3.928,0,0,1,.228,2.828,14.443,14.443,0,0,0,3.564,1.216,14.446,14.446,0,0,0,3.564-1.216,3.928,3.928,0,0,1,.228-2.828,3.743,3.743,0,0,1,1.966-2.209,3.743,3.743,0,0,1-.169,2.952,5.093,5.093,0,0,1-.908,1.47,14.373,14.373,0,0,0,3.3-2.77,4.1,4.1,0,0,1-.787-2.6,3.743,3.743,0,0,1,.961-2.8,3.743,3.743,0,0,1,.984,2.788,5.346,5.346,0,0,1-.156,1.329,13.721,13.721,0,0,0,2.46-8.479.324.324,0,0,1,.647-.029,14.333,14.333,0,0,1-1.57,7.229,3.584,3.584,0,0,1,2.637-.668Z" transform="translate(-49.589 -232.879)" fill="#9bcf1b"/>
      <path id="Path_24570" data-name="Path 24570" d="M36.537,254.486a13.814,13.814,0,0,0,.816,1.877.33.33,0,1,1-.585.306,14.318,14.318,0,0,1-.9-2.1,4.208,4.208,0,0,1-2.124-1.558,3.743,3.743,0,0,1-.946-2.8,3.7,3.7,0,0,1,2.434,1.547,14.546,14.546,0,0,1-.093-2.415.333.333,0,0,1,.307-.322.324.324,0,0,1,.34.338A13.694,13.694,0,0,0,36,252.462a5.609,5.609,0,0,1,.207-.769,3.743,3.743,0,0,1,1.832-2.321,3.743,3.743,0,0,1,0,2.957,4.213,4.213,0,0,1-1.508,2.157Zm19.871-2.157a3.743,3.743,0,0,1,0-2.957,3.743,3.743,0,0,1,1.832,2.321,5.618,5.618,0,0,1,.207.769,13.694,13.694,0,0,0,.212-3.107.324.324,0,0,1,.34-.338.333.333,0,0,1,.307.322,14.546,14.546,0,0,1-.093,2.415,3.7,3.7,0,0,1,2.434-1.547,3.743,3.743,0,0,1-.946,2.8,4.208,4.208,0,0,1-2.124,1.558,14.324,14.324,0,0,1-.9,2.1.33.33,0,1,1-.585-.306,13.811,13.811,0,0,0,.816-1.877,4.212,4.212,0,0,1-1.508-2.157Z" transform="translate(-30.636 -232.879)" fill="#b9e746"/>
      <path id="Path_24571" data-name="Path 24571" d="M62.57,197.843a4.74,4.74,0,0,1-.544,2.083.588.588,0,0,1-1.044-.047,4.74,4.74,0,0,1-.354-2.123,3.743,3.743,0,0,1,1.1-2.746A3.743,3.743,0,0,1,62.57,197.843Zm22.272-2.833a3.743,3.743,0,0,1,1.1,2.746,4.741,4.741,0,0,1-.354,2.123.588.588,0,0,1-1.044.047A4.741,4.741,0,0,1,84,197.843,3.743,3.743,0,0,1,84.842,195.01Z" transform="translate(-56.694 -182.372)" fill="#caed73"/>
    </g>
  </g>
</svg>
