<svg xmlns="http://www.w3.org/2000/svg" xmlns:xlink="http://www.w3.org/1999/xlink" width="244" height="220" viewBox="0 0 244 220">
  <defs>
    <filter id="Rounded_Rectangle_7_copy_11" x="0" y="0" width="244" height="220" filterUnits="userSpaceOnUse">
      <feOffset input="SourceAlpha"/>
      <feGaussianBlur stdDeviation="7" result="blur"/>
      <feFlood flood-opacity="0.2"/>
      <feComposite operator="in" in2="blur"/>
      <feComposite in="SourceGraphic"/>
    </filter>
  </defs>
  <g id="Group_37734" data-name="Group 37734" transform="translate(-29 -1736)">
    <g transform="matrix(1, 0, 0, 1, 29, 1736)" filter="url(#Rounded_Rectangle_7_copy_11)">
      <path id="Rounded_Rectangle_7_copy_11-2" data-name="Rounded Rectangle 7 copy 11" d="M20,0H142a60,60,0,0,1,60,60v98a20,20,0,0,1-20,20H20A20,20,0,0,1,0,158V20A20,20,0,0,1,20,0Z" transform="translate(21 21)" fill="#fff"/>
    </g>
    <text id="Videos" transform="translate(70 1900)" fill="#676b72" font-size="17" font-family="Montserrat-SemiBold, Montserrat" font-weight="600"><tspan x="0" y="0">Videos</tspan></text>
    <g id="Icons" transform="translate(62 1769.564)">
      <path id="Path_24572" data-name="Path 24572" d="M47.36,36.114H13.623A5.622,5.622,0,0,1,8,30.491V13.623A5.622,5.622,0,0,1,13.623,8H47.36a5.622,5.622,0,0,1,5.623,5.623V30.491A5.622,5.622,0,0,1,47.36,36.114Z" fill="#fab400"/>
      <path id="Path_24573" data-name="Path 24573" d="M13.749,34.365A3.752,3.752,0,0,1,10,30.617V13.749A3.752,3.752,0,0,1,13.749,10H47.485a3.752,3.752,0,0,1,3.749,3.749V30.617a3.752,3.752,0,0,1-3.749,3.749Z" transform="translate(-0.126 -0.126)" fill="#0a5078"/>
      <path id="Path_24574" data-name="Path 24574" d="M24,29.978V17.016a1.015,1.015,0,0,1,1.469-.908l12.963,6.481a1.016,1.016,0,0,1,0,1.817L25.469,30.887A1.016,1.016,0,0,1,24,29.978Z" transform="translate(-1.006 -0.503)" fill="#00325a"/>
      <path id="Path_24575" data-name="Path 24575" d="M51.234,13.749v.937a3.748,3.748,0,0,0-3.749-3.749H13.749A3.748,3.748,0,0,0,10,14.686v-.937A3.748,3.748,0,0,1,13.749,10H47.485A3.748,3.748,0,0,1,51.234,13.749Z" transform="translate(-0.126 -0.126)" fill="#00325a"/>
      <path id="Path_24576" data-name="Path 24576" d="M24,28.978V16.016a1.015,1.015,0,0,1,1.469-.908l12.963,6.481a1.016,1.016,0,0,1,0,1.817L25.469,29.887A1.016,1.016,0,0,1,24,28.978Z" transform="translate(-1.006 -0.44)" fill="#f0f0f0"/>
      <g id="Group_1880" data-name="Group 1880" transform="translate(17.371 21.12)">
        <path id="Path_24577" data-name="Path 24577" d="M44.24,36.057V48.24a7.45,7.45,0,0,1-1.5,4.489,1.892,1.892,0,0,0-.375,1.134H20.54A7.488,7.488,0,0,1,18,48.24v-7.5a1.88,1.88,0,0,1,1.874-1.874h1.874V24.811a2.811,2.811,0,0,1,5.623,0v9.371a2.811,2.811,0,0,1,5.623,0v.937a2.811,2.811,0,0,1,5.623,0v.937a2.8,2.8,0,0,1,2.333-2.765.546.546,0,0,1,.178-.028c.1-.009.2-.019.3-.019A2.82,2.82,0,0,1,44.24,36.057Z" transform="translate(-18 -22)" fill="#f2c8a0"/>
        <g id="Group_1879" data-name="Group 1879" transform="translate(2.811 0)">
          <g id="Group_1878" data-name="Group 1878">
            <path id="Path_24578" data-name="Path 24578" d="M45.779,36.811V48.994a7.45,7.45,0,0,1-1.5,4.489,1.892,1.892,0,0,0-.375,1.134h-.937a1.892,1.892,0,0,1,.375-1.134,7.45,7.45,0,0,0,1.5-4.489V36.811a2.81,2.81,0,0,0-2.352-2.765.546.546,0,0,1,.178-.028c.1-.009.2-.019.3-.019A2.82,2.82,0,0,1,45.779,36.811Z" transform="translate(-22.351 -22.754)" fill="#d1aa81"/>
            <path id="Path_24579" data-name="Path 24579" d="M21.937,40v9.118A1.871,1.871,0,0,1,21,47.5V40Z" transform="translate(-21 -23.132)" fill="#d1aa81"/>
            <path id="Path_24580" data-name="Path 24580" d="M27.78,24.811V38.4a.469.469,0,0,1-.937,0V24.811A2.8,2.8,0,0,0,24.5,22.047,1.94,1.94,0,0,1,24.969,22,2.816,2.816,0,0,1,27.78,24.811Z" transform="translate(-21.22 -22)" fill="#d1aa81"/>
            <path id="Path_24581" data-name="Path 24581" d="M33.78,34.811v4.217a.469.469,0,0,1-.937,0V34.811A2.8,2.8,0,0,0,30.5,32.047,1.94,1.94,0,0,1,30.969,32,2.816,2.816,0,0,1,33.78,34.811Z" transform="translate(-21.597 -22.629)" fill="#d1aa81"/>
            <path id="Path_24582" data-name="Path 24582" d="M39.78,35.811v3.28a.469.469,0,0,1-.937,0v-3.28A2.8,2.8,0,0,0,36.5,33.047,1.94,1.94,0,0,1,36.969,33,2.816,2.816,0,0,1,39.78,35.811Z" transform="translate(-21.974 -22.692)" fill="#d1aa81"/>
          </g>
        </g>
      </g>
    </g>
  </g>
</svg>
