<svg id="concept" xmlns="http://www.w3.org/2000/svg" width="66.962" height="102.547" viewBox="0 0 66.962 102.547">
  <path id="Path_24859" data-name="Path 24859" d="M127.215,454.006H114.877a5.381,5.381,0,0,1-5.381-5.381v-7.265h23.1v7.265A5.381,5.381,0,0,1,127.215,454.006Zm0,0" transform="translate(-87.565 -352.96)" fill="#426175"/>
  <path id="Path_24860" data-name="Path 24860" d="M121.283,371.838H98.274a2.868,2.868,0,0,1-2.867-2.867V349.387a2.867,2.867,0,0,1,2.867-2.867h23.01a2.868,2.868,0,0,1,2.867,2.867v19.584A2.868,2.868,0,0,1,121.283,371.838Zm0,0" transform="translate(-76.298 -277.116)" fill="#cdd6df"/>
  <path id="Path_24861" data-name="Path 24861" d="M193.1,346.52h-7.891v25.318H193.1a2.868,2.868,0,0,0,2.867-2.867V349.387A2.868,2.868,0,0,0,193.1,346.52Zm0,0" transform="translate(-148.112 -277.116)" fill="#abb2ba"/>
  <path id="Path_24862" data-name="Path 24862" d="M71.458,39.479a31.979,31.979,0,0,0-63.958,0,33.846,33.846,0,0,0,5.556,18.454c4.859,7.447,8.35,13.221,9.12,21.382A3.852,3.852,0,0,0,26,82.816h26.95a3.852,3.852,0,0,0,3.828-3.5c.771-8.161,4.262-13.934,9.121-21.382A33.852,33.852,0,0,0,71.458,39.479Zm0,0" transform="translate(-5.998 -5.998)" fill="#fed066"/>
  <path id="Path_24863" data-name="Path 24863" d="M145.684,7.5a32.171,32.171,0,0,0-5.38.453,31.986,31.986,0,0,1,26.6,31.526,33.846,33.846,0,0,1-5.556,18.454c-5.525,8.468-9.281,14.772-9.281,24.883h7.091a3.852,3.852,0,0,0,3.828-3.5c.771-8.161,4.262-13.934,9.121-21.382a33.852,33.852,0,0,0,5.555-18.454A31.979,31.979,0,0,0,145.684,7.5Zm0,0" transform="translate(-112.203 -5.998)" fill="#f5b556"/>
  <path id="Path_24864" data-name="Path 24864" d="M105.081,102.642h-1.3a1.945,1.945,0,0,1-1.864-1.373,15.716,15.716,0,0,0-1.247-2.973,1.947,1.947,0,0,1,.336-2.31l.933-.933a1.953,1.953,0,0,0,0-2.763l-1.574-1.574a1.954,1.954,0,0,0-2.763,0l-.933.933a1.948,1.948,0,0,1-2.31.336,15.746,15.746,0,0,0-2.974-1.247,1.945,1.945,0,0,1-1.373-1.864v-1.3a1.954,1.954,0,0,0-1.954-1.954H85.83a1.954,1.954,0,0,0-1.954,1.954v1.217a1.946,1.946,0,0,1-1.405,1.875A15.652,15.652,0,0,0,79.4,91.9a1.946,1.946,0,0,1-2.285-.35l-.832-.832a1.954,1.954,0,0,0-2.763,0l-1.574,1.574a1.953,1.953,0,0,0,0,2.763l.746.747a1.946,1.946,0,0,1,.328,2.328,15.655,15.655,0,0,0-1.34,3.14,1.956,1.956,0,0,1-1.876,1.375h-1a1.954,1.954,0,0,0-1.954,1.954v2.227a1.953,1.953,0,0,0,1.954,1.954h.924a1.947,1.947,0,0,1,1.877,1.4,15.7,15.7,0,0,0,1.327,3.242,1.943,1.943,0,0,1-.341,2.3l-.643.644a1.952,1.952,0,0,0,0,2.763l1.574,1.575a1.954,1.954,0,0,0,2.763,0l.643-.643a1.945,1.945,0,0,1,2.3-.342,15.662,15.662,0,0,0,3.243,1.328,1.945,1.945,0,0,1,1.4,1.877v.924A1.954,1.954,0,0,0,85.83,125.8h2.227a1.954,1.954,0,0,0,1.954-1.954v-1a1.954,1.954,0,0,1,1.375-1.875,15.738,15.738,0,0,0,3.14-1.34,1.946,1.946,0,0,1,2.328.327l.746.747a1.954,1.954,0,0,0,2.763,0l1.575-1.575a1.954,1.954,0,0,0,0-2.763l-.832-.832a1.946,1.946,0,0,1-.35-2.285,15.675,15.675,0,0,0,1.235-3.067,1.945,1.945,0,0,1,1.875-1.405h1.217a1.954,1.954,0,0,0,1.954-1.954V104.6A1.954,1.954,0,0,0,105.081,102.642ZM86.943,115.164a9.455,9.455,0,1,1,9.454-9.455A9.455,9.455,0,0,1,86.943,115.164Zm0,0" transform="translate(-53.462 -68.469)" fill="#f2f2f2"/>
  <path id="Path_24865" data-name="Path 24865" d="M60.6,13.843a1.5,1.5,0,0,0-2.432,1.763,30.255,30.255,0,0,1,5.789,17.874,32.229,32.229,0,0,1-5.312,17.633c-5.138,7.875-8.565,13.664-9.358,22.061a2.35,2.35,0,0,1-1.7,2.053,1.377,1.377,0,0,0-.178.043,2.383,2.383,0,0,1-.458.045H20.006a2.4,2.4,0,0,1-.458-.045,1.482,1.482,0,0,0-.178-.043,2.349,2.349,0,0,1-1.7-2.053c-.793-8.4-4.22-14.187-9.358-22.061A32.223,32.223,0,0,1,3,33.481,30.477,30.477,0,0,1,54.288,11.212a1.5,1.5,0,1,0,2.051-2.2A33.482,33.482,0,0,0,0,33.481,35.219,35.219,0,0,0,5.8,52.756c4.893,7.5,8.155,12.992,8.883,20.7a5.348,5.348,0,0,0,2.924,4.3v14.1a4.377,4.377,0,0,0,2.828,4.089,6.891,6.891,0,0,0,6.878,6.6H39.65a6.891,6.891,0,0,0,6.878-6.6,4.376,4.376,0,0,0,2.828-4.089v-14.1a5.345,5.345,0,0,0,2.924-4.3c.728-7.71,3.99-13.2,8.883-20.7a35.224,35.224,0,0,0,5.8-19.275A33.231,33.231,0,0,0,60.6,13.843ZM30.023,84.156H46.351V86.9H20.611V84.156h3.4a1.5,1.5,0,1,0,0-3h-3.4V78.32h25.74v2.831H30.024a1.5,1.5,0,0,0,0,3Zm15.036,9.062h-.046l-.063,0H22.013l-.063,0H21.9a1.367,1.367,0,0,1-1.292-1.363V89.9H46.351v1.954A1.368,1.368,0,0,1,45.059,93.218ZM39.65,99.543H27.312a3.885,3.885,0,0,1-3.839-3.319H43.489A3.885,3.885,0,0,1,39.65,99.543Zm0,0"/>
  <path id="Path_24866" data-name="Path 24866" d="M97.434,104.594a.443.443,0,0,1,.43-.314H99.08a3.46,3.46,0,0,0,3.457-3.456V98.6a3.46,3.46,0,0,0-3.457-3.456h-1.3a.445.445,0,0,1-.427-.306,17.251,17.251,0,0,0-1.366-3.259.449.449,0,0,1,.08-.528L97,90.117a3.456,3.456,0,0,0,0-4.887l-1.575-1.575a3.457,3.457,0,0,0-4.888,0l-.933.933a.447.447,0,0,1-.528.08A17.238,17.238,0,0,0,85.817,83.3a.445.445,0,0,1-.306-.427v-1.3a3.46,3.46,0,0,0-3.456-3.457H79.829a3.46,3.46,0,0,0-3.456,3.457V82.79a.444.444,0,0,1-.314.43A17.208,17.208,0,0,0,72.7,84.573a.446.446,0,0,1-.519-.085l-.832-.832a3.456,3.456,0,0,0-4.887,0L64.885,85.23a3.456,3.456,0,0,0,0,4.887l.747.746a.445.445,0,0,1,.08.53,17.246,17.246,0,0,0-1.469,3.44.453.453,0,0,1-.438.309h-1A3.46,3.46,0,0,0,59.348,98.6v2.227a3.46,3.46,0,0,0,3.457,3.456h.923a.443.443,0,0,1,.432.311,17.223,17.223,0,0,0,1.455,3.552.443.443,0,0,1-.086.52l-.643.643a3.456,3.456,0,0,0,0,4.887l1.574,1.574a3.456,3.456,0,0,0,4.887,0l.644-.643a.441.441,0,0,1,.52-.085,17.227,17.227,0,0,0,3.553,1.454.443.443,0,0,1,.31.432v.924a3.459,3.459,0,0,0,3.456,3.456h2.227a3.46,3.46,0,0,0,3.456-3.456v-1a.454.454,0,0,1,.309-.438,17.227,17.227,0,0,0,3.44-1.469.447.447,0,0,1,.53.08l.746.747a3.456,3.456,0,0,0,4.888,0L97,114.194a3.456,3.456,0,0,0,0-4.887l-.832-.832a.445.445,0,0,1-.086-.519A17.161,17.161,0,0,0,97.434,104.594Zm-2.89-.821a14.247,14.247,0,0,1-1.116,2.774,3.427,3.427,0,0,0,.614,4.051l.832.832a.451.451,0,0,1,0,.638L93.3,113.643a.452.452,0,0,1-.638,0l-.747-.746a3.458,3.458,0,0,0-4.126-.575,14.223,14.223,0,0,1-2.84,1.213,3.478,3.478,0,0,0-2.441,3.313v1a.452.452,0,0,1-.451.451H79.829a.452.452,0,0,1-.451-.451v-.924a3.459,3.459,0,0,0-2.493-3.322,14.21,14.21,0,0,1-2.932-1.2,3.394,3.394,0,0,0-1.632-.415A3.47,3.47,0,0,0,69.867,113l-.644.643a.451.451,0,0,1-.638,0l-1.575-1.575a.452.452,0,0,1,0-.638l.643-.643a3.462,3.462,0,0,0,.6-4.086,14.212,14.212,0,0,1-1.2-2.932,3.459,3.459,0,0,0-3.322-2.493H62.8a.452.452,0,0,1-.451-.451V98.6a.452.452,0,0,1,.451-.451h1A3.479,3.479,0,0,0,67.119,95.7a14.194,14.194,0,0,1,1.212-2.84,3.459,3.459,0,0,0-.574-4.126l-.747-.747a.452.452,0,0,1,0-.638l1.575-1.575a.453.453,0,0,1,.638,0l.832.832a3.428,3.428,0,0,0,4.052.614,14.221,14.221,0,0,1,2.774-1.116,3.46,3.46,0,0,0,2.5-3.32V81.572a.452.452,0,0,1,.452-.451h2.227a.452.452,0,0,1,.451.451v1.3a3.426,3.426,0,0,0,2.439,3.3A14.235,14.235,0,0,1,87.635,87.3a3.468,3.468,0,0,0,4.093-.592l.933-.933a.452.452,0,0,1,.638,0l1.574,1.575a.452.452,0,0,1,0,.638l-.933.933a3.47,3.47,0,0,0-.593,4.093,14.236,14.236,0,0,1,1.128,2.69,3.425,3.425,0,0,0,3.3,2.439h1.3a.453.453,0,0,1,.451.452v2.227a.452.452,0,0,1-.451.451H97.863A3.461,3.461,0,0,0,94.544,103.773Zm0,0" transform="translate(-47.461 -62.471)"/>
  <path id="Path_24867" data-name="Path 24867" d="M123.417,131.23a10.957,10.957,0,1,0,10.956,10.956A10.969,10.969,0,0,0,123.417,131.23Zm0,18.909a7.952,7.952,0,1,1,7.952-7.953A7.961,7.961,0,0,1,123.417,150.14Zm0,0" transform="translate(-89.936 -104.947)"/>
</svg>
