<svg xmlns="http://www.w3.org/2000/svg" width="108.649" height="113.527" viewBox="0 0 108.649 113.527">
  <g id="mind-mapping" transform="translate(-11.001)">
    <path id="Path_24876" data-name="Path 24876" d="M65.325,22A54.328,54.328,0,0,0,55.046,129.675L98.39,119.428A54.323,54.323,0,0,0,65.325,22Z" transform="translate(0 -17.123)" fill="#ff4155"/>
    <path id="Path_24877" data-name="Path 24877" d="M107.784,101.984l-4.254-14.239a12.115,12.115,0,0,1,3.577-11.968A43.661,43.661,0,0,0,77.528,0c-22.748,0-43.1,15.725-45.3,37.784A15.724,15.724,0,0,0,32.7,43.46l.559,2.062a6.794,6.794,0,0,1-1.322,6.111c-4.43,5.352-9.4,11.693-9.4,13.211,0,2.344,5.748,4.506,7.4,5.079a.653.653,0,0,1,.439.617v3.893a1.037,1.037,0,0,0,.379.8l2.712,2.223a.815.815,0,0,1,.273.829l-.227.9a2.826,2.826,0,0,0,.776,2.722l1.947,1.883a6.218,6.218,0,0,1,1.9,4.47v2.232a12.328,12.328,0,0,0,2.142,6.944A7.753,7.753,0,0,0,46.3,100.86a16.983,16.983,0,0,0,6.335-.941l5.263-1.834a1.9,1.9,0,0,1,2.265.833,23.766,23.766,0,0,1,3.252,11.105c.031.787.063,1.606.094,2.43a54.437,54.437,0,0,0,44.279-10.469Z" transform="translate(-8.977 0)" fill="#e9efff"/>
    <path id="Path_24878" data-name="Path 24878" d="M77.528,0c-22.748,0-43.1,15.725-45.3,37.784A15.724,15.724,0,0,0,32.7,43.46l.559,2.062a6.794,6.794,0,0,1-1.322,6.111c-4.43,5.352-9.4,11.693-9.4,13.21,0,2.344,5.748,4.506,7.4,5.079a.653.653,0,0,1,.439.617v3.893a1.037,1.037,0,0,0,.379.8l2.712,2.223a.815.815,0,0,1,.273.829l-.227.9a2.826,2.826,0,0,0,.776,2.722l1.947,1.883a6.218,6.218,0,0,1,1.9,4.47v2.232a12.328,12.328,0,0,0,2.142,6.944A7.753,7.753,0,0,0,46.3,100.86a16.982,16.982,0,0,0,6.335-.941l5.263-1.834a1.9,1.9,0,0,1,2.265.833,23.766,23.766,0,0,1,3.252,11.105c.031.787.063,1.606.094,2.43a54.736,54.736,0,0,0,23.088-.325c-8.54-8.071-.339-26.059-15.56-24.929C52.008,88.612,64.779,48.387,60.7,25.986S77.528,0,77.528,0Z" transform="translate(-8.977 0)" fill="#d3dcfb"/>
    <g id="Group_2399" data-name="Group 2399" transform="translate(65.488 18.515)">
      <path id="Path_24879" data-name="Path 24879" d="M258.5,93.471a1.769,1.769,0,0,1-1.769-1.769v-6.43a1.769,1.769,0,1,1,3.538,0V91.7A1.769,1.769,0,0,1,258.5,93.471Z" transform="translate(-256.732 -83.503)" fill="#bec8f7"/>
    </g>
    <g id="Group_2400" data-name="Group 2400" transform="translate(65.488 59.564)">
      <path id="Path_24880" data-name="Path 24880" d="M258.5,278.6a1.769,1.769,0,0,1-1.769-1.769V270.4a1.769,1.769,0,1,1,3.538,0v6.43A1.769,1.769,0,0,1,258.5,278.6Z" transform="translate(-256.732 -268.631)" fill="#bec8f7"/>
    </g>
    <g id="Group_2401" data-name="Group 2401" transform="translate(48.701 25.468)">
      <path id="Path_24881" data-name="Path 24881" d="M186.092,122.427l-4.547-4.547a1.769,1.769,0,0,1,2.5-2.5l4.547,4.547a1.769,1.769,0,0,1-2.5,2.5Z" transform="translate(-181.027 -114.86)" fill="#bec8f7"/>
    </g>
    <g id="Group_2402" data-name="Group 2402" transform="translate(77.728 54.495)">
      <path id="Path_24882" data-name="Path 24882" d="M317,253.334l-4.546-4.546a1.769,1.769,0,0,1,2.5-2.5l4.547,4.546a1.769,1.769,0,1,1-2.5,2.5Z" transform="translate(-311.933 -245.767)" fill="#bec8f7"/>
    </g>
    <g id="Group_2403" data-name="Group 2403" transform="translate(41.748 42.255)">
      <path id="Path_24883" data-name="Path 24883" d="M157.868,194.1h-6.43a1.769,1.769,0,1,1,0-3.538h6.43a1.769,1.769,0,0,1,0,3.538Z" transform="translate(-149.669 -190.566)" fill="#bec8f7"/>
    </g>
    <g id="Group_2404" data-name="Group 2404" transform="translate(82.797 42.255)">
      <path id="Path_24884" data-name="Path 24884" d="M343,194.1h-6.43a1.769,1.769,0,1,1,0-3.538H343a1.769,1.769,0,0,1,0,3.538Z" transform="translate(-334.797 -190.566)" fill="#bec8f7"/>
    </g>
    <g id="Group_2405" data-name="Group 2405" transform="translate(48.701 54.495)">
      <path id="Path_24885" data-name="Path 24885" d="M181.545,253.333a1.769,1.769,0,0,1,0-2.5l4.547-4.546a1.769,1.769,0,0,1,2.5,2.5l-4.547,4.546A1.769,1.769,0,0,1,181.545,253.333Z" transform="translate(-181.027 -245.767)" fill="#bec8f7"/>
    </g>
    <g id="Group_2406" data-name="Group 2406" transform="translate(77.728 25.468)">
      <path id="Path_24886" data-name="Path 24886" d="M312.451,122.427a1.769,1.769,0,0,1,0-2.5L317,115.378a1.769,1.769,0,0,1,2.5,2.5l-4.547,4.547a1.769,1.769,0,0,1-2.5,0Z" transform="translate(-311.933 -114.86)" fill="#bec8f7"/>
    </g>
    <path id="Path_24887" data-name="Path 24887" d="M105.179,180.1a4.091,4.091,0,1,0,4.091,4.091,4.1,4.1,0,0,0-4.091-4.091Z" transform="translate(-70.112 -140.164)" fill="#8ae1ff"/>
    <circle id="Ellipse_393" data-name="Ellipse 393" cx="1.918" cy="1.918" r="1.918" transform="translate(33.888 41.116)" fill="#b8f0ff"/>
    <path id="Path_24888" data-name="Path 24888" d="M144.813,283.957a4.091,4.091,0,1,0,5.785,0A4.1,4.1,0,0,0,144.813,283.957Z" transform="translate(-103.211 -220.063)" fill="#89e56a"/>
    <circle id="Ellipse_394" data-name="Ellipse 394" cx="12.254" cy="12.254" r="12.254" transform="translate(51.262 37.381) rotate(-22.514)" fill="#ff4155"/>
    <path id="Path_24889" data-name="Path 24889" d="M232.777,173.388c-3.988.46-4.948-3.552-4.948-3.552l-10.314-5.954c-4.949,0-4.484-4.395-4.484-4.4a12.254,12.254,0,1,0,19.745,13.9Z" transform="translate(-154.444 -124.121)" fill="#e80054"/>
    <path id="Path_24890" data-name="Path 24890" d="M241.257,186.409a9.528,9.528,0,0,1,5.135,2.965l5.081-3.655a2.824,2.824,0,0,0,1.1-1.07l.121-.209-.047-.024a2.969,2.969,0,0,1-1.48-2.372.59.59,0,0,0-.837-.483,2.974,2.974,0,0,1-4.274-2.468.59.59,0,0,0-.837-.483,2.97,2.97,0,0,1-2.794-.1c-.016-.009-.029-.02-.045-.029l-.121.209a2.821,2.821,0,0,0-.377,1.488Z" transform="translate(-179.201 -138.909)" fill="#fcf9eb"/>
    <path id="Path_24891" data-name="Path 24891" d="M245.328,183.313A2.243,2.243,0,0,1,248,181.907l.038-.212a2.964,2.964,0,0,1-1.984-2.6.59.59,0,0,0-.837-.483,2.97,2.97,0,0,1-2.794-.1c-.016-.009-.029-.02-.045-.029l-.121.209a2.821,2.821,0,0,0-.377,1.488l-.625,6.227a9.516,9.516,0,0,1,2.691,1.01C244.394,186.088,244.974,184.363,245.328,183.313Z" transform="translate(-179.201 -138.909)" fill="#fceca9"/>
    <path id="Path_24892" data-name="Path 24892" d="M242.44,214.357a9.759,9.759,0,0,0-2.889-1.1l-.506,5.046a1.056,1.056,0,0,0,1.679.969l4.116-2.961A9.761,9.761,0,0,0,242.44,214.357Z" transform="translate(-177.473 -165.969)" fill="#5f5f9b"/>
    <path id="Path_24893" data-name="Path 24893" d="M250.446,143.329l-4.607,7.98.045.028a3.184,3.184,0,0,0,2.994.1.361.361,0,0,1,.321,0l4.387-7.6A12.235,12.235,0,0,0,250.446,143.329Z" transform="translate(-182.767 -111.548)" fill="#ffb332"/>
    <path id="Path_24894" data-name="Path 24894" d="M265.379,145.661l-4.387,7.6c.008,0,.017.006.024.011a.363.363,0,0,1,.186.292,3.186,3.186,0,0,0,4.58,2.644.364.364,0,0,1,.346.015c.008,0,.014.011.021.016l4.336-7.51A12.245,12.245,0,0,0,265.379,145.661Z" transform="translate(-194.56 -113.363)" fill="#ffdd40"/>
    <path id="Path_24895" data-name="Path 24895" d="M288.585,159.484l-4.336,7.51a.36.36,0,0,1,.164.276A3.185,3.185,0,0,0,286,169.812l.047.024,4.5-7.79A12.31,12.31,0,0,0,288.585,159.484Z" transform="translate(-212.66 -124.121)" fill="#ffb332"/>
    <path id="Path_24896" data-name="Path 24896" d="M241.587,216.367l.7-2.093a9.759,9.759,0,0,0-2.738-1.02l-.506,5.046a1.056,1.056,0,0,0,1.679.969l1.59-1.144c-1.169-.339-.726-1.758-.726-1.758Z" transform="translate(-177.473 -165.969)" fill="#47477f"/>
    <path id="Path_24897" data-name="Path 24897" d="M147.7,77.442a4.091,4.091,0,1,0,4.091,4.091A4.1,4.1,0,0,0,147.7,77.442Z" transform="translate(-103.204 -60.271)" fill="#42c3fc"/>
    <path id="Path_24898" data-name="Path 24898" d="M158.659,82.775a1.918,1.918,0,1,0,1.918,1.918A1.92,1.92,0,0,0,158.659,82.775Z" transform="translate(-113.425 -64.421)" fill="#8ae1ff"/>
    <path id="Path_24899" data-name="Path 24899" d="M250.354,34.921a4.091,4.091,0,1,0,4.091,4.091A4.1,4.1,0,0,0,250.354,34.921Z" transform="translate(-183.097 -27.178)" fill="#746bf9"/>
    <path id="Path_24900" data-name="Path 24900" d="M261.313,40.254a1.918,1.918,0,1,0,1.918,1.918A1.92,1.92,0,0,0,261.313,40.254Z" transform="translate(-193.317 -31.328)" fill="#827df9"/>
    <path id="Path_24901" data-name="Path 24901" d="M353.008,77.442a4.091,4.091,0,1,0,4.091,4.091A4.1,4.1,0,0,0,353.008,77.442Z" transform="translate(-262.99 -60.271)" fill="#ff4155"/>
    <circle id="Ellipse_395" data-name="Ellipse 395" cx="1.918" cy="1.918" r="1.918" transform="translate(88.84 18.354)" fill="#ff7186"/>
    <path id="Path_24902" data-name="Path 24902" d="M395.529,180.1a4.091,4.091,0,1,0,4.091,4.091A4.1,4.1,0,0,0,395.529,180.1Z" transform="translate(-296.082 -140.164)" fill="#ff7186"/>
    <path id="Path_24903" data-name="Path 24903" d="M406.49,185.43a1.918,1.918,0,1,0,1.918,1.918A1.92,1.92,0,0,0,406.49,185.43Z" transform="translate(-306.303 -144.314)" fill="#fc95a9"/>
    <path id="Path_24904" data-name="Path 24904" d="M353.008,282.752a4.091,4.091,0,1,0,4.091,4.091A4.1,4.1,0,0,0,353.008,282.752Z" transform="translate(-262.99 -220.057)" fill="#ffb332"/>
    <path id="Path_24905" data-name="Path 24905" d="M363.968,288.085A1.918,1.918,0,1,0,365.885,290,1.92,1.92,0,0,0,363.968,288.085Z" transform="translate(-273.21 -224.207)" fill="#ffdd40"/>
    <path id="Path_24906" data-name="Path 24906" d="M250.354,325.273a4.091,4.091,0,1,0,4.091,4.091A4.1,4.1,0,0,0,250.354,325.273Z" transform="translate(-183.097 -253.149)" fill="#ffdd40"/>
    <path id="Path_24907" data-name="Path 24907" d="M261.314,330.606a1.918,1.918,0,1,0,1.918,1.918A1.92,1.92,0,0,0,261.314,330.606Z" transform="translate(-193.318 -257.3)" fill="#fceca9"/>
  </g>
</svg>
