<svg height="39" id="gift" viewBox="0 0 39 39" width="39" xmlns="http://www.w3.org/2000/svg">
    <rect data-name="Rectangle 29" fill="#e63946" height="19.348" id="Rectangle_29" stroke="#000"
          stroke-miterlimit="10" stroke-width="0.076" transform="translate(4.037 17.672)" width="11.654"/>
    <rect data-name="Rectangle 30" fill="#e63946" height="19.348" id="Rectangle_30" stroke="#000"
          stroke-miterlimit="10" stroke-width="0.076" transform="translate(23.004 17.672)" width="11.654"/>
    <g data-name="Group 60" id="Group_60">
        <g data-name="Group 59" id="Group_59">
            <path d="M35.572,9.141h-4.65A5.71,5.71,0,0,0,26.355,0a5.128,5.128,0,0,0-4.4,2.139A22.182,22.182,0,0,0,19.5,7.22a22.181,22.181,0,0,0-2.452-5.081A5.128,5.128,0,0,0,12.645,0,5.71,5.71,0,0,0,8.077,9.141H3.428A3.432,3.432,0,0,0,0,12.568v2.285a3.433,3.433,0,0,0,2.285,3.231V35.572A3.432,3.432,0,0,0,5.713,39H33.287a3.432,3.432,0,0,0,3.428-3.428V18.085A3.433,3.433,0,0,0,39,14.854V12.568A3.432,3.432,0,0,0,35.572,9.141ZM21.6,8.131c1.75-4.441,2.416-5.845,4.758-5.845a3.428,3.428,0,0,1,0,6.855H21.2C21.338,8.789,21.471,8.451,21.6,8.131ZM12.645,2.285c2.342,0,3.008,1.4,4.758,5.845.126.32.26.659.4,1.01H12.645a3.428,3.428,0,0,1,0-6.855Zm2.285,34.43H5.713A1.144,1.144,0,0,1,4.57,35.572V18.281H14.93ZM14.93,16H3.428a1.144,1.144,0,0,1-1.143-1.143V12.568a1.144,1.144,0,0,1,1.143-1.143h11.5Zm6.855,20.719h-4.57V11.426h4.57ZM34.43,35.572a1.144,1.144,0,0,1-1.143,1.143H24.07V18.281H34.43Zm2.285-20.719A1.144,1.144,0,0,1,35.572,16H24.07v-4.57h11.5a1.144,1.144,0,0,1,1.143,1.143Z"
                  data-name="Path 78"
                  fill="#3e6177"
                  id="Path_78"/>
        </g>
    </g>
</svg>
