<svg height="67.427" viewBox="0 0 49.086 67.427" width="49.086" xmlns="http://www.w3.org/2000/svg">
    <g id="plans" transform="translate(-84 -4)">
        <path d="M148.176,84.753h.412a16.622,16.622,0,1,0-.6-.012l.03,0C148.07,84.75,148.123,84.753,148.176,84.753ZM135.21,68.164a13.378,13.378,0,1,1,13.378,13.378A13.378,13.378,0,0,1,135.21,68.164Z"
              data-name="Path 1305"
              fill="#818181"
              id="Path_1305" transform="translate(-41.578 -41.154)"/>
        <path d="M132.622,55.323,121.866,44.567a23,23,0,1,0-22.882,4.009V69.82a1.616,1.616,0,0,0,2.5,1.336l5.531-3.687,5.531,3.687a1.616,1.616,0,0,0,2.5-1.336V60.441l6.234,6.233a1.616,1.616,0,0,0,2.709-.82l1.3-6.518,6.518-1.3a1.616,1.616,0,0,0,.82-2.709ZM87.211,27.01a19.8,19.8,0,1,1,19.8,19.8,19.822,19.822,0,0,1-19.8-19.8ZM107.9,64.2a1.605,1.605,0,0,0-1.781,0l-3.926,2.617V49.512a23.055,23.055,0,0,0,9.632,0V66.821ZM123.6,56.4a1.605,1.605,0,0,0-1.26,1.26l-.925,4.626L115.037,55.9V48.576a22.939,22.939,0,0,0,4.21-2.087l8.983,8.984Z"
              data-name="Path 1306"
              fill="#818181"
              id="Path_1306"/>
        <path d="M197.808,118.413a1.617,1.617,0,0,0,2.323-1.688l-.781-4.7,3.4-3.345a1.616,1.616,0,0,0-.887-2.731l-4.713-.71-2.132-4.263a1.616,1.616,0,0,0-2.872,0l-2.132,4.263-4.713.71a1.616,1.616,0,0,0-.887,2.731l3.4,3.345-.781,4.7a1.616,1.616,0,0,0,2.323,1.688l4.23-2.2Zm-7.09-4.329.392-2.357a1.605,1.605,0,0,0-.457-1.407l-1.7-1.676,2.362-.356a1.605,1.605,0,0,0,1.2-.87l1.068-2.137,1.068,2.137a1.605,1.605,0,0,0,1.2.87l2.362.356-1.7,1.677a1.605,1.605,0,0,0-.457,1.407l.392,2.357-2.12-1.1a1.605,1.605,0,0,0-1.479,0Z"
              data-name="Path 1307"
              fill="#818181"
              id="Path_1307" transform="translate(-86.567 -83.244)"/>
    </g>
</svg>
