<svg height="54.928" viewBox="0 0 59.381 54.928" width="59.381" xmlns="http://www.w3.org/2000/svg">
    <g id="wallet_active" transform="translate(0 -19.098)">
        <path d="M53.949,31.7H53.21V24.529A5.437,5.437,0,0,0,47.779,19.1H8.389A8.4,8.4,0,0,0,.044,26.663c-.063.3-.041-2.37-.041,38.978a8.4,8.4,0,0,0,8.385,8.385H53.949a5.437,5.437,0,0,0,5.431-5.431V37.135A5.437,5.437,0,0,0,53.949,31.7ZM8.389,22.828H47.779a1.7,1.7,0,0,1,1.7,1.7V31.7H8.389a4.66,4.66,0,0,1-4.649-4.438A4.66,4.66,0,0,1,8.389,22.828ZM53.949,70.3H8.389a4.66,4.66,0,0,1-4.655-4.655V34.021a8.337,8.337,0,0,0,4.655,1.414H53.949a1.7,1.7,0,0,1,1.7,1.7V44.7H41.613a8.669,8.669,0,1,0,0,17.339H55.65v6.559A1.7,1.7,0,0,1,53.949,70.3Zm1.7-11.99H41.613a4.939,4.939,0,1,1,0-9.878H55.65Z"
              data-name="Path 1308"
              fill="#f54a50"
              id="Path_1308" transform="translate(0)"/>
        <circle cx="2.703" cy="2.703" data-name="Ellipse 62" fill="#f54a50" id="Ellipse_62"
                r="2.703" transform="translate(39.599 50.663)"/>
    </g>
</svg>
