<svg xmlns="http://www.w3.org/2000/svg" xmlns:xlink="http://www.w3.org/1999/xlink" width="134" height="182.016" viewBox="0 0 134 182.016">
  <defs>
    <filter id="Rectangle_15252" x="0" y="0" width="134" height="182.016" filterUnits="userSpaceOnUse">
      <feOffset input="SourceAlpha"/>
      <feGaussianBlur stdDeviation="9" result="blur"/>
      <feFlood flood-opacity="0.161"/>
      <feComposite operator="in" in2="blur"/>
      <feComposite in="SourceGraphic"/>
    </filter>
  </defs>
  <g id="Group_2416" data-name="Group 2416" transform="translate(-563.5 -931.5)">
    <g transform="matrix(1, 0, 0, 1, 563.5, 931.5)" filter="url(#Rectangle_15252)">
      <path id="Rectangle_15252-2" data-name="Rectangle 15252" d="M40,0h84.016a4,4,0,0,1,4,4V76a4,4,0,0,1-4,4H40A40,40,0,0,1,0,40v0A40,40,0,0,1,40,0Z" transform="translate(107 27) rotate(90)" fill="#fff"/>
    </g>
    <g id="lightbulb" transform="translate(603.287 974.546)">
      <path id="Path_24910" data-name="Path 24910" d="M210.227,460.583v1.21a2.9,2.9,0,0,1-.017.316,2.848,2.848,0,0,1-2.83,2.531h-4.366a2.848,2.848,0,0,1-2.83-2.531,2.9,2.9,0,0,1-.017-.316v-1.21a3.022,3.022,0,0,0,1.234.261h7.592A3.022,3.022,0,0,0,210.227,460.583Z" transform="translate(-178.262 -416.871)" fill="#50758d"/>
      <g id="Group_2415" data-name="Group 2415" transform="translate(3.213 0)">
        <path id="Path_24911" data-name="Path 24911" d="M244.879,6.222a.712.712,0,0,1-.712-.712V.712a.712.712,0,0,1,1.424,0v4.8A.712.712,0,0,1,244.879,6.222Z" transform="translate(-221.299 0)" fill="#ffe7c9"/>
        <path id="Path_24912" data-name="Path 24912" d="M77.891,75.391a.71.71,0,0,1-.5-.208l-3.393-3.393A.712.712,0,0,1,75,70.782l3.393,3.393a.712.712,0,0,1-.5,1.215Z" transform="translate(-67.089 -63.876)" fill="#ffe7c9"/>
        <path id="Path_24913" data-name="Path 24913" d="M8.724,242.377h-4.8a.712.712,0,1,1,0-1.424h4.8a.712.712,0,0,1,0,1.424Z" transform="translate(-3.213 -218.085)" fill="#ffe7c9"/>
        <path id="Path_24914" data-name="Path 24914" d="M74.5,380.4a.712.712,0,0,1-.5-1.215l3.393-3.393a.712.712,0,0,1,1.007,1.007L75,380.188A.71.71,0,0,1,74.5,380.4Z" transform="translate(-67.089 -339.936)" fill="#ffe7c9"/>
        <path id="Path_24915" data-name="Path 24915" d="M382.9,380.4a.71.71,0,0,1-.5-.208L379,376.8a.712.712,0,0,1,1.007-1.007l3.393,3.393a.712.712,0,0,1-.5,1.215Z" transform="translate(-343.147 -339.936)" fill="#ffe7c9"/>
        <path id="Path_24916" data-name="Path 24916" d="M440.068,242.377h-4.8a.712.712,0,1,1,0-1.424h4.8a.712.712,0,0,1,0,1.424Z" transform="translate(-393.62 -218.085)" fill="#ffe7c9"/>
        <path id="Path_24917" data-name="Path 24917" d="M379.5,75.391a.712.712,0,0,1-.5-1.215l3.393-3.393a.712.712,0,0,1,1.007,1.007l-3.393,3.393A.709.709,0,0,1,379.5,75.391Z" transform="translate(-343.147 -63.876)" fill="#ffe7c9"/>
      </g>
      <path id="Path_24918" data-name="Path 24918" d="M205.2,453.333a39.439,39.439,0,0,1-5.03.688v1.21a2.9,2.9,0,0,0,.017.316,2.848,2.848,0,0,0,2.83,2.531h1.234a2.849,2.849,0,0,1-2.684-1.894.286.286,0,0,1,.268-.383h7.161a3.022,3.022,0,0,0,1.217-.253,2.9,2.9,0,0,0,.017-.316v-1.21A39.438,39.438,0,0,1,205.2,453.333Z" transform="translate(-178.262 -410.309)" fill="#2b597f"/>
      <path id="Path_24919" data-name="Path 24919" d="M194.326,378.838a3.035,3.035,0,0,1-3.037,3.037H183.7a3.035,3.035,0,0,1-3.037-3.037s-.045-4.436-.053-4.552v0l6.886-.949,6.808.949Z" transform="translate(-160.558 -337.902)" fill="#50758d"/>
      <path id="Path_24920" data-name="Path 24920" d="M185.31,390.925H183.7a3.034,3.034,0,0,1-3.037-3.037s-.045-4.436-.053-4.552v0h1.613v0c.009.116.053,4.552.053,4.552a3.034,3.034,0,0,0,3.037,3.037Z" transform="translate(-160.558 -346.953)" fill="#2b597f"/>
      <path id="Path_24921" data-name="Path 24921" d="M295.3,417.257h-2.42a.712.712,0,0,1,0-1.424h2.413l0,.712Z" transform="translate(-261.531 -376.368)" fill="#2b597f"/>
      <path id="Path_24922" data-name="Path 24922" d="M189.64,416.545a.712.712,0,0,1-.712.712H181l-.016-1.424h7.942A.712.712,0,0,1,189.64,416.545Z" transform="translate(-160.902 -376.368)" fill="#2b597f"/>
      <path id="Path_24923" data-name="Path 24923" d="M124.349,90.486h0a13.466,13.466,0,0,0-13.362,13.552,13.613,13.613,0,0,0,3.852,9.524c1.4,1.444,2.618,2.778,2.753,4.716l13.694.023c.077-1.995,1.211-3.343,2.624-4.818a13.612,13.612,0,0,0,3.775-9.444A13.451,13.451,0,0,0,124.349,90.486Z" transform="translate(-97.544 -81.897)" fill="#fad207"/>
      <path id="Path_24924" data-name="Path 24924" d="M131.285,118.3v0l-13.694-.023c-.135-1.938-1.35-3.272-2.753-4.716a13.614,13.614,0,0,1-3.852-9.524,13.465,13.465,0,0,1,13.362-13.551q.354,0,.705.019a13.616,13.616,0,0,0-8.6,23.056c1.4,1.444,2.618,2.778,2.753,4.716Z" transform="translate(-97.543 -81.9)" fill="#faa515"/>
      <path id="Path_24925" data-name="Path 24925" d="M185.929,203.737a1.565,1.565,0,0,1-1.178.6h-.059a1.566,1.566,0,0,1-1.162-.516l-4.461-4.935a1.566,1.566,0,0,1,2.324-2.1l3.208,3.549,5.118-6.591a1.566,1.566,0,0,1,2.474,1.921Z" transform="translate(-158.802 -174.814)" fill="#faa515"/>
    </g>
    <text id="Question_Of_the_Day" data-name="Question
Of 
the Day" transform="translate(630.5 1042)" fill="#1d3557" font-size="14" font-family="Montserrat-Bold, Montserrat" font-weight="700" letter-spacing="0.005em"><tspan x="-33" y="0">Question</tspan><tspan x="-10" y="18">Of </tspan><tspan x="-28" y="36">the Day</tspan></text>
  </g>
</svg>
