<svg height="38.745" viewBox="0 0 50.967 38.745" width="50.967" xmlns="http://www.w3.org/2000/svg">
    <g id="subject_active" transform="translate(0 -61)">
        <path d="M7.466,99.745H43.5a7.467,7.467,0,0,0,7.466-7.451,1.492,1.492,0,0,0-1.493-1.49H47.981V62.49A1.492,1.492,0,0,0,46.488,61H4.48a1.492,1.492,0,0,0-1.493,1.49V90.8H1.493A1.492,1.492,0,0,0,0,92.294,7.467,7.467,0,0,0,7.466,99.745ZM43.5,96.765H7.466a4.486,4.486,0,0,1-4.224-2.981H47.725A4.486,4.486,0,0,1,43.5,96.765ZM5.973,63.98H44.995V90.8H5.973Z"
              data-name="Path 1148"
              fill="#ff6a6a"
              id="Path_1148"/>
        <path d="M143.087,118.05a11.382,11.382,0,0,0-5.745,0,16.074,16.074,0,0,0-4.813,2.615,16.072,16.072,0,0,0-4.813-2.615,11.382,11.382,0,0,0-5.745,0A1.466,1.466,0,0,0,121,119.5v14.9a1.589,1.589,0,0,0,.493,1.175,1.144,1.144,0,0,0,1.1.271,9.29,9.29,0,0,1,4.5,0,15.224,15.224,0,0,1,4.666,2.727,1.185,1.185,0,0,0,.768.3h0a1.184,1.184,0,0,0,.768-.3,15.116,15.116,0,0,1,4.666-2.727,9.228,9.228,0,0,1,4.505,0,1.144,1.144,0,0,0,1.1-.272,1.589,1.589,0,0,0,.493-1.175V119.5A1.466,1.466,0,0,0,143.087,118.05Zm-19.525,14.606v-11.9a8.721,8.721,0,0,1,3.532.187,13.976,13.976,0,0,1,4.153,2.313v11.41a13.879,13.879,0,0,0-3.532-1.712A10.68,10.68,0,0,0,123.562,132.656Zm17.933,0a10.747,10.747,0,0,0-4.153.3,13.878,13.878,0,0,0-3.532,1.712V123.253a13.906,13.906,0,0,1,4.153-2.312,8.692,8.692,0,0,1,3.532-.189Z"
              data-name="Path 1149"
              fill="#ff6a6a"
              id="Path_1149" transform="translate(-107.045 -51.045)"/>
    </g>
</svg>
