<svg xmlns="http://www.w3.org/2000/svg" width="80" height="80" viewBox="0 0 80 80">
  <g id="Group_37857" data-name="Group 37857" transform="translate(-73 -979)">
    <rect id="Rectangle_15329" data-name="Rectangle 15329" width="80" height="80" transform="translate(73 979)" fill="none"/>
    <g id="Group_2026" data-name="Group 2026" transform="translate(2.028 317.061)">
      <path id="Path_24654" data-name="Path 24654" d="M9.816,37.723a2.543,2.543,0,0,0,.656,3.25l2.94,2.29a2.538,2.538,0,0,0,3.44-.293l1.726-1.891,2.486,2.1a2.524,2.524,0,0,0,1.853.593,2.559,2.559,0,0,0,1.73-.9l4.735-5.6a10.633,10.633,0,1,1,13.7-16.2L49.05,14.01a2.542,2.542,0,0,0-.3-3.583L47.529,9.4l.627-.682a2.546,2.546,0,0,0-.234-3.659L42.646.6a2.541,2.541,0,0,0-3.64.374l-.576.739L37.218.688a2.541,2.541,0,0,0-3.581.3L9.05,30.073a2.54,2.54,0,0,0,.087,3.379l1.922,2.058Z" transform="translate(86.428 668.426)" fill="#26bcdf"/>
      <path id="Path_24655" data-name="Path 24655" d="M53.5,14.792a10.671,10.671,0,0,1-4.126,6.116,25.426,25.426,0,0,1,5.6,15.983v7.095H19.389v-.447l11.7-4.282v-2.18a2.543,2.543,0,0,0-2.543-2.543H4.235a2.542,2.542,0,0,0-2.543,2.543v2.18l10.579,3.879v2.988a4.983,4.983,0,0,0,4.982,4.984H57.1a4.979,4.979,0,0,0,4.98-4.982V36.893A32.525,32.525,0,0,0,53.5,14.792Z" transform="translate(78.925 684.85)" fill="#26bcdf"/>
      <path id="Path_24656" data-name="Path 24656" d="M25.692,9.685a8.266,8.266,0,1,0,8.268,8.266A8.273,8.273,0,0,0,25.692,9.685Z" transform="translate(96.396 679.18)" fill="#299fba"/>
    </g>
  </g>
</svg>
