<svg xmlns="http://www.w3.org/2000/svg" width="80" height="80" viewBox="0 0 80 80">
  <g id="Group_37860" data-name="Group 37860" transform="translate(-409 -1273)">
    <rect id="Rectangle_15327" data-name="Rectangle 15327" width="80" height="80" transform="translate(409 1273)" fill="none"/>
    <g id="refresh" transform="translate(418.363 1282.363)">
      <path id="Path_24666" data-name="Path 24666" d="M7.4,33.639a24.37,24.37,0,0,1-.18-2.84,23.482,23.482,0,0,1,39.4-17.361l-2.081,2.118a1.846,1.846,0,0,0-.469,1.8,1.888,1.888,0,0,0,1.371,1.227c.363.073,12.3,3.918,11.537,3.766a1.825,1.825,0,0,0,2.13-2.129C59.034,19.86,56.392,6.6,56.545,7.363a1.788,1.788,0,0,0-3.032-.9L51.745,8.193A30.819,30.819,0,0,0,0,30.8v.072c0,1.017.047,1.8.1,2.405a1.8,1.8,0,0,0,1.444,1.607l3.707.741A1.806,1.806,0,0,0,7.4,33.639Zm0,0" fill="#26bcdf"/>
      <path id="Path_24667" data-name="Path 24667" d="M78.049,216.216l-3.718-.758a1.806,1.806,0,0,0-2.152,1.987,24.565,24.565,0,0,1,.186,2.858,23.454,23.454,0,0,1-39.4,17.324l2.081-2.081a1.845,1.845,0,0,0,.469-1.8,1.887,1.887,0,0,0-1.371-1.227c-.363-.073-12.3-3.918-11.537-3.766a1.768,1.768,0,0,0-1.624.505,1.8,1.8,0,0,0-.506,1.624c.073.363,2.716,13.5,2.563,12.74A1.808,1.808,0,0,0,24.3,244.99a1.734,1.734,0,0,0,1.768-.469l1.733-1.732A30.752,30.752,0,0,0,79.583,220.3v-.109c0-.8-.029-1.585-.1-2.366A1.8,1.8,0,0,0,78.049,216.216Zm0,0" transform="translate(-17.985 -189.505)" fill="#299fba"/>
    </g>
  </g>
</svg>
