<svg xmlns="http://www.w3.org/2000/svg" width="80" height="80" viewBox="0 0 80 80">
  <g id="Group_37859" data-name="Group 37859" transform="translate(-113 -1273)">
    <rect id="Rectangle_15328" data-name="Rectangle 15328" width="80" height="80" transform="translate(113 1273)" fill="none"/>
    <g id="literature" transform="translate(99.959 1261.125)">
      <g id="Group_37851" data-name="Group 37851" transform="translate(23.357 20)">
        <path id="Path_25223" data-name="Path 25223" d="M84.427,122.112v33.079a1.233,1.233,0,0,1-1.234,1.234H26.371a1.233,1.233,0,0,1-1.234-1.234V122.112a1.235,1.235,0,0,1,1.234-1.234h2.37v29.643a1.234,1.234,0,0,0,1.646,1.163c6.756-2.4,18.624-2.165,24.395.689v0c5.771-2.856,17.637-3.09,24.393-.688a1.235,1.235,0,0,0,1.646-1.163V120.878h2.372a1.235,1.235,0,0,1,1.234,1.234Z" transform="translate(-25.137 -92.318)" fill="#26bcdf"/>
        <path id="Path_25224" data-name="Path 25224" d="M87.183,120.878v29.645a2.964,2.964,0,0,1-3.952,2.792c-6.359-2.261-17.743-2.017-23.05.607a1.719,1.719,0,0,1-1.6-.037c-5.366-2.6-16.684-2.809-22.98-.573a2.964,2.964,0,0,1-3.952-2.792V120.878h1.728v29.643a1.234,1.234,0,0,0,1.646,1.163c6.756-2.4,18.624-2.165,24.395.689v0c5.771-2.856,17.637-3.09,24.393-.689a1.235,1.235,0,0,0,1.646-1.163V120.878Z" transform="translate(-29.771 -92.318)" fill="#53dbfa"/>
        <path id="Path_25225" data-name="Path 25225" d="M88.956,99.969a27.133,27.133,0,0,0-7.343-1.718c-.568-.064-1.145-.116-1.728-.155v.363a2.469,2.469,0,0,1-2.468,2.468H66.062l-2.38,4.127-.227-.393L61.3,100.926H49.948a2.469,2.469,0,0,1-2.468-2.468v-.363c-.582.039-1.16.091-1.728.153a27.227,27.227,0,0,0-7.346,1.718,1.24,1.24,0,0,0-.765,1.143V134.3a1.234,1.234,0,0,0,1.646,1.163c6.756-2.4,18.624-2.165,24.395.689v0c5.771-2.856,17.637-3.09,24.393-.689a1.235,1.235,0,0,0,1.646-1.163v-33.2A1.24,1.24,0,0,0,88.956,99.969Z" transform="translate(-34.037 -76.101)" fill="#dbf8ff"/>
        <path id="Path_25226" data-name="Path 25226" d="M104.185,24.247V44.136a2.469,2.469,0,0,1-2.468,2.468H90.362l-2.379,4.127-.227-.393L85.6,46.6H74.248a2.469,2.469,0,0,1-2.468-2.468V24.247a2.469,2.469,0,0,1,2.468-2.468h27.468A2.469,2.469,0,0,1,104.185,24.247Z" transform="translate(-58.338 -21.779)" fill="#72c2e9"/>
        <g id="Group_37850" data-name="Group 37850" transform="translate(0.771 6.191)">
          <g id="Group_37848" data-name="Group 37848" transform="translate(50.253)">
            <path id="Path_25227" data-name="Path 25227" d="M209.153,46.855c-1.075-.354-1.914-.583-2.476-3a.767.767,0,0,0-1.493,0c-.55,2.367-1.316,2.62-2.476,3a.767.767,0,0,0,0,1.456c1.927.637,2.145,1.578,2.476,3a.767.767,0,0,0,1.493,0c.549-2.367,1.357-2.634,2.476-3A.768.768,0,0,0,209.153,46.855Z" transform="translate(-202.184 -43.261)"/>
            <path id="Path_25228" data-name="Path 25228" d="M213.469,55.067a3.8,3.8,0,0,0-1.133,1.28,3.974,3.974,0,0,0-1.2-1.268,3.784,3.784,0,0,0,1.187-1.337A3.919,3.919,0,0,0,213.469,55.067Z" transform="translate(-208.555 -50.721)" fill="#f0c020"/>
          </g>
          <g id="Group_37849" data-name="Group 37849">
            <path id="Path_25229" data-name="Path 25229" d="M34.783,46.855c-1.075-.354-1.914-.583-2.476-3a.767.767,0,0,0-1.493,0c-.55,2.367-1.316,2.62-2.476,3a.767.767,0,0,0,0,1.456c1.927.637,2.145,1.578,2.476,3a.767.767,0,0,0,1.493,0c.549-2.367,1.357-2.634,2.476-3A.767.767,0,0,0,34.783,46.855Z" transform="translate(-27.814 -43.261)"/>
            <path id="Path_25230" data-name="Path 25230" d="M39.1,55.067a3.8,3.8,0,0,0-1.133,1.28,3.973,3.973,0,0,0-1.2-1.268,3.784,3.784,0,0,0,1.187-1.337A3.919,3.919,0,0,0,39.1,55.067Z" transform="translate(-34.185 -50.721)" fill="#f0c020"/>
          </g>
        </g>
        <path id="Path_25231" data-name="Path 25231" d="M99.918,98.1v.363a2.469,2.469,0,0,1-2.468,2.468H86.095l-2.379,4.127-2.379-4.127H69.981a2.469,2.469,0,0,1-2.468-2.468v-.363c-.582.039-1.16.091-1.728.153v.21a4.2,4.2,0,0,0,4.2,4.2H80.338l1.881,3.263a1.727,1.727,0,0,0,2.992,0l1.881-3.263H97.449a4.2,4.2,0,0,0,4.2-4.2v-.207C101.078,98.187,100.5,98.135,99.918,98.1Z" transform="translate(-54.07 -76.101)"/>
      </g>
      <g id="Group_37852" data-name="Group 37852" transform="translate(28.708 74.536)">
        <path id="Path_25232" data-name="Path 25232" d="M67.73,214.495c-6.291-2.551-16.594-2.592-23.114-.8a.721.721,0,0,1-.382-1.39c6.737-1.85,17.165-1.814,23.766.749,5.729-2.223,13.952-2.453,20.011-1.53a.721.721,0,1,1-.217,1.425c-5.89-.9-14.04-.675-19.523,1.548A.722.722,0,0,1,67.73,214.495Zm23.648-.8q-.4-.11-.816-.21a.721.721,0,1,1,.339-1.4q.438.106.859.222a.72.72,0,1,1-.382,1.389Z" transform="translate(-43.705 -211.01)" fill="#fff"/>
      </g>
      <g id="Group_37853" data-name="Group 37853" transform="translate(38.961 22.161)">
        <path id="Path_25233" data-name="Path 25233" d="M80,49.782a.72.72,0,0,1-.721-.72V33.746a.72.72,0,1,1,1.441,0V49.061A.72.72,0,0,1,80,49.782Zm0-18.2a.72.72,0,0,1-.721-.72V30a.72.72,0,1,1,1.441,0v.865A.72.72,0,0,1,80,31.585Z" transform="translate(-79.281 -29.279)" fill="#c5e5fe"/>
      </g>
      <g id="Group_37854" data-name="Group 37854" transform="translate(65.602 22.161)">
        <path id="Path_25234" data-name="Path 25234" d="M172.441,49.782a.72.72,0,0,1-.721-.72V48.2a.721.721,0,0,1,1.441,0v.865A.72.72,0,0,1,172.441,49.782Zm0-3.747a.72.72,0,0,1-.721-.72V30a.721.721,0,0,1,1.441,0V45.315A.72.72,0,0,1,172.441,46.035Z" transform="translate(-171.72 -29.279)" fill="#c5e5fe"/>
      </g>
      <path id="Path_25235" data-name="Path 25235" d="M51.519,124.71a39.64,39.64,0,0,1,16.794-.145.721.721,0,1,0,.3-1.408,41.085,41.085,0,0,0-17.433.151.721.721,0,1,0,.335,1.4Z" transform="translate(-19.927 -73.328)"/>
      <path id="Path_25236" data-name="Path 25236" d="M147.235,124.569a40.077,40.077,0,0,1,13.759-.429.721.721,0,1,0,.206-1.426,41.53,41.53,0,0,0-14.27.447.72.72,0,1,0,.305,1.408Z" transform="translate(-88.068 -73.331)"/>
      <path id="Path_25237" data-name="Path 25237" d="M50.652,142.98a.72.72,0,0,0,.868.533,39.641,39.641,0,0,1,16.794-.145.721.721,0,1,0,.305-1.408,41.081,41.081,0,0,0-17.434.151A.721.721,0,0,0,50.652,142.98Z" transform="translate(-19.928 -86.711)"/>
      <path id="Path_25238" data-name="Path 25238" d="M147.235,143.371a40.084,40.084,0,0,1,13.759-.429.721.721,0,0,0,.206-1.426,41.521,41.521,0,0,0-14.27.447.72.72,0,1,0,.305,1.408Z" transform="translate(-88.068 -86.714)"/>
      <path id="Path_25239" data-name="Path 25239" d="M50.652,161.783a.72.72,0,0,0,.868.533,39.642,39.642,0,0,1,16.794-.145.721.721,0,1,0,.305-1.408,41.081,41.081,0,0,0-17.434.151A.72.72,0,0,0,50.652,161.783Z" transform="translate(-19.928 -100.095)"/>
      <path id="Path_25240" data-name="Path 25240" d="M147.235,162.173a40.084,40.084,0,0,1,13.759-.429.721.721,0,1,0,.206-1.426,41.521,41.521,0,0,0-14.27.447.72.72,0,1,0,.305,1.408Z" transform="translate(-88.068 -100.098)"/>
      <path id="Path_25241" data-name="Path 25241" d="M50.652,180.586a.72.72,0,0,0,.868.534,39.645,39.645,0,0,1,16.794-.144.721.721,0,0,0,.305-1.408,41.092,41.092,0,0,0-17.433.151A.72.72,0,0,0,50.652,180.586Z" transform="translate(-19.928 -113.48)"/>
      <path id="Path_25242" data-name="Path 25242" d="M147.235,180.977a40.091,40.091,0,0,1,13.759-.429.721.721,0,0,0,.206-1.426,41.544,41.544,0,0,0-14.27.447.72.72,0,1,0,.305,1.408Z" transform="translate(-88.068 -113.482)"/>
      <path id="Path_25243" data-name="Path 25243" d="M50.652,199.387a.72.72,0,0,0,.868.534,39.637,39.637,0,0,1,16.794-.144.721.721,0,1,0,.305-1.408,41.082,41.082,0,0,0-17.433.151A.72.72,0,0,0,50.652,199.387Z" transform="translate(-19.928 -126.863)"/>
      <path id="Path_25244" data-name="Path 25244" d="M147.235,199.779a40.069,40.069,0,0,1,13.759-.429.721.721,0,0,0,.206-1.426,41.51,41.51,0,0,0-14.27.447.72.72,0,1,0,.305,1.408Z" transform="translate(-88.068 -126.865)"/>
      <path id="Path_25245" data-name="Path 25245" d="M27.448,43.2a1.955,1.955,0,0,0-1.207,1.788c0,.006,0,.012,0,.019v2.832H24.591a1.957,1.957,0,0,0-1.955,1.955V82.873a1.957,1.957,0,0,0,1.955,1.955h39.53a.72.72,0,0,0,0-1.441H24.59a.514.514,0,0,1-.512-.514V49.794a.514.514,0,0,1,.514-.514H26.24v15.9a.72.72,0,1,0,1.441,0V45.012s0,0,0,0A.519.519,0,0,1,28,44.529a28.247,28.247,0,0,1,8.1-1.758,3.191,3.191,0,0,0,3.159,2.775H50.206l2.075,3.6v29.8C46.171,76.512,35,76.331,28.365,78.687a.514.514,0,0,1-.684-.488V70.945a.72.72,0,1,0-1.441,0c0,.118,0,7.148,0,7.266a1.955,1.955,0,0,0,2.608,1.834c6.715-2.385,18.253-2.074,23.789.633a.729.729,0,0,0,.685.025c5.518-2.73,17.1-3.048,23.833-.655a1.957,1.957,0,0,0,2.607-1.842V49.28h1.651a.514.514,0,0,1,.514.514V82.873a.514.514,0,0,1-.512.514H69.884a.721.721,0,1,0,0,1.441H81.413a1.957,1.957,0,0,0,1.955-1.955V49.794a1.957,1.957,0,0,0-1.955-1.955H79.761V45.008a1.953,1.953,0,0,0-1.207-1.8,29.7,29.7,0,0,0-8.63-1.875V22.468a3.192,3.192,0,0,0-3.189-3.189H65.207a.721.721,0,1,0,0,1.441h1.53a1.75,1.75,0,0,1,1.747,1.748V42.357A1.75,1.75,0,0,1,66.736,44.1H55.381a.72.72,0,0,0-.624.361L53,47.51l-1.755-3.045a.721.721,0,0,0-.624-.361H39.268a1.75,1.75,0,0,1-1.748-1.748V22.468a1.75,1.75,0,0,1,1.745-1.748H59.44a.72.72,0,1,0,0-1.441H39.268a3.192,3.192,0,0,0-3.189,3.189v18.86A29.753,29.753,0,0,0,27.448,43.2ZM55.8,45.546H66.736a3.192,3.192,0,0,0,3.159-2.774A28.223,28.223,0,0,1,78,44.533a.516.516,0,0,1,.322.475v33.2a.514.514,0,0,1-.684.484c-6.633-2.358-17.8-2.177-23.914.262V49.145Z" transform="translate(0 0)"/>
      <circle id="Ellipse_2514" data-name="Ellipse 2514" cx="0.72" cy="0.72" r="0.72" transform="translate(61.602 19.279)"/>
      <circle id="Ellipse_2515" data-name="Ellipse 2515" cx="0.72" cy="0.72" r="0.72" transform="translate(26.24 67.342)"/>
      <circle id="Ellipse_2516" data-name="Ellipse 2516" cx="0.72" cy="0.72" r="0.72" transform="translate(66.282 83.386)"/>
      <path id="Path_25246" data-name="Path 25246" d="M98.708,41.791a.72.72,0,0,0,0-1.441H90.864a.72.72,0,0,0-.72.72V53.751a.72.72,0,0,0,.72.72h7.844a.72.72,0,1,0,0-1.441H91.585v-4.9h7.123a.72.72,0,1,0,0-1.441H91.585v-4.9Z" transform="translate(-48.052 -14.998)"/>
      <path id="Path_25247" data-name="Path 25247" d="M133.64,41.07V53.751a.721.721,0,0,0,1.441,0V43.6l6.511,10.525a.721.721,0,0,0,1.333-.379V41.07a.72.72,0,1,0-1.441,0V51.217l-6.511-10.525a.721.721,0,0,0-1.333.379Z" transform="translate(-79.013 -14.998)"/>
    </g>
  </g>
</svg>
