<svg xmlns="http://www.w3.org/2000/svg" width="80" height="80" viewBox="0 0 80 80">
  <g id="Group_37855" data-name="Group 37855" transform="translate(-72 -679)">
    <rect id="Rectangle_15324" data-name="Rectangle 15324" width="80" height="80" transform="translate(72 679)" fill="none"/>
    <g id="elearning" transform="translate(81.729 688.73)">
      <path id="Path_25147" data-name="Path 25147" d="M6.587,208.274l-.216-5.781a6.114,6.114,0,0,0-1.059-3.218l-3.935-5.767a7.909,7.909,0,0,1-.115-8.742l6.784-10.531,4.43,15.262-1.78,19-3.411.383A.629.629,0,0,1,6.587,208.274Z" transform="translate(0 -153.774)" fill="#f1d0a5"/>
      <path id="Path_25148" data-name="Path 25148" d="M117.15,33.988a3.112,3.112,0,0,1-3.112,3.112H67.723a3.112,3.112,0,0,1-3.112-3.112V3.112A3.112,3.112,0,0,1,67.723,0h46.316a3.112,3.112,0,0,1,3.112,3.112Z" transform="translate(-57.023)" fill="#26bcdf"/>
      <path id="Path_25149" data-name="Path 25149" d="M472.732,3.112A3.112,3.112,0,0,0,469.62,0h-2.113a3.112,3.112,0,0,1,3.112,3.112V33.988a3.112,3.112,0,0,1-3.112,3.112h2.113a3.112,3.112,0,0,0,3.112-3.112Z" transform="translate(-412.604 0)" fill="#299fba"/>
      <path id="Path_25150" data-name="Path 25150" d="M153.888,35.276h-42.6a.175.175,0,0,0-.169.179V63.912a.175.175,0,0,0,.169.179h42.6a.175.175,0,0,0,.169-.179V35.455A.174.174,0,0,0,153.888,35.276Z" transform="translate(-98.073 -31.133)" fill="#d3effb"/>
      <path id="Path_25151" data-name="Path 25151" d="M458.293,35.276h-2.261a.175.175,0,0,1,.169.179V63.912a.175.175,0,0,1-.169.179h2.261a.175.175,0,0,0,.169-.179V35.455A.175.175,0,0,0,458.293,35.276Z" transform="translate(-402.477 -31.133)" fill="#b1e4f9"/>
      <g id="Group_37790" data-name="Group 37790" transform="translate(9.439 16.905)">
        <path id="Path_25152" data-name="Path 25152" d="M81.275,147.241a.907.907,0,0,1-.907-.907v-1.476a.907.907,0,1,1,1.815,0v1.476A.907.907,0,0,1,81.275,147.241Z" transform="translate(-80.368 -143.951)" fill="#299fba"/>
      </g>
      <path id="Path_25153" data-name="Path 25153" d="M72.047,253.978l.1-4.184a7.232,7.232,0,0,1,.4-2.216,6.076,6.076,0,0,0-1.045-5.864,1.088,1.088,0,0,1-.112-1.219l5.731-10.354a2.132,2.132,0,0,0-3.432-2.477L64.155,238l.627,7.2,2.534,9.835,4.169-.452a.629.629,0,0,0,.561-.611Z" transform="translate(-56.62 -200.322)" fill="#f1d0a5"/>
      <path id="Path_25154" data-name="Path 25154" d="M100.821,230.151a2.13,2.13,0,0,0-3.173-2.712,2.154,2.154,0,0,1,.179.155,2.132,2.132,0,0,1,.375,2.557L92.471,240.5a1.088,1.088,0,0,0,.112,1.219,6.076,6.076,0,0,1,1.045,5.864,7.227,7.227,0,0,0-.4,2.216l-.067,2.886a2.11,2.11,0,0,1-1.882,2.048l-.047.005a.247.247,0,0,0-.212.307l4.169-.452a.629.629,0,0,0,.561-.611l.094-4.056a7.6,7.6,0,0,1,.4-2.339,6.076,6.076,0,0,0-1.043-5.87,1.088,1.088,0,0,1-.112-1.219Z" transform="translate(-80.321 -200.332)" fill="#f1b986"/>
      <path id="Path_25155" data-name="Path 25155" d="M312.911,193.991h-12.18a1.558,1.558,0,0,1-1.558-1.558v-3.909a1.558,1.558,0,0,1,1.558-1.558h12.18a1.558,1.558,0,0,1,1.558,1.558v3.909A1.558,1.558,0,0,1,312.911,193.991Z" transform="translate(-264.039 -165.01)" fill="#80e29d"/>
      <path id="Path_25156" data-name="Path 25156" d="M398.022,186.965h-2.413a1.558,1.558,0,0,1,1.558,1.558v3.909a1.558,1.558,0,0,1-1.558,1.558h2.413a1.558,1.558,0,0,0,1.558-1.558v-3.909A1.558,1.558,0,0,0,398.022,186.965Z" transform="translate(-349.15 -165.009)" fill="#66b49d"/>
      <g id="Group_37791" data-name="Group 37791" transform="translate(33.51 40.275)">
        <path id="Path_25157" data-name="Path 25157" d="M306.184,362.809a.716.716,0,0,0,.716-.716v-3.5a4.213,4.213,0,0,1,.63-2.231l1.8-2.878a5.366,5.366,0,0,0,.5-4.553l-.854-2.482-1.65-3.494H295.139l-2.8,3.494-4.193-2.041a1.866,1.866,0,0,0-2.234.471,2.363,2.363,0,0,0,.025,3.112l5.436,5.885a3.744,3.744,0,0,1,.965,2.536v5.678a.716.716,0,0,0,.716.716h13.13Z" transform="translate(-285.339 -342.957)" fill="#f1d0a5"/>
      </g>
      <g id="Group_37792" data-name="Group 37792" transform="translate(52.804 40.208)">
        <path id="Path_25158" data-name="Path 25158" d="M454.839,348.427l-.854-2.482-1.65-3.494-1.918-.067,1.488,3.562.667,2.482a5.366,5.366,0,0,1-.5,4.553l-1.8,2.878a4.214,4.214,0,0,0-.631,2.231V362.3h1.551a.716.716,0,0,0,.716-.716v-3.5a4.214,4.214,0,0,1,.631-2.231l1.8-2.878A5.366,5.366,0,0,0,454.839,348.427Z" transform="translate(-449.638 -342.384)" fill="#f1b986"/>
      </g>
      <g id="Group_37793" data-name="Group 37793" transform="translate(40.508 25.954)">
        <path id="Path_25159" data-name="Path 25159" d="M349.095,238.818V223.294a2.09,2.09,0,1,0-4.161,0v15.524h4.161Z" transform="translate(-344.934 -221.002)" fill="#f1d0a5"/>
        <path id="Path_25160" data-name="Path 25160" d="M384.527,311.826v-6.711a1.482,1.482,0,0,0-1.559-1.391h-1.042a1.482,1.482,0,0,0-1.559,1.391v6.711Z" transform="translate(-376.205 -294.01)" fill="#f1d0a5"/>
        <path id="Path_25161" data-name="Path 25161" d="M419.959,311.826v-6.711a1.482,1.482,0,0,0-1.559-1.391h-1.042a1.482,1.482,0,0,0-1.559,1.391v6.711Z" transform="translate(-407.476 -294.01)" fill="#f1d0a5"/>
        <path id="Path_25162" data-name="Path 25162" d="M455.39,311.826v-6.711a1.482,1.482,0,0,0-1.559-1.391h-1.042a1.482,1.482,0,0,0-1.559,1.391v6.711Z" transform="translate(-438.746 -294.01)" fill="#f1d0a5"/>
      </g>
      <path id="Path_25163" data-name="Path 25163" d="M461.648,303.725h-1.042a1.725,1.725,0,0,0-.519.081,1.411,1.411,0,0,1,1.04,1.31v6.711h2.081v-6.711A1.482,1.482,0,0,0,461.648,303.725Z" transform="translate(-406.056 -268.057)" fill="#f1b986"/>
      <g id="Group_37794" data-name="Group 37794" transform="translate(43.762 36.152)">
        <path id="Path_25164" data-name="Path 25164" d="M373.547,316.367a.907.907,0,0,1-.907-.907v-6.711a.907.907,0,0,1,1.815,0v6.711A.907.907,0,0,1,373.547,316.367Z" transform="translate(-372.64 -307.842)" fill="#f1b986"/>
      </g>
      <g id="Group_37795" data-name="Group 37795" transform="translate(47.923 36.152)">
        <path id="Path_25165" data-name="Path 25165" d="M408.979,316.367a.907.907,0,0,1-.907-.907v-6.711a.907.907,0,0,1,1.815,0v6.711A.907.907,0,0,1,408.979,316.367Z" transform="translate(-408.072 -307.842)" fill="#f1b986"/>
      </g>
      <g id="Group_37796" data-name="Group 37796" transform="translate(52.084 36.152)">
        <path id="Path_25166" data-name="Path 25166" d="M444.409,316.367a.907.907,0,0,1-.907-.907v-6.711a.907.907,0,0,1,1.815,0v6.711A.907.907,0,0,1,444.409,316.367Z" transform="translate(-443.502 -307.842)" fill="#f1b986"/>
      </g>
      <path id="Path_25167" data-name="Path 25167" d="M179.1,118.182a14.164,14.164,0,0,1-11.358,0,.982.982,0,0,1-.6-.905v-9.1h12.567v9.1A.982.982,0,0,1,179.1,118.182Z" transform="translate(-147.513 -95.473)" fill="#4a80aa"/>
      <path id="Path_25168" data-name="Path 25168" d="M180.085,108.176v8.381a.982.982,0,0,1-.6.905,14.081,14.081,0,0,1-10.045.485.982.982,0,0,0,.335.233,14.164,14.164,0,0,0,11.358,0,.982.982,0,0,0,.6-.905v-9.1h-1.648Z" transform="translate(-149.538 -95.472)" fill="#407093"/>
      <path id="Path_25169" data-name="Path 25169" d="M156.369,68.406l-9.629,5.3a.219.219,0,0,1-.211,0l-9.629-5.3a.219.219,0,0,1,0-.384l9.629-5.3a.219.219,0,0,1,.211,0l9.629,5.3A.219.219,0,0,1,156.369,68.406Z" transform="translate(-120.722 -55.333)" fill="#365e7d"/>
      <path id="Path_25170" data-name="Path 25170" d="M218,68.022l-9.629-5.3a.219.219,0,0,0-.211,0l-1.543.849,8.087,4.45a.219.219,0,0,1,0,.384l-8.087,4.45,1.543.849a.219.219,0,0,0,.211,0l9.629-5.3a.219.219,0,0,0,0-.384Z" transform="translate(-182.348 -55.333)" fill="#2b4d66"/>
      <g id="Group_37797" data-name="Group 37797" transform="translate(24.884 11.973)">
        <path id="Path_25171" data-name="Path 25171" d="M215.784,110.767a.907.907,0,0,1-.907-.907V106.7l-2.77-3.252a.907.907,0,0,1,1.382-1.177l2.986,3.506a.908.908,0,0,1,.217.588v3.49A.907.907,0,0,1,215.784,110.767Z" transform="translate(-211.891 -101.956)" fill="#407093"/>
      </g>
      <g id="Group_37798" data-name="Group 37798" transform="translate(39.048 11.116)">
        <path id="Path_25172" data-name="Path 25172" d="M340.2,96.47h-6.794a.907.907,0,0,1,0-1.815H340.2a.907.907,0,0,1,0,1.815Z" transform="translate(-332.502 -94.655)" fill="#299fba"/>
      </g>
      <g id="Group_37799" data-name="Group 37799" transform="translate(39.048 15.278)">
        <path id="Path_25173" data-name="Path 25173" d="M345.043,131.916H333.41a.907.907,0,0,1,0-1.815h11.633a.907.907,0,1,1,0,1.815Z" transform="translate(-332.503 -130.101)" fill="#299fba"/>
      </g>
    </g>
  </g>
</svg>
