<svg xmlns="http://www.w3.org/2000/svg" width="80" height="80" viewBox="0 0 80 80">
  <g id="Group_37858" data-name="Group 37858" transform="translate(-427 -979)">
    <rect id="Rectangle_15326" data-name="Rectangle 15326" width="80" height="80" transform="translate(427 979)" fill="none"/>
    <g id="seo" transform="translate(435.092 987.092)">
      <circle id="Ellipse_2511" data-name="Ellipse 2511" cx="30.266" cy="30.266" r="30.266" transform="translate(3.11 3.11)" fill="#26bcdf"/>
      <path id="Path_25198" data-name="Path 25198" d="M30.189,77.235a12.532,12.532,0,0,1,15.225-1.929V53.763H0v39.59A1.253,1.253,0,0,0,1.249,94.6H29.865A12.534,12.534,0,0,1,30.189,77.235Z" transform="translate(0 -47.047)" fill="#eef6ff"/>
      <path id="Path_25199" data-name="Path 25199" d="M2.833,93.353V53.763H0v39.59A1.253,1.253,0,0,0,1.249,94.6H4.083A1.253,1.253,0,0,1,2.833,93.353Z" transform="translate(0 -47.047)" fill="#c3ddf4"/>
      <path id="Path_25200" data-name="Path 25200" d="M44.7,0H.714A.716.716,0,0,0,0,.714V7.07H45.414V.714A.716.716,0,0,0,44.7,0Z" fill="#69e3ff"/>
      <path id="Path_25201" data-name="Path 25201" d="M3.547,0H.714A.716.716,0,0,0,0,.714V7.07H2.833V.714A.716.716,0,0,1,3.547,0Z" fill="#0b79af"/>
      <path id="Path_25202" data-name="Path 25202" d="M51.987,104.3a.626.626,0,0,1-.625.625H37.441a.626.626,0,0,1-.625-.625V94.321a.626.626,0,0,1,.625-.625H51.362a.626.626,0,0,1,.625.625V104.3Z" transform="translate(-32.217 -81.991)" fill="#69cdff"/>
      <path id="Path_25203" data-name="Path 25203" d="M39.649,104.3V94.321a.626.626,0,0,1,.625-.625H37.441a.626.626,0,0,0-.625.625V104.3a.626.626,0,0,0,.625.625h2.833A.626.626,0,0,1,39.649,104.3Z" transform="translate(-32.217 -81.991)" fill="#52bbef"/>
      <path id="Path_25204" data-name="Path 25204" d="M59.344,281.788h-21.9a.626.626,0,0,0-.625.625v5.973a.626.626,0,0,0,.625.625H59.208A12.606,12.606,0,0,1,59.344,281.788Z" transform="translate(-32.217 -246.586)" fill="#ff9518"/>
      <path id="Path_25205" data-name="Path 25205" d="M39.649,288.385v-5.973a.626.626,0,0,1,.625-.625H37.441a.626.626,0,0,0-.625.625v5.973a.626.626,0,0,0,.625.625h2.833A.626.626,0,0,1,39.649,288.385Z" transform="translate(-32.217 -246.586)" fill="#ef8318"/>
      <path id="Path_25206" data-name="Path 25206" d="M185.385,281.788H180.85v7.222h4.4A12.606,12.606,0,0,1,185.385,281.788Z" transform="translate(-158.257 -246.586)" fill="#ffd00d"/>
      <g id="Group_37846" data-name="Group 37846" transform="translate(3.662 10.768)">
        <path id="Path_25207" data-name="Path 25207" d="M206.916,88.07H191.6a.937.937,0,0,1,0-1.874h15.314a.937.937,0,0,1,0,1.874Z" transform="translate(-170.509 -86.196)" fill="#91e0e8"/>
        <path id="Path_25208" data-name="Path 25208" d="M206.916,118.043H191.6a.937.937,0,0,1,0-1.874h15.314a.937.937,0,0,1,0,1.874Z" transform="translate(-170.509 -112.425)" fill="#91e0e8"/>
        <path id="Path_25209" data-name="Path 25209" d="M206.916,148.016H191.6a.937.937,0,0,1,0-1.874h15.314a.937.937,0,0,1,0,1.874Z" transform="translate(-170.509 -138.653)" fill="#91e0e8"/>
        <path id="Path_25210" data-name="Path 25210" d="M206.916,177.989H191.6a.937.937,0,0,1,0-1.874h15.314a.937.937,0,1,1,0,1.874Z" transform="translate(-170.509 -164.882)" fill="#91e0e8"/>
        <path id="Path_25211" data-name="Path 25211" d="M63.063,213.148H30.253a.937.937,0,1,0,0,1.874h27.68A12.385,12.385,0,0,1,63.063,213.148Z" transform="translate(-29.316 -197.289)" fill="#91e0e8"/>
        <path id="Path_25212" data-name="Path 25212" d="M55.6,243.662H30.253a.937.937,0,1,0,0,1.874H54.137A12.492,12.492,0,0,1,55.6,243.662Z" transform="translate(-29.316 -223.991)" fill="#91e0e8"/>
      </g>
      <path id="Path_25213" data-name="Path 25213" d="M28.332,21.484a.936.936,0,1,1,.662-.274A.947.947,0,0,1,28.332,21.484Z" transform="translate(-23.973 -17.16)" fill="#e26693"/>
      <path id="Path_25214" data-name="Path 25214" d="M52.927,21.484a.936.936,0,1,1,.663-.275A.94.94,0,0,1,52.927,21.484Z" transform="translate(-45.495 -17.16)" fill="#ffaf10"/>
      <path id="Path_25215" data-name="Path 25215" d="M77.532,21.484a.936.936,0,1,1,.662-.274A.942.942,0,0,1,77.532,21.484Z" transform="translate(-67.026 -17.16)" fill="#37c47a"/>
      <path id="Path_25216" data-name="Path 25216" d="M391.781,389.207l-2.568,2.568,5.052,5.052a30.8,30.8,0,0,0,2.568-2.568Z" transform="translate(-340.591 -340.586)" fill="#445ea0"/>
      <path id="Path_25217" data-name="Path 25217" d="M367.075,361.9l-2.128-2.128a12.59,12.59,0,0,1-5.132,5.14l2.124,2.124a.626.626,0,0,0,.883,0l4.252-4.252A.627.627,0,0,0,367.075,361.9Z" transform="translate(-314.865 -314.832)" fill="#293d7c"/>
      <path id="Path_25218" data-name="Path 25218" d="M363.4,393.53l-1.816-1.816a12.473,12.473,0,0,1-1.765,1.15l2.124,2.124a.626.626,0,0,0,.883,0l1.457-1.458A.626.626,0,0,1,363.4,393.53Z" transform="translate(-314.865 -342.779)" fill="#1a2b63"/>
      <path id="Path_25219" data-name="Path 25219" d="M232.106,214.044a12.769,12.769,0,1,1-18.058,0A12.769,12.769,0,0,1,232.106,214.044Z" transform="translate(-184.036 -184.032)" fill="#445ea0"/>
      <path id="Path_25220" data-name="Path 25220" d="M256.139,256.134a8.953,8.953,0,1,1,0-12.661A8.953,8.953,0,0,1,256.139,256.134Z" transform="translate(-210.767 -210.763)" fill="#69cdff"/>
      <path id="Path_25221" data-name="Path 25221" d="M256.138,268.426a9.011,9.011,0,0,0,.867-1.006A8.953,8.953,0,0,1,244.484,254.9a8.953,8.953,0,1,0,11.655,13.529Z" transform="translate(-210.766 -223.054)" fill="#52bbef"/>
      <path id="Path_25222" data-name="Path 25222" d="M146.131,0H115.912V7.07h30.934V.714A.716.716,0,0,0,146.131,0Z" transform="translate(-101.432)" fill="#26bcdf"/>
      <g id="Group_37847" data-name="Group 37847" transform="translate(39.08 31.547)">
        <circle id="Ellipse_2512" data-name="Ellipse 2512" cx="1.499" cy="1.499" r="1.499" fill="#d9eafc"/>
        <circle id="Ellipse_2513" data-name="Ellipse 2513" cx="1.062" cy="1.062" r="1.062" transform="translate(3.587 1.995)" fill="#d9eafc"/>
      </g>
    </g>
  </g>
</svg>
